<svg id="Layer_1" enable-background="new 0 0 56.689 56.689" height="512" viewBox="0 0 56.689 56.689" width="512" xmlns="http://www.w3.org/2000/svg"><path d="m52.178 19.12v11c-.001 1.93-1.572 3.5-3.501 3.5-1.93 0-3.5-1.57-3.5-3.5v-11c0-.424-.075-.616-.104-.655-.05-.045-.229-.12-.756-.176l-24.589-.003v4.991c0 1.82-1.259 2.772-2.502 2.772-.454 0-1.146-.127-1.868-.732l-9.679-8.1c-.74-.619-1.165-1.51-1.165-2.443s.425-1.823 1.165-2.442l9.679-8.099c.723-.604 1.414-.731 1.868-.731 1.243 0 2.502.952 2.502 2.771v5.013l24.521.002.136-.002c.78 0 3.484.153 5.55 2.142 1.022.985 2.243 2.773 2.243 5.692zm-2 0c0-2.217-.887-3.535-1.631-4.251-1.526-1.47-3.572-1.583-4.163-1.583l-.106.002-26.549-.002v-7.012c0-.482-.188-.771-.502-.771-.1 0-.309.035-.584.266l-9.68 8.1c-.285.237-.448.568-.448.908 0 .341.163.671.448.909l9.68 8.102c.275.23.484.266.584.266.314 0 .502-.288.502-.772v-6.993l26.728.007c.508.054 1.419.148 2.034.761.455.454.688 1.149.688 2.066v11c0 .826.673 1.5 1.5 1.5s1.5-.674 1.5-1.5v-11.003zm.834 20.353c.74.62 1.165 1.511 1.165 2.442 0 .934-.425 1.823-1.164 2.443l-9.68 8.099c-.723.604-1.414.73-1.868.73-1.243 0-2.502-.952-2.502-2.771v-5.013l-24.521-.002-.147.002c-.776 0-3.473-.153-5.537-2.143-1.023-.984-2.244-2.771-2.244-5.691v-10.999c0-1.93 1.57-3.5 3.5-3.5s3.5 1.57 3.5 3.5v11.001c0 .424.075.616.104.655.089.079.479.179.729.179h24.616v-4.991c0-1.82 1.259-2.773 2.502-2.773.453 0 1.145.127 1.868.733zm-.834 2.441c0-.339-.164-.67-.449-.909l-9.679-8.101c-.277-.231-.485-.267-.585-.267-.314 0-.502.289-.502.773v6.991h-26.616c-.141 0-1.396-.021-2.146-.768-.457-.453-.688-1.148-.688-2.066v-10.997c0-.826-.673-1.5-1.5-1.5s-1.5.674-1.5 1.5v11.001c0 2.218.887 3.535 1.631 4.25 1.526 1.471 3.563 1.584 4.15 1.584l.147-.002 26.521.002v7.013c0 .482.188.771.502.771.101 0 .31-.034.586-.266l9.679-8.097c.285-.24.449-.572.449-.912z"/></svg>