<?xml version="1.0" encoding="utf-8"?>
<!-- Generator: Adobe Illustrator 19.0.0, SVG Export Plug-In . SVG Version: 6.00 Build 0)  -->
<svg version="1.1" id="Слой_1" xmlns="http://www.w3.org/2000/svg" xmlns:xlink="http://www.w3.org/1999/xlink" x="0px" y="0px"
	 viewBox="0 0 595.3 841.9" style="enable-background:new 0 0 595.3 841.9;" xml:space="preserve">
<path id="XMLID_35_" d="M367.3,472c4.6,4.8,9.1,9.6,13.7,14.4C339.3,511,273.9,509.8,228.5,466c-45.5-43.8-52.9-112.8-19.3-165
	c34-52.9,100.5-74,158.8-50.5c60.4,24.4,86.8,84.9,81,132.4c-6.2,0-12.4,0-19.1,0c1.9-41.8-12.3-76.5-46.7-101.3
	c-25.6-18.5-54.5-24.6-85.3-18.5c-62.7,12.5-100.8,72.9-86.8,133.4C226.7,465.1,301.8,503.2,367.3,472z"/>
<path id="XMLID_32_" d="M309.2,382.6c0,5.2,0,9,0,13.2c15.6,0,30.8,0,46.4,0c0,5,0,9.6,0,14.7c-15.4,0-30.7,0-46.4,0
	c0,12.2,0,24,0,36c-8.8,0-17,0-25.8,0c0-11.9,0-23.6,0-35.9c-5.5,0-10.4,0-15.6,0c0-4.8,0-9,0-13.4c5.3-0.4,10.2-0.8,15.4-1.2
	c0-4.5,0-8.6,0-13.1c-5.4,0-10.4,0-15.7,0c0.2-4.5,0.4-8.6,0.6-12.9c5-0.5,9.9-0.9,15.4-1.4c0-23.9,0-47.6,0-71.9
	c19.4,1,38.5-2.2,57.1,3.2c28.5,8.3,40,41.3,22.5,64.9c-8.8,11.9-21.8,16.3-35.9,17.7C321.2,383.1,315.4,382.6,309.2,382.6z
	 M309.2,368.7c12.3,0.3,24.4-0.1,31.6-11.7c6.4-10.4,6.7-21.9,0.1-32.2c-7.4-11.5-19.7-10.4-31.7-10.1
	C309.2,332.8,309.2,350.4,309.2,368.7z"/>
<path id="XMLID_31_" d="M466,465.7c-14.8,14.2-29.6,28.5-44.5,42.7c0.3,0.5,0.6,1,0.9,1.5c-1.1-0.9-2.3-1.8-3.3-2.8
	c-12.5-12.7-25-25.4-37.4-38.1c-1.1-1.1-1.6-2.7-2.3-4c1.5-0.4,3-1.1,4.5-1.2c2.8-0.2,5.6-0.1,9-0.1c0-2.3,0-4.1,0-5.9
	c0-18,0-36,0-54c0-6.9,1.2-8,8.2-8c14.5,0,29,0,43.5,0c6.2,0,7.6,1.4,7.6,7.6c0,18,0,36,0,54c0,1.8,0,3.6,0,6
	c4.8,0.2,9.2,0.4,13.7,0.6C465.9,464.6,465.9,465.2,466,465.7z"/>
</svg>
