<svg id="Layer_1" data-name="Layer 1" xmlns="http://www.w3.org/2000/svg" viewBox="0 0 16 16"><defs><style>.cls-1{fill:#98c22a;}.cls-1,.cls-2,.cls-3,.cls-4{fill-rule:evenodd;}.cls-2{fill:#008dd2;}.cls-3{fill:#87ab15;}.cls-4{fill:#fefefe;}</style></defs><path id="Path_158" data-name="Path 158" class="cls-1" d="M12.41,5.94c.54-.05.82-.45.75-1.08A.9.9,0,0,0,12.41,5.94Z"/><path id="Path_160" data-name="Path 160" class="cls-1" d="M11.28,6.82c.48-.13.73-.51.61-1.15a.58.58,0,0,0-.53.34A1.48,1.48,0,0,0,11.28,6.82Z"/><path id="Path_161" data-name="Path 161" class="cls-1" d="M11.1,3.93a.9.9,0,0,0,.75.13.79.79,0,0,0,.55-.42C11.8,3.49,11.36,3.44,11.1,3.93Z"/><path id="Path_163" data-name="Path 163" class="cls-1" d="M10.89,3.31c.54-.14.81-.35.76-1A.82.82,0,0,0,10.89,3.31Z"/><path id="Path_175" data-name="Path 175" class="cls-1" d="M12.47,7.68c.29.42.6.37.94,0C13.14,7.52,12.77,7.36,12.47,7.68Z"/><path id="Path_151" data-name="Path 151" class="cls-2" d="M6.17,12.26a6.17,6.17,0,0,1-3-2.16,6,6,0,1,1,9.61,0,6.23,6.23,0,0,1-2.9,2.11v.59A6.55,6.55,0,0,0,7,.09,6.79,6.79,0,0,0,3.65,1.65,6.57,6.57,0,0,0,6.17,12.86Z"/><path id="Path_152" data-name="Path 152" class="cls-3" d="M8.28,1.12c-.13.48.26.61-.11,2.29-.16.76-.26,1.46-.4,2.22L6.33,4a2.84,2.84,0,0,1-.44-1.13c-.1-.55.07-1.07-.5-1A3.31,3.31,0,0,0,6,4.48a10.6,10.6,0,0,1,1.4,1.89c.72,1.44.38,4.37.38,6.13H7.24l0-3a3.86,3.86,0,0,0-.81-2.37c-.56-.85-1.81-3.4-3.28-3-.19.52.16.38,1,.93a4,4,0,0,1,1,1.11,3.63,3.63,0,0,1,.48,1c-1.08-.2-2,0-2.68-1-.22-.32-.18-.57-.67-.44a.75.75,0,0,0,.09.62,2.72,2.72,0,0,0,.86.92,4.33,4.33,0,0,1,.6.27l.05,0c-.14.22-.54.58-.44.89,0,.14,0,.06.07.12.52.24.6-.44.93-.68a1.57,1.57,0,0,1,1.39-.06c.84.38.82,1.61.82,2.7,0,.82,0,1.63,0,2.46l.85,1.67.32-.24h.41l.33.24L9.4,13v0h0c0-.12,0-.26,0-.42h0C9.33,11,9,8.31,10.14,7.82a1.57,1.57,0,0,1,1.39.06c.33.26.4.92.93.69l.09-.26A1,1,0,0,0,12.44,8l-.25-.35c-.1-.13,0,0-.1-.13.54-.37.65,0,1.46-1.14a.69.69,0,0,0,.14-.69c-.47-.15-.44.08-.63.39-.6,1-1.83.91-2.73,1.07a4.21,4.21,0,0,1,1.9-2.36c.39-.21.79-.19.6-.67-.59-.17-1.37.4-1.67.67A17.94,17.94,0,0,0,9.25,7.65,3.12,3.12,0,0,0,8.74,9.6l.1,2.87-.48,0-.08-5.1a2.49,2.49,0,0,1,.5-1.56l1-1.07c.4-.44,1.39-2.14.82-3-1,0,.14.87-1.22,2.5l-.69.76a3.36,3.36,0,0,1-.34.41c.08-1.29.93-3.14.4-4.35Z"/><path id="Path_153" data-name="Path 153" class="cls-1" d="M4.59,8.75c.44,0,1,.07,1.24-.57C5.08,8,4.78,8.14,4.59,8.75Z"/><path id="Path_154" data-name="Path 154" class="cls-1" d="M7.76,2.48c0-.68-.18-1-.77-1.11C6.94,2,7.15,2.4,7.76,2.48Z"/><path id="Path_155" data-name="Path 155" class="cls-1" d="M11.41,8.75c-.19-.61-.54-.72-1.24-.57C10.35,8.76,10.88,8.79,11.41,8.75Z"/><path id="Path_156" data-name="Path 156" class="cls-1" d="M6.85,3.79a.89.89,0,0,0-.2-1.3A.9.9,0,0,0,6.85,3.79Z"/><path id="Path_157" data-name="Path 157" class="cls-1" d="M3.59,5.94a.89.89,0,0,0-.75-1.08C2.79,5.48,3,5.86,3.59,5.94Z"/><path id="Path_159" data-name="Path 159" class="cls-1" d="M4.72,6.82A1.62,1.62,0,0,0,4.64,6a.59.59,0,0,0-.53-.33A.87.87,0,0,0,4.72,6.82Z"/><path id="Path_162" data-name="Path 162" class="cls-1" d="M8.92,6.15a.87.87,0,0,0,1.19-.58C9.38,5.5,9.15,5.65,8.92,6.15Z"/><path id="Path_164" data-name="Path 164" class="cls-1" d="M3.58,3.64a1,1,0,0,0,1.33.29C4.6,3.44,4.24,3.5,3.58,3.64Z"/><path id="Path_165" data-name="Path 165" class="cls-1" d="M5.11,3.32a.82.82,0,0,0-.76-1C4.3,2.93,4.59,3.16,5.11,3.32Z"/><path id="Path_166" data-name="Path 166" class="cls-1" d="M10,5.14c.62,0,.89-.22,1-.8C10.31,4.3,10.13,4.54,10,5.14Z"/><path id="Path_167" data-name="Path 167" class="cls-1" d="M6,5.11c-.17-.61-.24-.8-1-.77C5.11,4.89,5.34,5.16,6,5.11Z"/><path id="Path_168" data-name="Path 168" class="cls-1" d="M7.42,7.39a.69.69,0,0,0-.88-.75C6.62,7.2,6.81,7.41,7.42,7.39Z"/><path id="Path_169" data-name="Path 169" class="cls-1" d="M8.58,7.39c.63,0,.78-.17.88-.76A.7.7,0,0,0,8.58,7.39Z"/><path id="Path_170" data-name="Path 170" class="cls-1" d="M9.29,2.55c.12-.07,0,0,.12-.08L9.65,2a1,1,0,0,0-.17-.74A1,1,0,0,0,9.29,2.55Z"/><path id="Path_171" data-name="Path 171" class="cls-1" d="M6.89,6.2c0-.52-.43-.67-1-.64A.79.79,0,0,0,6.89,6.2Z"/><path id="Path_172" data-name="Path 172" class="cls-1" d="M7.64,4.67a1.17,1.17,0,0,0,.17-1,.41.41,0,0,0-.2-.26,2.41,2.41,0,0,0-.22.64.77.77,0,0,0,.21.56Z"/><path id="Path_173" data-name="Path 173" class="cls-1" d="M8.83,4.1a.93.93,0,0,0,.67-1C9,3.3,8.85,3.51,8.83,4.1Z"/><path id="Path_174" data-name="Path 174" class="cls-1" d="M2.61,7.69a.5.5,0,0,0,.92-.05C3.13,7.46,3,7.41,2.61,7.69Z"/><path id="Path_176" data-name="Path 176" class="cls-4" d="M8.37,15.06,8,16l-.38-.94.22-.14h.32Z"/></svg>