<svg id="logo_big.svg" xmlns="http://www.w3.org/2000/svg" width="202.027" height="188.564" viewBox="0 0 202.027 188.564">
  <path id="Path_151" data-name="Path 151" d="M2733.4,122.982c-13.138-3.486-24.832-14.686-30.009-21.684a59.757,59.757,0,0,1-4.163-64.48,59.83,59.83,0,0,1,52.838-30.985c47.193.143,77.878,53.632,47.739,95.829-4.839,6.764-16.637,17.457-29.151,21.138v5.893c28.631-8.676,51.408-37.1,46.1-72.649-4.9-32.845-36.135-61.7-74.964-55.141-12.371,2.094-25.223,7.727-33.743,15.636-15.3,14.179-24.9,34.757-21.372,59.03A66.288,66.288,0,0,0,2733.4,129Z" transform="translate(-2651.004 0.035)" fill="#008dd2" fill-rule="evenodd"/>
  <path id="Path_152" data-name="Path 152" d="M3390.081,863c-1.262,4.852,2.614,6.166-1.041,22.972-1.665,7.6-2.628,14.686-4.046,22.309l-14.478-16.533a29,29,0,0,1-4.371-11.33c-.988-5.593.637-10.823-5.073-9.873-3.174,7.818,1.9,21.1,5.814,26.159,5.737,7.362,10.172,11.161,14.088,18.992,7.219,14.465,3.824,43.889,3.85,61.5l-5.164-.13.234-29.645c-.013-10.8-3.564-16.741-8.169-23.792-5.581-8.533-18.12-34.172-32.91-30.256-1.847,5.216,1.626,3.837,10.107,9.379,3.681,2.406,7.545,7.141,10.082,11.1a40.158,40.158,0,0,1,4.826,9.951c-10.809-2-19.967-.3-26.953-10.328-2.2-3.148-1.769-5.659-6.725-4.358a7.67,7.67,0,0,0,.937,6.153c1.99,3.356,5.4,7.545,8.65,9.249,2.537,1.327,3.16.95,6.022,2.745.1.065.3.208.443.312-1.379,2.2-5.4,5.737-4.4,8.937.417,1.353.182.572.729,1.21,5.19,2.367,6-4.462,9.326-6.868s9.717-2.524,13.931-.624c8.494,3.824,8.234,16.156,8.234,27.122,0,8.234-.247,16.39-.247,24.663l8.481,16.806,3.239-2.472h4.149l3.252,2.472,8.481-16.806-.013-.247h.013c0-1.249-.052-2.68-.117-4.254h0c-.663-14.985-3.655-42.328,7.519-47.3,4.007-1.782,10.731-1.886,13.944.624,3.3,2.6,4.019,9.249,9.34,6.894l.858-2.589a8.429,8.429,0,0,0-1.053-2.784l-2.549-3.538c-1-1.288-.013.234-.937-1.249,5.346-3.772,6.478-.091,14.556-11.525,1.652-2.329,2.315-3.9,1.444-6.907-4.67-1.5-4.436.793-6.361,3.993-5.983,10-18.328,9.04-27.329,10.705,3.368-9.86,9.847-18.666,19.031-23.661,3.915-2.133,7.935-1.977,6.01-6.8-5.88-1.639-13.75,4.019-16.7,6.725-5.58,5.138-14.881,21.229-19.148,28.487-3.6,6.166-5.671,10.992-5.19,19.5l1.04,28.865-4.813.494-.781-51.186c-.013-7,1.783-10.9,4.982-15.675l9.756-10.745c4.032-4.462,13.944-21.5,8.169-29.827-9.613.1,1.444,8.741-12.188,25.144l-6.907,7.636a44.028,44.028,0,0,1-3.473,4.072c.819-12.956,9.365-31.505,4.045-43.694Z" transform="translate(-3286.563 -851.774)" fill="#87ab15" fill-rule="evenodd"/>
  <path id="Path_153" data-name="Path 153" d="M5112,6270.871c4.462.3,10.433.676,12.475-5.736C5116.968,6263.637,5113.9,6264.692,5112,6270.871Z" transform="translate(-5045.503 -6183.041)" fill="#98c22a" fill-rule="evenodd"/>
  <path id="Path_154" data-name="Path 154" d="M6967.208,1065.161c-.012-6.764-1.808-9.691-7.687-11.161C6958.962,1060.5,6961.108,1064.406,6967.208,1065.161Z" transform="translate(-6868.907 -1040.289)" fill="#98c22a" fill-rule="evenodd"/>
  <path id="Path_155" data-name="Path 155" d="M9432.436,6269.206c-1.937-6.14-5.437-7.3-12.436-5.736C9421.742,6269.3,9427.115,6269.623,9432.436,6269.206Z" transform="translate(-9297.466 -6181.375)" fill="#98c22a" fill-rule="evenodd"/>
  <path id="Path_156" data-name="Path 156" d="M6549.19,1936.034c3.344-3.057,2.316-11.161-1.99-13.034C6543.155,1928.19,6545.873,1933.029,6549.19,1936.034Z" transform="translate(-6460.034 -1897.985)" fill="#98c22a" fill-rule="evenodd"/>
  <path id="Path_157" data-name="Path 157" d="M3763.929,3760.849c.482-6.127-2.3-10.069-7.6-10.849C3755.917,3756.258,3758.167,3760.029,3763.929,3760.849Z" transform="translate(-3707.423 -3701.22)" fill="#98c22a" fill-rule="evenodd"/>
  <path id="Path_158" data-name="Path 158" d="M11143.3,3762.81c5.425-.507,8.17-4.488,7.492-10.81C11145.569,3753.067,11142.784,3756.645,11143.3,3762.81Z" transform="translate(-10998.293 -3703.194)" fill="#98c22a" fill-rule="evenodd"/>
  <path id="Path_159" data-name="Path 159" d="M4725.978,4383.221c.182-2.771.442-5.724-.819-8.144-.846-1.613-2.744-3.59-5.255-3.369C4718.576,4378.161,4721.191,4381.933,4725.978,4383.221Z" transform="translate(-4658.167 -4314.825)" fill="#98c22a" fill-rule="evenodd"/>
  <path id="Path_160" data-name="Path 160" d="M10260.849,4382.164c4.8-1.312,7.312-5.15,6.088-11.563-2.444-.234-4.424,1.807-5.281,3.394C10260.341,4376.454,10260.665,4379.446,10260.849,4382.164Z" transform="translate(-10127.204 -4313.729)" fill="#98c22a" fill-rule="evenodd"/>
  <path id="Path_161" data-name="Path 161" d="M10133,2731.169a8.851,8.851,0,0,0,7.531,1.34,7.977,7.977,0,0,0,5.593-4.215C10140.025,2726.8,10135.615,2726.252,10133,2731.169Z" transform="translate(-10001.191 -2691.768)" fill="#98c22a" fill-rule="evenodd"/>
  <path id="Path_162" data-name="Path 162" d="M8457,4289.025c6.2,2.121,10.38-1.2,11.85-5.854C8461.605,4282.482,8459.238,4284.017,8457,4289.025Z" transform="translate(-8346.993 -4227.302)" fill="#98c22a" fill-rule="evenodd"/>
  <path id="Path_163" data-name="Path 163" d="M9966.041,1775.25c5.437-1.418,8.131-3.525,7.648-10.25C9968.228,1765.832,9965.391,1769.123,9966.041,1775.25Z" transform="translate(-9836.313 -1742.041)" fill="#98c22a" fill-rule="evenodd"/>
  <path id="Path_164" data-name="Path 164" d="M4337,2730.4c2.2,4.422,8.937,5.789,13.282,2.9C4347.185,2728.384,4343.608,2729.008,4337,2730.4Z" transform="translate(-4280.585 -2693.9)" fill="#98c22a" fill-rule="evenodd"/>
  <path id="Path_165" data-name="Path 165" d="M4931.951,1776.3c.6-6.14-2.16-9.574-7.636-10.3C4923.782,1772.439,4926.734,1774.768,4931.951,1776.3Z" transform="translate(-4860.199 -1743.028)" fill="#98c22a" fill-rule="evenodd"/>
  <path id="Path_166" data-name="Path 166" d="M9284,3352.3c6.245-.507,9-2.263,9.965-8.064C9287.1,3343.87,9285.3,3346.211,9284,3352.3Z" transform="translate(-9163.234 -3300.696)" fill="#98c22a" fill-rule="evenodd"/>
  <path id="Path_167" data-name="Path 167" d="M5442.692,3352.659c-1.718-6.114-2.433-8.025-9.692-7.739C5434.067,3350.409,5436.369,3353.115,5442.692,3352.659Z" transform="translate(-5362.328 -3301.383)" fill="#98c22a" fill-rule="evenodd"/>
  <path id="Path_168" data-name="Path 168" d="M6622.9,5122.481c.079-5.411-3.356-8.194-8.9-7.544C6614.886,5120.609,6616.8,5122.664,6622.9,5122.481Z" transform="translate(-6527.966 -5048.31)" fill="#98c22a" fill-rule="evenodd"/>
  <path id="Path_169" data-name="Path 169" d="M8195,5118.181c6.23.091,7.766-1.745,8.82-7.623C8197.928,5109.946,8195.193,5112.651,8195,5118.181Z" transform="translate(-8088.4 -5043.996)" fill="#98c22a" fill-rule="evenodd"/>
  <path id="Path_170" data-name="Path 170" d="M8611.379,979.995c1.263-.637.247.2,1.224-.807l2.432-4.774c.443-2.615-.272-5.88-1.663-7.415C8610.118,970.369,8608.166,975.117,8611.379,979.995Z" transform="translate(-8497.742 -954.421)" fill="#98c22a" fill-rule="evenodd"/>
  <path id="Path_171" data-name="Path 171" d="M6125.99,4292.509c-.351-5.23-4.28-6.712-9.99-6.466C6117.418,4290.843,6119.994,4293.262,6125.99,4292.509Z" transform="translate(-6036.443 -4230.265)" fill="#98c22a" fill-rule="evenodd"/>
  <path id="Path_172" data-name="Path 172" d="M7278.628,2659.475a11.61,11.61,0,0,0,1.7-9.847,3.742,3.742,0,0,0-2.017-2.627c-.624,1.951-1.99,3.915-2.12,6.374a7.7,7.7,0,0,0,2.093,5.7C7278.355,2659.163,7278.512,2659.332,7278.628,2659.475Z" transform="translate(-7181.538 -2612.568)" fill="#98c22a" fill-rule="evenodd"/>
  <path id="Path_173" data-name="Path 173" d="M8388,2426.73c3.707-1.781,6.986-4.019,6.635-9.73C8389.523,2418.626,8388.105,2420.759,8388,2426.73Z" transform="translate(-8278.89 -2385.56)" fill="#98c22a" fill-rule="evenodd"/>
  <path id="Path_174" data-name="Path 174" d="M3589,5780.7c1.886,4.24,7.454,3.681,9.158-.494C3594.19,5778.416,3592.525,5777.946,3589,5780.7Z" transform="translate(-3542.314 -5703.58)" fill="#98c22a" fill-rule="evenodd"/>
  <path id="Path_175" data-name="Path 175" d="M11193,5786.564c2.916,4.176,6.049,3.746,9.471.234C11199.713,5784.991,11196.006,5783.39,11193,5786.564Z" transform="translate(-11047.403 -5709.505)" fill="#98c22a" fill-rule="evenodd"/>
  <path id="Path_176" data-name="Path 176" d="M7450.675,11514.381l-3.837,9.418-3.838-9.418,2.251-1.379h3.174Z" transform="translate(-7346.182 -11363.24)" fill="#fefefe" fill-rule="evenodd"/>
  <path id="Path_177" data-name="Path 177" d="M96.168,10721.114a2.994,2.994,0,0,0-.156-.442,15.471,15.471,0,0,0-4.384-5.373c-5.906-4.6-14.348-5.318-21.567-4.771a74.59,74.59,0,0,0-12.891,2.327c-4.618,1.185-9.184,2.6-13.762,3.98-3.07.925-6.374,1.912-9.795,2.812-2.224.585-4.5,1.118-6.79,1.56H94.164v2.666H0v-2.666H5.945c-.767-.222-1.535-.469-2.289-.768l-1.3-.494,1.028-2.576,1.3.508a25.967,25.967,0,0,0,5.229,1.379,40.294,40.294,0,0,0,10.2.168,104.359,104.359,0,0,0,18.8-4.124c-1.951.47-3.954.925-6,1.354-10.276,2.148-21.489,3.346-30.608-.792l-1.3-.586,1.184-2.6,1.3.584a26.822,26.822,0,0,0,5.268,1.719,40.761,40.761,0,0,0,10.38.714,93.562,93.562,0,0,0,16.026-2.444c-9.86,1.833-20.579,2.705-29.19-1.405l-1.249-.6,1.2-2.485,1.236.6a25.779,25.779,0,0,0,5.034,1.743,38.99,38.99,0,0,0,10,.9c7.753-.209,15.818-2.095,22.478-3.6,8.728-1.989,18.263-4.422,27.226-4.447,7.9-.039,16.715,1.5,22.725,7.023,1.977,1.821,3.642,5.061,4.865,7.531l1.34,2.706h.39l1.327-2.706c1.223-2.471,2.888-5.71,4.865-7.531,6.023-5.527,14.829-7.062,22.725-7.023,8.962.025,18.51,2.458,27.226,4.447,6.66,1.51,14.738,3.4,22.478,3.6a38.99,38.99,0,0,0,10-.9,25.2,25.2,0,0,0,5.034-1.743l1.249-.6,1.184,2.485-1.249.6c-8.611,4.11-19.317,3.238-29.177,1.405a93.217,93.217,0,0,0,16.013,2.444,40.863,40.863,0,0,0,10.393-.714,26.7,26.7,0,0,0,5.255-1.719l1.3-.584,1.184,2.6-1.3.586c-9.106,4.138-20.331,2.94-30.608.792-2.042-.429-4.045-.884-6-1.365a103.273,103.273,0,0,0,18.809,4.136,40.18,40.18,0,0,0,10.185-.168,25.967,25.967,0,0,0,5.229-1.379l1.314-.508,1.015,2.576-1.3.494c-.754.3-1.522.546-2.289.768h5.945v2.666H107.862v-2.666h67.355c-2.3-.441-4.579-.975-6.8-1.56-3.421-.9-6.725-1.9-9.795-2.812-4.566-1.379-9.132-2.8-13.762-3.98a74.669,74.669,0,0,0-12.878-2.327c-7.232-.547-15.675.169-21.567,4.771a15.362,15.362,0,0,0-4.4,5.373c-.052.144-.1.3-.156.442l-.026.092h.52v2.666H95.673v-2.666h.533Z" transform="translate(0 -10564.709)" fill="#02517a" fill-rule="evenodd"/>
  <path id="Path_178" data-name="Path 178" d="M7.61,12664.828c-1.3,0-1.964-.584-1.964-1.758a3.134,3.134,0,0,1,.208-1.143,5.282,5.282,0,0,1,.3-.689h9.6a8.723,8.723,0,0,0-.937-2.811,7.165,7.165,0,0,0-1.717-2.107,7.293,7.293,0,0,0-2.328-1.312,8.3,8.3,0,0,0-2.758-.457,8.563,8.563,0,0,0-2.159.262,9.319,9.319,0,0,0-1.808.609,7.952,7.952,0,0,0-1.4.793,6.018,6.018,0,0,0-.911.807,3.186,3.186,0,0,1-.468-.338,4.155,4.155,0,0,1-.52-.547,3.165,3.165,0,0,1-.4-.715,2.061,2.061,0,0,1-.169-.832,2.2,2.2,0,0,1,.351-1.016,3.6,3.6,0,0,1,1.223-1.2,7.929,7.929,0,0,1,2.406-.975,15.622,15.622,0,0,1,3.928-.4,13.184,13.184,0,0,1,4.657.82,10.986,10.986,0,0,1,3.837,2.367,11.135,11.135,0,0,1,2.589,3.811,12.919,12.919,0,0,1,.95,5.1,12.686,12.686,0,0,1-.976,5.125,10.8,10.8,0,0,1-2.641,3.721,11.451,11.451,0,0,1-3.876,2.275,13.88,13.88,0,0,1-4.67.781,17.363,17.363,0,0,1-3-.234,17.645,17.645,0,0,1-2.3-.547,8.513,8.513,0,0,1-1.626-.676A11.133,11.133,0,0,1,0,12672.9l1.756-3.055a8.729,8.729,0,0,0,2.211,1.012,11.482,11.482,0,0,0,3.642.521,10.237,10.237,0,0,0,2.914-.414,7.922,7.922,0,0,0,2.458-1.25,7.309,7.309,0,0,0,1.808-2.068,8,8,0,0,0,1-2.822Z" transform="translate(0 -12486.436)" fill="#87ab15"/>
  <path id="Path_179" data-name="Path 179" d="M1420.915,12715.333v9.4H1417v-20.981c0-1.171.651-1.756,1.964-1.756a5.209,5.209,0,0,1,1.236.131,4.185,4.185,0,0,1,.715.209v9.468h1.366a5.246,5.246,0,0,0,2.315-.455,5.372,5.372,0,0,0,1.678-1.3,23.254,23.254,0,0,0,2.341-3.161c.586-.977,1.119-1.821,1.587-2.551a7.77,7.77,0,0,1,1.418-1.7,2.777,2.777,0,0,1,1.9-.638,3.53,3.53,0,0,1,1.418.235,4.254,4.254,0,0,1,.911.533q-1.132,1.756-2.615,3.967c-.976,1.482-2.016,2.978-3.109,4.513-.325.457-.664.884-.989,1.261a7.666,7.666,0,0,1-1.067.992c.663.753,1.366,1.585,2.094,2.5s1.457,1.848,2.2,2.824,1.431,1.975,2.12,2.978,1.327,1.99,1.925,2.939h-4.553c-.507-.769-1.053-1.587-1.652-2.419s-1.223-1.679-1.873-2.511-1.288-1.638-1.938-2.434c-.65-.778-1.288-1.522-1.912-2.21-.312.052-.624.09-.949.118a8.749,8.749,0,0,1-1.014.051Z" transform="translate(-1398.568 -12536.772)" fill="#87ab15"/>
  <path id="Path_180" data-name="Path 180" d="M2571.176,12651a12.2,12.2,0,0,1,8.663,3.434,11.9,11.9,0,0,1,2.576,3.811,12.711,12.711,0,0,1,0,9.51,11.737,11.737,0,0,1-2.576,3.813,12.81,12.81,0,0,1-13.476,2.521,12.129,12.129,0,0,1-3.851-2.521,11.75,11.75,0,0,1-2.575-3.812,12.115,12.115,0,0,1,2.575-13.32,12.206,12.206,0,0,1,3.851-2.525A12.521,12.521,0,0,1,2571.176,12651Zm0,20.383a8.031,8.031,0,0,0,3.187-.639,7.445,7.445,0,0,0,2.523-1.742,8.026,8.026,0,0,0,1.679-2.639,9.4,9.4,0,0,0,0-6.738,7.977,7.977,0,0,0-1.679-2.654,7.334,7.334,0,0,0-2.523-1.73,8.472,8.472,0,0,0-6.387,0,7.652,7.652,0,0,0-4.214,4.385,9.788,9.788,0,0,0,0,6.738,7.753,7.753,0,0,0,4.214,4.381A8.047,8.047,0,0,0,2571.176,12671.383Z" transform="translate(-2525.713 -12486.436)" fill="#87ab15"/>
  <path id="Path_181" data-name="Path 181" d="M4369.106,12610.041c-.169.729-.378,1.563-.6,2.5s-.441,1.889-.664,2.877-.442,1.938-.663,2.875c-.221.922-.4,1.754-.559,2.484h10.405v-15.754a7.5,7.5,0,0,0-.936-.131,11.468,11.468,0,0,0-1.366-.062,8.6,8.6,0,0,0-2.041.221,3.737,3.737,0,0,0-1.536.82,5.256,5.256,0,0,0-1.145,1.6A14.526,14.526,0,0,0,4369.106,12610.041ZM4360,12624.4v-1.691a1.889,1.889,0,0,1,.533-1.416,2.1,2.1,0,0,1,1.5-.52h.468c.441-1.859.9-3.8,1.352-5.814.469-2.016.911-3.9,1.34-5.646a14.836,14.836,0,0,1,1.379-3.85,7.887,7.887,0,0,1,2.042-2.471,7.242,7.242,0,0,1,2.731-1.328,13.114,13.114,0,0,1,3.421-.4,20.4,20.4,0,0,1,2.758.158c.754.092,1.287.168,1.6.209a2.956,2.956,0,0,1,1.287.609,1.86,1.86,0,0,1,.534,1.521v17.016h.43a2.077,2.077,0,0,1,1.5.52,1.842,1.842,0,0,1,.533,1.416v1.691H4360Zm28.253-6.242q2.361-3.375,4.761-6.684c1.588-2.225,3.2-4.453,4.813-6.729.3-.4.585-.807.872-1.168a7.156,7.156,0,0,1,.922-.99,4.232,4.232,0,0,1,1.106-.676,3.415,3.415,0,0,1,1.354-.248,5.394,5.394,0,0,1,1.106.092,4.817,4.817,0,0,1,.727.234v22.41h-3.888v-16.857c-.911,1.25-1.887,2.615-2.94,4.125s-2.107,3.031-3.161,4.553-2.068,3.018-3.043,4.436-1.822,2.68-2.563,3.744h-3.954v-20.98a1.723,1.723,0,0,1,.533-1.377,2.26,2.26,0,0,1,1.5-.445,4.185,4.185,0,0,1,1.17.158c.352.117.585.2.69.234Zm20.786-3.16v9.4h-3.928v-20.98c0-1.172.65-1.756,1.964-1.756a5.153,5.153,0,0,1,1.249.131c.363.092.6.156.714.2v9.484h1.353a4.826,4.826,0,0,0,3.994-1.771,22.7,22.7,0,0,0,2.342-3.16c.584-.965,1.119-1.822,1.587-2.539a7.857,7.857,0,0,1,1.43-1.717,2.806,2.806,0,0,1,1.886-.623,3.557,3.557,0,0,1,1.417.232,4.46,4.46,0,0,1,.911.535c-.754,1.172-1.625,2.5-2.6,3.969s-2.029,2.977-3.11,4.5c-.337.467-.676.895-1,1.262a7.737,7.737,0,0,1-1.066,1c.663.756,1.366,1.588,2.094,2.5s1.47,1.848,2.2,2.822,1.444,1.967,2.12,2.98,1.34,1.988,1.939,2.938h-4.553c-.521-.779-1.067-1.586-1.665-2.432-.6-.83-1.223-1.678-1.86-2.512-.652-.816-1.3-1.637-1.952-2.416-.65-.8-1.288-1.523-1.913-2.213-.312.039-.624.078-.949.117-.312.023-.65.053-1.014.053Zm23.857-9.781h-6.647c-1.3,0-1.964-.6-1.964-1.8a2.926,2.926,0,0,1,.209-1.145,4.956,4.956,0,0,1,.3-.678h18.979c1.313,0,1.964.6,1.964,1.8a3.557,3.557,0,0,1-.183,1.143,3.417,3.417,0,0,1-.312.68h-8.39v19.184H4432.9Zm5.762,19.184c.56-1.482,1.171-3.082,1.86-4.8s1.407-3.486,2.16-5.293,1.536-3.643,2.342-5.5,1.612-3.678,2.42-5.449a4.18,4.18,0,0,1,1.366-1.846,3.374,3.374,0,0,1,1.925-.508,3.7,3.7,0,0,1,.846.09,4.6,4.6,0,0,1,.727.234c.208.092.392.17.533.246a1.4,1.4,0,0,1,.248.156c.352.625.82,1.535,1.379,2.758s1.184,2.59,1.834,4.111c.65,1.506,1.328,3.1,2,4.748s1.327,3.213,1.911,4.7c.6,1.469,1.107,2.77,1.549,3.914s.755,1.953.936,2.445h-4.4c-.1-.26-.248-.635-.43-1.129s-.365-1.016-.572-1.574c-.221-.574-.429-1.146-.65-1.717s-.43-1.08-.6-1.521H4444.9c-.481,1.207-.924,2.34-1.3,3.365s-.715,1.891-.949,2.576Zm16.052-9.441c-.3-.82-.664-1.719-1.054-2.707s-.793-1.949-1.184-2.9q-.584-1.4-1.092-2.576-.528-1.151-.82-1.756c-.286.625-.611,1.326-.962,2.109s-.729,1.623-1.106,2.5-.742,1.768-1.119,2.678-.743,1.795-1.066,2.654Zm8.637-11.539a1.656,1.656,0,0,1,.56-1.377,2.4,2.4,0,0,1,1.535-.445,4.038,4.038,0,0,1,1.158.158q.546.176.7.234v8.752h11.708v-7.322a1.684,1.684,0,0,1,.547-1.377,2.32,2.32,0,0,1,1.509-.445,4.176,4.176,0,0,1,1.2.158,4.99,4.99,0,0,1,.7.271v22.373h-3.954v-10.039H4467.3v10.039h-3.954Zm29.138,1.8h-6.647c-1.314,0-1.964-.6-1.964-1.8a3.2,3.2,0,0,1,.195-1.145,5.048,5.048,0,0,1,.3-.678h18.991q1.951,0,1.952,1.8a3.207,3.207,0,0,1-.184,1.143,2.334,2.334,0,0,1-.312.68h-8.377v19.184h-3.954Z" transform="translate(-4303.286 -12437.088)" fill="#008dd2"/>
</svg>
