<?xml version="1.0" encoding="utf-8"?>
<!-- Generator: Adobe Illustrator 25.0.0, SVG Export Plug-In . SVG Version: 6.00 Build 0)  -->
<svg width='99' version="1.1" id="Layer_1" xmlns="http://www.w3.org/2000/svg" xmlns:xlink="http://www.w3.org/1999/xlink" x="0px" y="0px"
	 viewBox="0 0 257.58 190.56" style="enable-background:new 0 0 257.58 190.56;" xml:space="preserve">
<style type="text/css">
	.st0{fill-rule:evenodd;clip-rule:evenodd;fill:#6D6E71;}
	.st1{fill-rule:evenodd;clip-rule:evenodd;fill:#ED1941;}
	.st2{fill:#6D6E71;}
</style>
<g>
	<g>
		<path class="st0" d="M128.61,55.54l0.49-0.14C104.62,63,85.26,76.01,84.86,85.57c-0.43,10.23,21.04,12.63,47.93,5.36
			c26.89-7.27,49.05-21.46,49.47-31.69c0.22-5.3-5.44-8.5-14.69-9.34c11.3,0.51,18.38,3.8,18.38,9.68
			c0,11.21-25.68,27.58-57.35,36.55c-31.67,8.97-57.35,7.16-57.35-4.05S96.94,64.52,128.61,55.54"/>
		<polygon class="st1" points="83.7,114.48 163.2,38.16 156,98.16 142.85,83.11 		"/>
		<path class="st2" d="M52.2,139.97c0,3.23-2.32,6.34-6.34,6.34h-4.07v6.34h-3.62v-19.02h6.79C49.9,133.63,52.2,136.29,52.2,139.97
			 M48.57,139.97c0-1.78-1.41-2.72-3.17-2.72h-3.62v5.43h3.62C47.16,142.68,48.57,141.55,48.57,139.97"/>
		<path class="st2" d="M74.5,143.13c0,5.49-4.47,9.96-9.96,9.96c-5.49,0-9.96-4.47-9.96-9.96c0-5.49,4.47-9.96,9.96-9.96
			C70.03,133.17,74.5,137.64,74.5,143.13 M70.88,143.13c0-3.51-2.83-6.34-6.34-6.34c-3.51,0-6.34,2.83-6.34,6.34
			c0,3.51,2.83,6.34,6.34,6.34C68.05,149.47,70.88,146.64,70.88,143.13"/>
		<path class="st2" d="M91.9,147.52l1.39,3.28c-1.61,1.47-4.05,2.29-6.17,2.29c-5.57,0-10.13-4.47-10.13-9.96
			c0-5.49,4.55-9.96,10.13-9.96c2.12,0,4.56,0.79,6.17,2.26l-1.39,3.28c-1.22-1.19-2.89-1.92-4.73-1.92c-3.62,0-6.57,2.83-6.57,6.34
			c0,3.51,2.94,6.34,6.57,6.34C89.05,149.47,90.72,148.74,91.9,147.52"/>
		<polygon class="st2" points="113.37,152.64 108.78,152.64 101.6,144.32 101.6,152.64 97.97,152.64 97.97,133.63 101.6,133.63 
			101.6,141.49 108.33,133.63 112.92,133.63 104.77,142.71 		"/>
		<path class="st2" d="M134.04,143.13c0,5.49-4.47,9.96-9.96,9.96c-5.49,0-9.96-4.47-9.96-9.96c0-5.49,4.47-9.96,9.96-9.96
			C129.57,133.17,134.04,137.64,134.04,143.13 M130.42,143.13c0-3.51-2.83-6.34-6.34-6.34c-3.51,0-6.34,2.83-6.34,6.34
			c0,3.51,2.83,6.34,6.34,6.34C127.59,149.47,130.42,146.64,130.42,143.13"/>
		<path class="st2" d="M151.45,147.52l1.39,3.28c-1.61,1.47-4.05,2.29-6.17,2.29c-5.58,0-10.13-4.47-10.13-9.96
			c0-5.49,4.56-9.96,10.13-9.96c2.12,0,4.55,0.79,6.17,2.26l-1.39,3.28c-1.22-1.19-2.89-1.92-4.72-1.92c-3.62,0-6.57,2.83-6.57,6.34
			c0,3.51,2.94,6.34,6.57,6.34C148.59,149.47,150.26,148.74,151.45,147.52"/>
		<polygon class="st2" points="178.41,152.64 174.56,152.64 172.97,140.19 167.99,152.64 166.18,152.64 161.2,140.19 159.62,152.64 
			155.77,152.64 158.48,133.63 162.11,133.63 167.09,145.85 172.07,133.63 175.69,133.63 		"/>
		<path class="st2" d="M200.27,143.13c0,5.49-4.47,9.96-9.96,9.96c-5.49,0-9.96-4.47-9.96-9.96c0-5.49,4.47-9.96,9.96-9.96
			C195.8,133.17,200.27,137.64,200.27,143.13 M196.64,143.13c0-3.51-2.83-6.34-6.34-6.34c-3.51,0-6.34,2.83-6.34,6.34
			c0,3.51,2.83,6.34,6.34,6.34C193.82,149.47,196.64,146.64,196.64,143.13"/>
		<path class="st2" d="M217.67,147.52l1.39,3.28c-1.61,1.47-4.05,2.29-6.17,2.29c-5.57,0-10.13-4.47-10.13-9.96
			c0-5.49,4.56-9.96,10.13-9.96c2.12,0,4.55,0.79,6.17,2.26l-1.39,3.28c-1.22-1.19-2.89-1.92-4.73-1.92c-3.62,0-6.57,2.83-6.57,6.34
			c0,3.51,2.94,6.34,6.57,6.34C214.81,149.47,216.48,148.74,217.67,147.52"/>
	</g>
</g>
</svg>
