<svg width="145" height="31" fill="none" xmlns="http://www.w3.org/2000/svg"><path d="M0 31V0h23.813v31H0zm22.767-1.08V1.07H1.046v28.85h21.72z" fill="#005488"/><path d="M1.046 29.267V27.92s12.494-7.605 12.756-7.766c.261-.16 1.96-1.508.207-3.22-1.743-1.711-2.865-2.674-2.865-2.674s-1.809-1.305.141-2.61a89.717 89.717 0 0 1 3.704-2.332s-.272.62-.207 1.166c.065.524.48.963.48.963l3.354 3.091s3.17 2.172-.283 4.45c-.163.129-17.287 10.28-17.287 10.28z" fill="#6F94BB"/><path d="M22.909 1.979l.065 1.305s-12.593 7.648-12.854 7.82c-.261.16-1.96 1.508-.207 3.22 1.743 1.71 2.865 2.674 2.865 2.674s1.82 1.294-.142 2.61c-1.96 1.305-3.703 2.332-3.703 2.332s.272-.62.207-1.166c-.066-.514-.49-.963-.49-.963l-3.356-3.08s-3.17-2.172.283-4.462C5.763 12.152 22.91 1.98 22.91 1.98zM30.675 6.365V6.408l-.022.042-.043.011h-.752l-.044-.01-.01-.033v-.021l.01-.032.37-1.252.022-.032.022-.01.022.01.022.043.403 1.24zm-.196-2l-.11-.193-.086.107-.011.043-.893 2.93c-.066.204-.11.343-.13.396l-.077.15-.207.096-.142.086.033.053.065.022.175-.021.228-.022.284.021.185.022.087-.021.022-.054-.055-.064-.218-.043-.141-.053-.033-.118.01-.107.034-.128.196-.717.032-.054.055-.032h.925l.044.022.033.053.24.749.032.139.01.128-.032.097-.174.042h-.022l-.152.033-.044.074.033.054.098.021.218-.021.261-.021.24.01.25.032h.087l.098-.021L31.96 8l-.109-.074-.152-.054-.131-.139a2.578 2.578 0 0 1-.153-.385l-.904-2.824-.032-.16zM33.127 4.75v1.315l.01.043.011.021.022-.021.01-.021.023-.032 1.056-1.306.055-.096.021-.075-.163-.128-.152-.096.021-.054.055-.021.174.021.294.022.316-.022.196-.021.054.021.022.054c0 .021-.076.053-.229.107-.163.064-.315.192-.479.374l-.719.856-.021.032-.022.053v.011l.01.021 1.079 1.712.174.225.153.107.12.032.097.075-.032.064-.109.021-.207-.01-.316-.011-.272.01-.163.022-.099-.032-.043-.054.044-.053.098-.022.141-.021.044-.064-.055-.171-.141-.257-.785-1.22v-.01l-.032-.043-.022.01-.022.022-.163.203-.033.065-.01.085v.995c0 .15.01.246.032.289l.174.085.044.011h.065l.12.032.022.075-.033.064-.12.01-.196-.02-.326-.011-.327.01-.207.022-.087-.032-.033-.064.022-.065.109-.032h.065l.044-.01.174-.086.033-.278V4.749l-.022-.203-.11-.075-.152-.021-.141-.096.022-.054.076-.021.196.021.327.022.36-.022.184-.021.066.021.021.054-.141.096-.12.01-.13.065-.023.224zM38.605 7.477c0 .15.011.246.033.278l.13.086.131.021.142.107v.642l-.011.118-.055.043-.108-.16-.131-.268-.272-.214a.848.848 0 0 0-.382-.075h-1.328l-.185-.01-.23-.012h-.348l-.185.022-.098-.032-.032-.075.13-.086.11-.01.163-.086c.021-.032.032-.128.032-.278V4.749l-.022-.203-.108-.075-.142-.021-.142-.086.022-.053.065-.032.197.021.326.022.36-.022.185-.021.065.021.022.054-.142.085-.12.011-.13.064-.033.214v2.739c0 .15.011.246.033.278l.022.042.043.043.044.032.163.022h1.067l.131-.022.13-.107c.023-.032.033-.128.033-.278V4.75l-.021-.213-.098-.065-.153-.021-.141-.086.021-.053.066-.032.196.021.327.022.359-.022.207-.021.065.021.022.054-.142.096-.12.01-.13.065-.033.214v2.738zM40.512 7.285l1.655-2.536-.022-.213-.109-.075-.141-.022-.142-.085.022-.054.076-.021.196.021.327.022.36-.022.185-.021.065.021.022.054-.131.085-.12.011-.13.064-.033.214v2.76c0 .15.01.246.032.278l.131.086.13.021.143.096-.033.064-.098.022-.185-.022-.327-.01-.327.01-.196.022-.087-.032-.044-.075.131-.086.11-.021.162-.086c.022-.021.033-.117.033-.267V4.953l-1.655 2.535c0 .15.01.246.032.278l.131.086.13.021.142.096-.032.064-.098.022-.185-.022-.327-.01-.327.01-.185.022-.098-.032-.033-.075.13-.086.11-.021.163-.086c.022-.021.033-.117.033-.267V4.749l-.022-.203-.109-.075-.141-.021-.142-.086.022-.053.065-.032.196.021.338.022.348-.022.185-.021.066.021.022.054-.142.085-.12.011-.13.064-.033.214v2.557h.01zM46.187 4.835c.218.332.327.781.327 1.327 0 .545-.11.984-.327 1.326-.218.332-.501.503-.839.503-.348 0-.631-.16-.838-.492-.218-.332-.327-.781-.327-1.327 0-.545.109-.984.327-1.326.218-.343.49-.503.838-.503.338-.01.621.16.839.492zm-2.004-.085c-.316.385-.48.855-.48 1.412 0 .556.164 1.037.49 1.422.317.385.709.578 1.155.578.447 0 .839-.193 1.155-.578.316-.396.479-.856.479-1.422 0-.557-.163-1.027-.48-1.412-.315-.386-.696-.578-1.154-.578-.457 0-.838.192-1.165.578zM48.53 4.75v1.058l.02.086.066.021h1.492l.066-.02.01-.087V4.75l-.021-.213-.11-.065-.14-.021-.142-.086.021-.064.077-.021.196.021.327.022.359-.022.185-.021.065.021.022.054-.13.096-.131.01-.12.065-.033.214v2.749c0 .15.011.246.033.278l.13.086.131.021.142.096-.033.064-.098.022-.185-.022-.327-.02-.316.02-.195.022-.099-.032-.043-.075.142-.086.108-.021.164-.086c.022-.032.033-.128.033-.278V6.194l-.011-.086-.077-.021h-1.492l-.065.021-.022.086v1.294c0 .15.011.246.033.278l.13.086.131.021.142.096-.033.064-.098.022-.185-.022-.327-.02-.327.02-.185.022-.098-.032-.032-.075.13-.086.11-.021.163-.086c.021-.032.032-.128.032-.278V4.75l-.022-.203-.108-.075-.142-.021-.142-.096.022-.054.066-.021.196.021.326.022.349-.022.196-.021.065.021.022.064-.142.086-.12.01-.12.065-.032.224zM52.407 4.3h1.176l.174-.021.23.032.032.171v.514l-.011.117-.055.043-.109-.16-.13-.257-.272-.214-.382-.075c-.217 0-.359.032-.435.086-.077.053-.11.17-.11.32v.995l.023.064.098.011h.305l.294-.032.174-.086.065-.106.044-.14.01-.02.066-.087.054.022.011.085-.01.182-.011.353c0 .204 0 .375.01.524v.043l-.021.075-.044.032-.076-.128V6.61l-.109-.31-.174-.15-.294-.054h-.338l-.065.022-.011.085v1.284l.12.31c.087.064.217.096.413.096.186 0 .338-.032.469-.074l.305-.247.13-.267.11-.16.032.01.022.032v.118l-.055.567-.043.171-.13.043-.164-.01a11.311 11.311 0 0 0-1.819-.011l-.098.01-.109-.053-.033-.075.131-.086.109-.01.163-.086.033-.278V4.749l-.022-.213-.109-.075-.076-.011h-.076l-.11-.032-.02-.064.032-.054.065-.021h.055l.283.021h.283zM55.675 4.503l.283-.053c.196 0 .36.086.49.257.131.17.196.385.196.642a.93.93 0 0 1-.185.588.576.576 0 0 1-.468.235l-.294-.075-.098-.289V4.75l.076-.246zm-.065 1.744l.032-.021.218.085.36.086c.228 0 .413-.096.588-.3.163-.203.24-.438.24-.727 0-.332-.088-.6-.262-.792-.174-.192-.425-.288-.74-.288-.011 0-.131 0-.37.01-.23 0-.382.01-.437.01h-.087l-.098-.01-.109-.021-.076.032-.032.053.12.086.12.021.097.075.022.203v2.739c0 .171-.022.278-.065.32l-.25.065-.055.021-.022.065.032.074.088.022.163-.01.316-.012.316.011.174.01.087-.02.033-.065-.022-.064-.109-.032-.043-.01-.033-.011-.044-.011-.12-.086c-.021-.021-.032-.107-.032-.267V6.247zM58.53 4.75v1.058l.021.086.066.021h1.503l.065-.02.01-.087V4.75l-.021-.213-.109-.065-.152-.021-.142-.086.022-.064.076-.021.196.021.327.022.36-.022.184-.021.066.021.021.054-.13.096-.12.01-.13.065-.034.214v2.749c0 .15.011.246.033.278l.13.086.132.021.141.096-.032.064-.099.022-.185-.022-.326-.02-.316.02-.196.022-.098-.032-.044-.075.142-.086.098-.021.163-.086c.022-.032.033-.128.033-.278V6.194l-.011-.086-.065-.021h-1.503l-.066.021-.021.086v1.294c0 .15.01.246.032.278l.13.086.143.021.141.096-.033.064-.098.022-.185-.022-.327-.02-.326.02-.185.022-.098-.032-.033-.075.13-.086.11-.021.163-.086c.022-.032.033-.128.033-.278V4.75l-.022-.203-.11-.075-.152-.021-.141-.096.022-.054.076-.021.196.021.327.022.359-.022.185-.021.066.021.021.064-.141.086-.12.01-.12.065-.033.224zM63.213 6.365V6.408l-.022.042-.043.022h-.752l-.043-.011v-.064l.01-.032.37-1.252.023-.032.021-.01.022.01.022.043.392 1.24zm-.185-2l-.12-.193-.087.107-.01.043-.894 2.93c-.065.204-.109.343-.13.396l-.088.15-.207.096-.141.086.022.053.065.022.174-.021.229-.022.283.021.185.022.087-.021.022-.054-.022-.064-.218-.043-.141-.053-.033-.118.011-.107.033-.128.196-.717.032-.054.055-.032h.926l.054.022.033.053.24.749.032.139.01.128-.032.097-.174.042h-.022l-.152.033-.044.074.022.054.098.021.218-.021.261-.021.24.01.25.032h.087l.088-.021.032-.054-.109-.074-.141-.033-.131-.139a2.563 2.563 0 0 1-.153-.385l-.892-2.856-.044-.15zM66.47 6.033c-.174 0-.316-.021-.435-.064l-.25-.128-.164-.214-.076-.375c0-.16.021-.289.054-.374l.185-.289.185-.128.262-.032c.174 0 .294.021.359.053l.087.257v1.198l-.01.075-.066.021h-.13zm-1.797 1.958l.011.042.055.022.065-.01.087-.012.25.011.131.01.13-.031.099-.16.534-1.316.13-.204.153-.107.196-.032h.076l.065.022.022.085v1.177l-.022.257-.098.085-.152.043-.12.096.033.064.087.022.163-.022.316-.01.316.01.163.022.087-.032.033-.064-.033-.065-.12-.021-.174-.064-.043-.129-.022-.192V4.749l.022-.203.098-.064.12-.021.12-.086-.022-.075-.088-.021-.185.01-.316.011-.228-.01-.272-.011c-.186 0-.338.01-.458.032l-.305.107-.305.31a1.039 1.039 0 0 0-.109.47c0 .15.022.279.066.386l.141.224.25.193.35.107c-.132.053-.251.225-.382.524l-.403.952-.152.225-.153.064-.098.032-.109.086zM71.59 5.37l.076-.268.283-.064c.175 0 .327.097.447.3.12.203.185.47.185.802 0 .203-.033.385-.087.546a.854.854 0 0 1-.24.353l-.305.128-.283-.107-.076-.235V5.37zm.12 2.663l.196.022.098-.032.032-.075-.141-.086-.11-.021-.162-.086-.033-.203v-.235l.076-.075.163.021.207.022a.92.92 0 0 0 .447-.129 1.15 1.15 0 0 0 .392-.395c.109-.182.163-.386.163-.632 0-.181-.043-.374-.13-.556a1.267 1.267 0 0 0-.349-.46.83.83 0 0 0-.512-.182l-.218.022-.152.021-.076-.075v-.235l.022-.118.108-.075.142-.021.142-.086-.022-.053-.076-.032-.197.021-.337.022-.338-.022-.196-.021-.065.021-.022.054.142.085.152.022.11.075.02.117v.203l-.075.075a4.643 4.643 0 0 0-.37-.032.86.86 0 0 0-.523.182 1.133 1.133 0 0 0-.349.46c-.087.182-.13.374-.13.556a1.161 1.161 0 0 0 .555 1.027.928.928 0 0 0 .457.129l.207-.022.163-.021.077.075v.246l-.033.203-.174.086-.11.02-.14.087.032.074.098.032.196-.02.327-.012.316.032zm-.61-.973l-.272.096-.306-.128a.971.971 0 0 1-.24-.353 1.439 1.439 0 0 1-.086-.546c0-.331.065-.61.185-.802.12-.203.272-.3.447-.3l.283.065.076.267v1.455l-.087.246zM74.499 7.285l1.655-2.536-.022-.213-.108-.075-.142-.022-.142-.085.022-.054.066-.021.196.021.326.022.36-.022.196-.021.065.021.022.054-.13.085-.12.011-.12.064-.033.214v2.76c0 .15.01.246.033.278l.13.086.131.021.142.096-.033.064-.098.022-.185-.022-.349-.01-.316.01-.196.022-.087-.032-.043-.075.141-.086.11-.021.162-.086a.99.99 0 0 0 .022-.267V4.953L74.5 7.488c0 .15.01.246.033.278l.13.086.13.021.142.096-.032.064-.098.022-.185-.022-.327-.01-.327.01-.185.022-.098-.032-.033-.075.131-.086.109-.021.153-.086c.032-.021.043-.117.043-.267V4.749l-.022-.203-.109-.075-.141-.021-.142-.086.022-.053.054-.032.197.021.326.022.349-.022.207-.021.065.021.022.054-.142.085-.12.011-.12.064-.032.214v2.557zM78.486 4.75v1.058l.021.086.066.021h1.503l.065-.02.01-.087V4.75l-.02-.213-.099-.065-.141-.021-.142-.086.022-.064.043-.021.196.021.327.022.36-.022.195-.021.066.021.022.054-.131.096-.13.01-.12.065-.033.214v2.749c0 .15.01.246.032.278l.131.086.13.021.142.096-.032.064-.098.022-.185-.022-.327-.02-.327.02-.185.022-.098-.032-.044-.075.131-.086.109-.021.163-.086c.022-.032.033-.128.033-.278V6.194l-.01-.086-.066-.021h-1.503l-.066.021-.021.086v1.294c0 .15.01.246.022.278l.13.086.13.021.142.096-.032.064-.098.022-.185-.022-.327-.02-.327.02-.185.022-.076-.032-.033-.075.13-.086.11-.021.152-.086c.022-.032.044-.128.044-.278V4.75l-.022-.203-.109-.075-.152-.021-.142-.096.022-.054.065-.021.196.021.327.022.348-.022.207-.021.066.021.021.064-.141.086-.12.01-.12.065-.032.224zM83.17 6.365V6.408l-.022.042-.044.022h-.751l-.044-.011-.01-.043v-.021l.01-.032.37-1.252.022-.032.022-.01.022.01.022.043.403 1.24zm-.186-2l-.12-.193-.087.107-.01.043-.893 2.93c-.066.204-.099.343-.131.396l-.076.15-.207.096-.142.086.033.053.065.022.185-.021.229-.022.283.021.185.022.087-.021.022-.054-.065-.064-.218-.043-.141-.053-.033-.118.01-.107.033-.128.196-.717.033-.054.055-.032h.914l.055.022.032.053.24.749.033.139.01.128-.032.097-.174.042h-.022l-.142.033-.054.074.022.054.109.021.217-.021.262-.021.24-.011.239.032h.087l.098-.021.022-.054-.109-.075-.142-.032-.12-.139a2.574 2.574 0 0 1-.152-.385l-.893-2.824-.033-.16zM85.62 4.75v1.058l.023.086.065.021h1.503l.065-.02.011-.087V4.75l-.022-.213-.109-.065-.141-.021-.142-.086.022-.064.065-.021.196.021.327.022.36-.022.196-.021.065.021.022.054-.131.096-.12.01-.12.065-.032.214v2.749c0 .15.01.246.032.278l.131.086.13.021.142.096-.032.064-.11.022-.184-.022-.327-.02-.327.02-.185.022-.098-.032-.043-.075.13-.086.098-.021.164-.086c.021-.032.032-.128.032-.278V6.194l-.01-.086-.066-.021h-1.503l-.065.021-.011.086v1.294c0 .15.01.246.032.278l.131.086.13.021.142.096-.032.064-.098.022-.185-.022-.327-.02-.327.02-.185.022-.087-.032-.033-.075.142-.086.098-.021.163-.086c.022-.032.033-.128.033-.278V4.75l-.033-.203-.109-.075-.141-.021-.142-.096.022-.054.076-.021.196.021.327.022.348-.022.196-.021.066.021.022.064-.142.086-.12.01-.12.065-.043.224zM88.823 6.172c0-.556.164-1.037.49-1.422.327-.386.72-.578 1.198-.578.175 0 .349.021.512.064.163.054.273.107.316.16l.055.214c.01.107.021.257.021.428l-.022.043-.043.022-.087-.129-.087-.192a.895.895 0 0 0-.294-.332.77.77 0 0 0-.414-.107c-.338 0-.621.16-.839.503-.218.331-.327.78-.327 1.326 0 .524.11.952.349 1.305.229.343.5.514.828.514a.71.71 0 0 0 .468-.16c.13-.108.229-.279.316-.514l.043-.15.077-.128.043.032.011.075c0 .246 0 .417-.01.502l-.044.182c-.066.097-.196.171-.37.236-.175.064-.371.107-.567.107-.468 0-.85-.193-1.165-.567-.305-.385-.458-.867-.458-1.434zM94.738 4.835c.218.332.327.781.327 1.327 0 .545-.109.984-.327 1.326-.218.332-.5.503-.838.503-.349 0-.632-.16-.85-.492-.218-.332-.327-.781-.327-1.327 0-.545.11-.984.327-1.326.218-.343.49-.503.839-.503.348-.01.631.16.85.492zm-2.004-.085c-.326.385-.479.855-.479 1.412 0 .556.163 1.037.48 1.422.326.385.707.578 1.165.578.457 0 .838-.193 1.154-.578.327-.396.48-.856.48-1.422 0-.557-.153-1.027-.48-1.412-.316-.386-.697-.578-1.154-.578-.458 0-.839.192-1.166.578zM97.157 4.482c.054-.043.152-.064.315-.064.273 0 .48.075.621.203.142.14.218.332.218.588 0 .246-.087.428-.261.557-.175.128-.414.192-.74.192l-.197-.032-.033-.139v-1.07l.077-.235zm1.415 1.177a.71.71 0 0 0 .185-.46l-.098-.407-.272-.289c-.218-.15-.577-.224-1.056-.224-.37 0-.643.01-.828.053-.196.032-.283.075-.283.14l.022.064.054.032.087-.022.11-.01.13.053.043.182V7.606l-.065.203-.174.064-.12.021-.033.065.033.064.087.032.174-.022.284-.02c.087 0 .25.01.479.042.228.032.425.043.566.043.316 0 .566-.097.773-.3.196-.203.294-.46.294-.78 0-.247-.087-.46-.25-.664l-.283-.225-.381-.15c.207-.064.38-.17.522-.32zm-.316.684c.153.16.24.385.24.674 0 .278-.076.503-.229.674-.152.16-.37.246-.642.246-.196 0-.338-.032-.425-.107-.087-.075-.13-.192-.13-.363V6.204l.021-.085.066-.022h.424c.305 0 .523.086.675.246zM101.143 6.365V6.408l-.022.042-.043.022h-.752l-.043-.011-.011-.043v-.01l.011-.033.37-1.251.011-.032.022-.01.021.01.022.043.414 1.23zm-.196-2l-.109-.193-.098.107-.011.043-.904 2.93c-.065.204-.098.343-.13.396l-.077.15-.206.096-.142.086.033.053.065.022.185-.021.229-.011.283.021.185.022.087-.022.022-.053-.044-.075-.217-.043-.142-.053-.033-.118.011-.107.022-.128.196-.717.033-.054.054-.032h.915l.044.022.032.053.24.749.033.139.021.128-.032.097-.175.042h-.021l-.153.033L101.1 8l.021.054.098.021.218-.021.262-.021.261-.011.24.032h.087l.087-.021.032-.054-.108-.075-.142-.032-.12-.139a2.513 2.513 0 0 1-.152-.385l-.904-2.824-.033-.16zM104.401 6.033c-.175 0-.316-.021-.436-.064l-.251-.128-.152-.214-.076-.364c0-.16.022-.289.054-.374l.174-.29.197-.128.261-.032c.174 0 .294.022.348.054l.088.256v1.199l-.022.085-.066.022h-.119v-.022zm-1.797 1.958l.011.042.054.022.065-.01.087-.012.251.011.131.01.13-.031.098-.16.534-1.316.131-.204.152-.107.196-.032h.066l.065.022.022.085v1.177l-.022.257-.098.085-.153.043-.119.096.032.064.087.022.175-.022.315-.01.316.01.164.022.076-.032.033-.064-.033-.065-.12-.021-.174-.064-.044-.129-.011-.192V4.749l.022-.203.098-.064.12-.021.12-.086-.022-.064-.087-.032-.185.01-.316.011-.229-.01-.272-.011c-.196 0-.338.01-.457.032l-.305.107-.305.31a.907.907 0 0 0-.109.47c0 .15.022.279.065.386l.142.224.25.193.349.107c-.131.053-.251.225-.382.524l-.402.952-.164.225-.152.064-.098.032-.098.086zM108.497 4.75v1.315l.011.043.01.021.022-.021.011-.021.022-.032 1.045-1.306.055-.096.022-.075-.153-.128-.163-.096.022-.054.065-.021.174.021.305.022.316-.022.174-.021.055.021.021.054c0 .021-.076.053-.228.107-.164.064-.316.192-.479.374l-.719.856-.022.032-.011.043v.01l.011.022 1.078 1.711.174.225.153.107.12.032.098.075-.033.064-.109.021-.207-.02-.316.01-.272.01-.163.022-.109-.032-.044-.054.044-.053.098-.022.141-.021.044-.064-.054-.171-.142-.246-.784-1.22v-.01l-.033-.043-.022.01-.021.022-.164.203-.032.064-.011.075v.995c0 .15.011.246.043.289l.164.085.043.011h.055l.119.032.022.075-.033.064-.098.022-.196-.022-.326-.01-.327.01-.207.022-.098-.043-.033-.064.022-.065.109-.032h.065l.044-.01.174-.086.044-.278V4.749l-.022-.203-.109-.075-.152-.021-.142-.096.022-.054.065-.021.196.021.338.022.348-.022.196-.021.066.021.021.054-.141.096-.12.01-.12.065-.032.224zM113.583 4.835c.218.332.327.781.327 1.327 0 .545-.109.984-.327 1.326-.218.332-.501.503-.838.503-.349 0-.632-.16-.85-.492-.218-.332-.326-.781-.326-1.327 0-.545.108-.984.326-1.326.218-.343.49-.503.839-.503.348-.01.631.16.849.492zm-2.004-.085c-.315.385-.479.855-.479 1.412 0 .556.164 1.037.49 1.422.316.385.697.578 1.155.578.446 0 .838-.193 1.154-.578.316-.396.479-.856.479-1.422 0-.557-.163-1.027-.479-1.412-.316-.386-.708-.578-1.165-.578-.447 0-.828.192-1.155.578zM115.991 4.503l.283-.053c.196 0 .359.086.501.257.131.17.196.385.196.642a.928.928 0 0 1-.185.588.577.577 0 0 1-.468.235l-.305-.075-.087-.289V4.75l.065-.246zm-.065 1.744l.032-.021.218.085.359.086c.229 0 .425-.096.589-.3.163-.203.25-.438.25-.727 0-.332-.087-.6-.261-.792-.175-.192-.425-.288-.741-.288-.011 0-.131 0-.37.01-.229 0-.381.01-.436.01h-.087l-.098-.01-.131-.021-.076.032-.022.053.12.086.12.021.098.075.022.203v2.739c0 .171-.022.278-.066.32l-.239.065-.066.021-.021.065.032.074.087.022.164-.01.316-.012.315.011.164.01.087-.02.033-.065-.022-.064-.098-.032-.044-.01-.032-.011-.055-.011-.12-.086c-.021-.042-.021-.128-.021-.278v-1.23zM120.228 4.45h-1.11l-.12.01-.131.065-.033.224v2.739c0 .15.011.246.033.278l.131.086.13.021.142.096-.033.064-.098.022-.185-.022-.326-.01-.316.01-.185.022-.098-.032-.033-.075.131-.086.108-.021.164-.086c.022-.032.032-.128.032-.278V4.75l-.021-.203-.109-.075-.142-.021-.141-.096.021-.064.055-.011.163.021.174.022h2.473l.196-.022.152-.021.066.021.021.064-.13.097-.12.01-.131.065-.043.213v2.739c0 .15.01.246.032.278l.131.086.131.021.141.096-.032.064-.098.022-.186-.022-.326-.01-.316.01-.196.022-.098-.032-.044-.075.131-.086.098-.021.163-.086c.022-.032.033-.128.033-.278V4.75l-.022-.213-.098-.065-.131-.021zM124.52 4.835c.218.332.327.781.327 1.327 0 .545-.109.984-.316 1.326-.218.332-.501.503-.838.503-.349 0-.632-.16-.85-.492-.218-.332-.327-.781-.327-1.327 0-.545.109-.984.327-1.326.218-.343.49-.503.828-.503.348-.01.632.16.849.492zm-2.004-.085c-.315.385-.479.855-.479 1.412 0 .556.164 1.037.49 1.422.316.385.708.578 1.155.578.457 0 .838-.193 1.154-.578.316-.396.479-.856.479-1.422 0-.557-.163-1.027-.479-1.412-.316-.386-.708-.578-1.154-.578-.458 0-.839.192-1.166.578zM126.928 4.503l.283-.053c.196 0 .359.086.501.257.131.17.196.385.196.642 0 .235-.055.438-.185.588a.577.577 0 0 1-.469.235l-.294-.075-.098-.289V4.75l.066-.246zm-.066 1.744l.033-.021.218.085.359.086c.229 0 .414-.096.588-.3.164-.203.24-.438.24-.727 0-.332-.087-.6-.261-.792-.175-.192-.425-.288-.741-.288 0 0-.131 0-.359.01-.24 0-.382.01-.436.01h-.087l-.098-.01-.131-.021-.087.032-.022.053.12.086.12.021.087.075.022.203v2.739c0 .171-.022.278-.066.32l-.25.065-.055.021-.021.065.032.074.087.022.164-.01.316-.012.315.011.175.01.087-.02.033-.065-.022-.064-.098-.032-.044-.01-.032-.011-.044-.011-.12-.086c-.022-.042-.033-.128-.033-.278V6.333l.011-.086zM130.479 6.365l.011.01v.033l-.022.042-.043.022h-.752l-.043-.022-.022-.032.011-.021.011-.022.37-1.251.011-.032.021-.01.022.01.022.043.403 1.23zm-.185-2l-.12-.193-.087.107-.011.043-.893 2.93c-.065.204-.109.343-.131.396l-.076.15-.207.096-.141.086.021.053.077.022.174-.021.229-.022.283.021.185.022.087-.021.033-.054-.044-.086-.218-.042-.13-.054-.044-.117.011-.107.033-.129.196-.717.032-.053.055-.032h.925l.044.021.033.054.239.749.044.139.011.128-.033.096-.174.043h-.022l-.152.032-.044.075.022.053.098.022.218-.021.261-.022.24.01.25.033h.087l.087-.021.033-.054-.109-.075-.141-.032-.131-.139a2.591 2.591 0 0 1-.153-.385l-.904-2.824-.043-.16zM135.021 7.477c0 .15.011.246.033.278l.131.086.13.021.142.107v.642l-.011.118-.054.043-.109-.16-.12-.247-.272-.214a.819.819 0 0 0-.382-.075h-1.328l-.185-.01-.229-.011h-.349l-.185.021-.098-.032-.032-.075.13-.085.109-.011.153-.086c.021-.032.032-.128.032-.278V4.75l-.021-.203-.109-.075-.142-.021-.142-.086.022-.053.066-.032.196.021.326.022.349-.022.196-.021.065.021.022.054-.142.085-.119.011-.131.064-.022.214v2.739c0 .15.011.246.022.278l.022.042.032.043.044.032.174.022h1.057l.13-.022.131-.107c.022-.032.033-.128.033-.278V4.75l-.022-.213-.109-.065-.142-.021-.141-.086.022-.053.076-.032.196.021.327.022.359-.022.196-.021.065.021.022.054-.131.085-.119.011-.131.064-.033.214v2.75zM136.928 7.285l1.666-2.536-.022-.213-.098-.075-.152-.022-.142-.085.022-.054.055-.021.196.021.326.022.36-.022.196-.021.065.021.022.054-.142.085-.12.011-.119.064-.033.214v2.76c0 .15.011.246.033.278l.13.086.131.021.142.096-.033.064-.098.022-.185-.022-.327-.01-.316.01-.196.022-.087-.032-.044-.075.131-.086.109-.021.163-.086c.022-.042.033-.128.033-.278V4.953l-1.666 2.535c0 .15.011.246.033.278l.13.086.131.021.141.096-.032.064-.098.022-.185-.022-.327-.01-.327.01-.185.022-.087-.032-.033-.075.142-.086.098-.021.152-.086a.645.645 0 0 0 .044-.278V4.75l-.022-.203-.109-.075-.141-.021-.142-.086.022-.053.054-.032.185.021.338.022.359-.022.186-.021.065.021.022.054-.142.085-.12.011-.119.064-.033.214v2.557zM141.71 6.033c-.164 0-.316-.021-.436-.064l-.25-.128-.153-.214-.076-.375c0-.16.022-.289.054-.374l.175-.289.185-.128.261-.032c.174 0 .294.021.36.053l.087.257v1.198l-.011.085-.065.022h-.131v-.01zm-1.797 1.958l.011.042.054.022.066-.01.087-.012.25.011.142.01.13-.031.098-.16.534-1.316.131-.204.152-.107.196-.032h.077l.065.022.011.085v1.177l-.022.257-.098.085-.153.043-.13.096.032.064.088.022.174-.022.316-.01.315.01.164.022.087-.032.033-.064-.044-.065-.109-.021-.185-.064-.044-.129-.01-.192V4.749l.021-.203.098-.064.12-.021.12-.086-.022-.064-.087-.032-.185.01-.316.011-.229-.01-.272-.011c-.196 0-.337.01-.457.032l-.305.107-.305.31a.917.917 0 0 0-.109.47c0 .15.022.279.054.386l.142.224.25.193.349.107c-.131.053-.261.225-.381.524l-.403.952-.164.225-.152.064-.098.032-.087.086zM43.322 15.928c.044.588.044.877-.294.877-.294 0-.294-.214-.719-.877-.98-1.647-2.168-2.321-4.128-2.321-3.89 0-6.525 3.091-6.525 7.306 0 4.867 3.039 7.659 6.481 7.659.74 0 1.569-.14 2.32-.62 1.297-.835 1.809-2.13 2.277-2.964.065-.128.163-.267.36-.267.511 0 .294.877.25 1.54l-.044.792c-.021.353 0 .749-.958 1.209-.632.278-2.299.952-4.51.952-4.488 0-8.399-3.242-8.399-8.012 0-4.343 3.53-8.237 8.846-8.237 1.34 0 3.17.3 4.444.802.338.129.425.171.512 1.177l.087.984zM58.682 15.832v-.086c0-1.861-.959-1.605-1.765-1.669-.294-.021-.425-.064-.425-.353 0-.15.044-.331.469-.331.915 0 1.808.128 2.723.128.915 0 1.809-.128 2.724-.128.152 0 .468.021.468.331s-.272.353-.447.353c-.98.064-1.743-.246-1.743 2V26.08c0 2.257.763 1.926 1.765 2 .294.022.425.065.425.354 0 .15-.044.331-.468.331-.916 0-1.809-.128-2.724-.128-.915 0-1.808.128-2.723.128-.153 0-.468-.021-.468-.331s.272-.353.446-.353c.98-.065 1.743.235 1.743-2v-9.008l-8.431 8.815v.417c0 2.043.958 1.711 1.764 1.776.294.021.425.064.425.353 0 .15-.043.331-.468.331-.915 0-1.809-.128-2.724-.128-.914 0-1.808.128-2.723.128-.152 0-.468-.021-.468-.331s.272-.353.446-.353c.98-.065 1.743.235 1.743-2V16.077c0-2.258-.762-1.926-1.764-2-.294-.022-.425-.065-.425-.354 0-.15.043-.331.468-.331.915 0 1.809.128 2.724.128.914 0 1.808-.128 2.723-.128.152 0 .468.021.468.331s-.261.353-.446.353c-.98.064-1.743-.246-1.743 2v8.59l8.431-8.836zM78.126 15.928c.044.588.044.877-.294.877-.294 0-.294-.214-.719-.877-.98-1.647-2.167-2.321-4.128-2.321-3.89 0-6.525 3.091-6.525 7.306 0 4.867 3.039 7.659 6.481 7.659.73 0 1.558-.14 2.32-.62 1.297-.835 1.809-2.13 2.277-2.964.066-.128.153-.267.36-.267.512 0 .294.877.25 1.54l-.043.792c-.022.353 0 .749-.959 1.209-.62.278-2.298.952-4.51.952-4.488 0-8.398-3.242-8.398-8.012 0-4.343 3.529-8.237 8.845-8.237 1.34 0 3.17.3 4.444.802.338.129.425.171.512 1.177l.087.984zM92.44 13.403c.534 0 .643-.085.763-.438.108-.31.152-.524.424-.524.425 0 .36.524.36.77l-.087 2.043c-.044 1.091-.044 1.562-.403 1.562-.36 0-.382-.417-.49-.834-.24-.728-.687-1.819-1.83-1.819h-2.659c-.25 0-.577-.043-.577.438v11.49c0 1.753.403 1.946 1.514 1.978.425.021.828-.043.828.375 0 .15-.043.331-.468.331-.959 0-1.896-.128-2.854-.128-.959 0-1.94.128-2.898.128-.425 0-.468-.182-.468-.331 0-.29.13-.332.425-.354 1.122-.085 1.917.268 1.917-2V14.58c0-.46-.294-.438-1.318-.438-1.656 0-2.702-.022-3.998 1.925-.272.417-.338.77-.665.77-.152 0-.316-.128-.316-.31 0-.128.022-.289.153-.727l.893-2.942c.131-.439.36-.46.469-.46.109 0 .316 0 .36.289v.257c.043.438.576.438.784.438H92.44v.021zM97.527 16.078c0-2.258-.763-1.926-1.765-2-.294-.022-.425-.065-.425-.354 0-.15.044-.32.469-.32.784 0 1.536.063 2.32.063h4.75c.762 0 2.396-.02 2.973-.042 1.024-.065 1.101-.065 1.101.17 0 .172-.022.354-.022.685l-.022 1.027c-.022 1.049.022 1.091 0 1.295 0 .085-.044.331-.24.331-.272 0-.381-.267-.468-.503-.697-1.818-1.209-2.278-4.608-2.278-1.982 0-2.048.128-2.048.877v4.226c0 .353-.022.684.73.684h2.19c1.655 0 1.917-.92 2.058-1.422.088-.354.196-.525.425-.525.185 0 .316.129.316.418 0 1.23-.403.524-.065 4.321.043.396.087.77-.273.77-.381 0-.403-.396-.555-.984-.294-1.23-.643-1.818-2.767-1.818h-1.558c-.534 0-.49.353-.49.61v4.364c0 1.08.044 2.321 2.124 2.321h1.602c2.461 0 3.082-1.134 3.616-2.546.109-.267.207-.535.447-.535.087 0 .261.022.261.332 0 .706-.239.791-.425 2.856-.087.834-.239.674-.599.674l-2.767-.021c-2.418-.022-3.932-.129-5-.129-.98 0-1.939.128-2.919.128-.153 0-.534 0-.534-.331 0-.31.262-.353.447-.353.98-.064 1.743.246 1.743-2v-9.991h-.022zM119.259 24.72c.066.172.109.258.153.258.043 0 .087-.086.163-.257l4.782-11.029c.066-.15.044-.289.621-.289.599 0 1.068.043 1.569.043.512 0 1.046-.043 1.59-.043.425 0 .469.182.469.332 0 .332-.153.332-.806.374-1.079.043-1.34.236-1.297 1.648l.382 10.74c.043 1.272.381 1.54 1.274 1.561.675.043.784.064.784.375 0 .15-.043.331-.468.331-.915 0-1.852-.128-2.767-.128-.915 0-1.808.128-2.723.128-.403 0-.49-.203-.49-.331 0-.31.25-.332.446-.353.959-.065 2.015.235 1.95-2l-.294-10.26c0-.181-.044-.288-.087-.288-.044 0-.131.064-.207.246l-4.782 11.071c-.382.878-.273.696-.469 1.145-.043.107-.109.246-.272.246-.163 0-.229-.128-.272-.246-.109-.257-.218-.546-.469-1.145l-4.531-11.007c-.066-.171-.196-.128-.196.064l-.512 9.767c-.131 2.61.686 2.353 1.895 2.396.229 0 .338.043.381.085l.087.268c0 .15-.043.331-.468.331-.784 0-1.59-.128-2.364-.128-.741 0-1.47.128-2.211.128-.185 0-.49-.02-.49-.331 0-.289.25-.353.446-.353.915-.043 1.612.235 1.765-2.086l.741-10.323c.043-.727.109-1.519-.915-1.583-.294-.021-.556 0-.85 0-.403 0-.425-.267-.425-.353 0-.128.044-.331.469-.331.631 0 .512.042 1.949.042.338 0 .687 0 1.024-.021.207 0 .382-.021.578-.021.239 0 .239 0 .403.395l4.444 10.933zM138.628 21.822c.196.503-.066.524-.273.524h-3.758l-.174-.107c0-.064 0-.15.065-.353l1.852-5.006c.044-.15.065-.257.174-.257.109 0 .109.107.175.257l1.939 4.942zm-.545-7.188a37.686 37.686 0 0 1-.425-1.188c-.065-.214-.109-.481-.425-.481-.272 0-.316.225-.381.417a37.88 37.88 0 0 1-.632 1.808l-4.314 11.339c-.599 1.55-1.045 1.487-1.655 1.508-.741.021-.763.171-.763.396 0 .064.022.289.381.331h.273c.686-.042 1.383-.128 2.08-.128.763 0 1.547.128 2.299.128.425 0 .468-.181.468-.331 0-.268-.109-.332-.577-.375-1.068-.042-1.656-.246-1.656-.877 0-.203.065-.481.131-.674l1.002-2.941c.109-.31.044-.46.73-.46h3.998c.218 0 .446-.065.664.524l1.111 2.93c.185.46.185.675.185.814 0 .61-.708.63-1.111.61h-.49c-.152 0-.468.042-.468.374 0 .353.316.406.741.406.936 0 1.873-.128 2.81-.128.806 0 1.612.128 2.407.128.316 0 .534-.021.534-.31 0-.374-.272-.353-.621-.396-.762-.064-1.187-.246-1.656-1.465l-4.64-11.96z" fill="#005488"/></svg>
