<svg xmlns="http://www.w3.org/2000/svg" width="246" height="102" viewBox="0 0 197 81.844">
  <g id="Group_6037" data-name="Group 6037" transform="translate(-603.984 -392.387)">
    <g id="Group_6036" data-name="Group 6036" transform="translate(659.795 427.225)">
      <path id="Path_6858" data-name="Path 6858" d="M1291.524,589.773l-3.439-5.558,3.113-5.093c.1-.139.077-.316-.182-.316h-1.846c-.42,0-.536.051-.689.34l-1.76,3.152-1.777-3.152c-.159-.289-.275-.34-.688-.34h-1.889c-.249,0-.3.177-.2.3l3.148,5.126-3.433,5.54c-.091.149-.036.326.165.326h1.978a.664.664,0,0,0,.707-.383l1.954-3.48,1.956,3.48a.653.653,0,0,0,.7.383h2.011C1291.54,590.1,1291.6,589.922,1291.524,589.773Z" transform="translate(-1150.367 -562.138)" fill="#1e2e50"/>
      <path id="Path_6859" data-name="Path 6859" d="M806.213,530.49h1.1a.325.325,0,0,0,.352-.242l.815-2.4h4.588l.825,2.4c.073.242.183.242.377.242h1.09c.2,0,.252-.173.187-.318l-3.67-10.476c-.155-.489-.3-.648-.88-.648h-.487c-.507.008-.641.128-.831.648L806,530.172C805.954,530.339,806,530.49,806.213,530.49Zm3.763-7.469.734-2.307h.082l.766,2.394,1.108,3.419h-3.8Z" transform="translate(-805.985 -518.891)" fill="#1e2e50"/>
      <path id="Path_6860" data-name="Path 6860" d="M845.147,530.528h.817c.242,0,.332-.059.332-.318v-8.539c0-.845.385-1.227,1.282-1.227h4.356c.253,0,.3-.081.3-.336v-.672c0-.222-.045-.336-.3-.336h-4.368a2.486,2.486,0,0,0-2.755,2.8v8.315C844.811,530.469,844.933,530.528,845.147,530.528Z" transform="translate(-834.084 -518.929)" fill="#1e2e50"/>
      <path id="Path_6861" data-name="Path 6861" d="M879.532,530.512h4.533c.259,0,.308-.126.308-.344v-.693c0-.242-.049-.34-.308-.34h-4.513c-.933,0-1.288-.5-1.288-1.22V525.08h5.189c.237,0,.283-.11.283-.328v-.619c0-.246-.047-.336-.283-.336h-5.189v-2.127c0-.839.389-1.247,1.288-1.247h4.431c.243,0,.292-.075.292-.315v-.687c0-.222-.049-.342-.292-.342h-4.452a2.55,2.55,0,0,0-2.751,2.8v5.843A2.474,2.474,0,0,0,879.532,530.512Z" transform="translate(-857.221 -518.913)" fill="#1e2e50"/>
      <path id="Path_6862" data-name="Path 6862" d="M911.249,530.585h.9c.23,0,.314-.061.314-.277v-5.1H918.2v5.1c0,.216.106.277.328.277h.874c.228,0,.306-.061.306-.277v-10.87c0-.222-.077-.26-.306-.26h-.874c-.222,0-.328.039-.328.26v4.477h-5.737v-4.477c0-.222-.084-.26-.314-.26h-.9c-.181,0-.306.039-.306.26v10.87C910.943,530.523,911.067,530.585,911.249,530.585Z" transform="translate(-881.944 -518.984)" fill="#1e2e50"/>
      <path id="Path_6863" data-name="Path 6863" d="M956.2,519.175h-7.981c-.2,0-.228.075-.228.255v.8c0,.19.027.255.228.255H951.4v9.822c0,.216.1.277.3.277h.941c.21,0,.287-.061.287-.277v-9.822H956.2c.2,0,.226-.065.226-.255v-.8C956.43,519.25,956.408,519.175,956.2,519.175Z" transform="translate(-908.759 -518.983)" fill="#1e2e50"/>
      <path id="Path_6864" data-name="Path 6864" d="M984.508,530.3a7.178,7.178,0,0,0,3.456-.735c.157-.108.224-.177.092-.43l-.318-.695c-.047-.094-.127-.222-.373-.126a6.258,6.258,0,0,1-2.592.587c-2.726,0-3.584-1.952-3.584-4.315s1.027-4.633,3.511-4.633a5.9,5.9,0,0,1,2.369.515c.177.063.224.006.3-.126l.373-.75c.114-.216.055-.312-.067-.363a6.258,6.258,0,0,0-3.048-.68c-2.967,0-4.967,2.365-4.967,6.037C979.655,528.529,981.466,530.3,984.508,530.3Z" transform="translate(-931.672 -518.531)" fill="#1e2e50"/>
      <path id="Path_6865" data-name="Path 6865" d="M1014.028,520.483h3.184v9.822c0,.216.09.277.3.277h.939c.2,0,.291-.061.291-.277v-9.822h3.274c.2,0,.224-.065.224-.255v-.8c0-.179-.025-.255-.224-.255h-7.991c-.187,0-.21.075-.21.255v.8C1013.818,520.418,1013.84,520.483,1014.028,520.483Z" transform="translate(-956.396 -518.983)" fill="#1e2e50"/>
      <path id="Path_6866" data-name="Path 6866" d="M1050.392,530.46h3.853a3.442,3.442,0,0,0,3.708-3.394,2.839,2.839,0,0,0-1.87-2.869v-.116a2.507,2.507,0,0,0,1.391-2.268c0-1.984-1.45-2.807-3.445-2.807l-3.637.026c-.633,0-.835.265-.835.827v9.788C1049.557,530.218,1049.814,530.46,1050.392,530.46Zm.662-10.085h3.131a1.534,1.534,0,0,1,1.72,1.534,1.669,1.669,0,0,1-1.848,1.724h-3Zm0,4.509h3.042a2.033,2.033,0,0,1,2.322,2.06,2.068,2.068,0,0,1-2.322,2.145h-3.042Z" transform="translate(-982.26 -518.861)" fill="#1e2e50"/>
      <path id="Path_6867" data-name="Path 6867" d="M1093.757,524.327c0-3.639-1.671-5.847-4.863-5.847-2.779,0-4.841,2.127-4.841,5.9s1.622,5.872,4.811,5.872C1092.08,530.25,1093.757,528.121,1093.757,524.327Zm-8.195,0c0-2.431,1.055-4.495,3.386-4.495,2.653,0,3.266,2.166,3.266,4.546,0,2.347-.785,4.535-3.333,4.535S1085.563,527.015,1085.563,524.327Z" transform="translate(-1007.225 -518.48)" fill="#1e2e50"/>
      <path id="Path_6868" data-name="Path 6868" d="M811.062,589.871a6.944,6.944,0,0,0,3.731-.909c.193-.114.234-.224.1-.533l-.552-1.145c-.094-.253-.2-.328-.495-.2a7.05,7.05,0,0,1-2.48.566c-2.1,0-2.787-1.443-2.787-3.525,0-2.1.947-3.692,2.718-3.692a6.1,6.1,0,0,1,2.192.417c.3.12.373.059.473-.245l.515-1.106c.147-.354.112-.432-.136-.56a6.393,6.393,0,0,0-3.16-.7c-3.089,0-5.183,2.357-5.183,5.882C805.995,587.7,807.558,589.871,811.062,589.871Z" transform="translate(-805.992 -561.73)" fill="#1e2e50"/>
      <path id="Path_6869" data-name="Path 6869" d="M846.236,590.117c.328,0,.385-.063.385-.332v-8.859h2.922c.224,0,.322-.1.322-.318v-1.446c0-.269-.063-.332-.322-.332h-8.25c-.242,0-.31.063-.31.332v1.446c0,.218.073.318.31.318h2.854v8.859c0,.251.116.332.365.332Z" transform="translate(-831.314 -562.156)" fill="#1e2e50"/>
      <path id="Path_6870" data-name="Path 6870" d="M886.834,582.312a3.452,3.452,0,0,0-3.771-3.523H879.1c-.768,0-.963.377-.963.98v9.985c0,.251.106.332.373.332H880.2c.324,0,.4-.045.4-.332v-3.761h2.137C886.369,585.994,886.834,583.41,886.834,582.312Zm-4.128,1.705h-2.115v-3.078h2.1a1.54,1.54,0,1,1,.016,3.078Z" transform="translate(-858.201 -562.126)" fill="#1e2e50"/>
      <path id="Path_6871" data-name="Path 6871" d="M916.963,589.721l-3.349-10.1c-.259-.8-.544-.886-1.257-.886h-.974c-.662.021-.948.137-1.167.886l-3.362,10.1c-.057.169,0,.328.234.328h1.881c.3,0,.385-.1.454-.31l.621-2.052h3.692l.63,2.1c.067.23.222.259.473.259h1.913C916.986,590.049,917.008,589.859,916.963,589.721Zm-6.347-4.03.621-2.037.609-2.315h.108l.587,2.315.619,2.037Z" transform="translate(-878.97 -562.087)" fill="#1e2e50"/>
      <path id="Path_6872" data-name="Path 6872" d="M945.619,590.117h1.724c.326,0,.391-.063.391-.332v-8.859h2.92c.226,0,.324-.1.324-.318v-1.446c0-.269-.065-.332-.324-.332H942.4c-.232,0-.305.063-.305.332v1.446c0,.218.089.318.305.318h2.859v8.859C945.254,590.036,945.362,590.117,945.619,590.117Z" transform="translate(-904.486 -562.156)" fill="#1e2e50"/>
      <path id="Path_6873" data-name="Path 6873" d="M986.969,590.1c.267,0,.334-.114.334-.383v-1.365c0-.322-.055-.379-.334-.379h-4.246c-.68,0-1.047-.228-1.047-.968v-1.846H986.3c.251,0,.3-.11.3-.371v-1.255c0-.306-.053-.377-.3-.377h-4.625v-1.249c0-.569.208-1,1.047-1h4.087c.243,0,.316-.09.316-.362v-1.367c0-.3-.049-.373-.316-.373h-4.619a2.738,2.738,0,0,0-2.983,2.971v5.354a2.668,2.668,0,0,0,3,2.968Z" transform="translate(-931.348 -562.138)" fill="#1e2e50"/>
      <path id="Path_6874" data-name="Path 6874" d="M1017.964,578.789a2.715,2.715,0,0,0-2.964,2.975v7.991c0,.251.122.332.373.332h1.711c.324,0,.373-.045.373-.332V581.9c0-.589.2-1,1.047-1h4.114c.255,0,.322-.09.322-.356v-1.373c0-.3-.063-.377-.322-.377Z" transform="translate(-957.251 -562.126)" fill="#1e2e50"/>
      <path id="Path_6875" data-name="Path 6875" d="M1049.677,590.1h.646c.656,0,.831-.118,1.206-.709l2.726-4.415,1.441-2.419h.073v7.235c0,.247.061.308.352.308h1.728c.247,0,.338-.08.338-.308v-9.869c0-.827-.263-1.115-1.052-1.115h-.658c-.648,0-.823.1-1.188.711l-2.8,4.586-1.373,2.258h-.082V579.11c0-.249-.057-.3-.342-.3h-1.734c-.236,0-.33.069-.33.3v9.879C1048.63,589.661,1048.84,590.1,1049.677,590.1Z" transform="translate(-981.589 -562.141)" fill="#1e2e50"/>
      <path id="Path_6876" data-name="Path 6876" d="M1094.532,586.279a11.779,11.779,0,0,0,1.905-.149v3.66c0,.228.075.309.346.309h1.754c.289,0,.357-.063.357-.309V579.107c0-.25-.068-.3-.357-.3h-1.754c-.271,0-.346.07-.346.3v4.864a8.568,8.568,0,0,1-1.606.147c-1.624,0-2.408-.6-2.408-2.117v-2.893c0-.25-.061-.3-.34-.3h-1.773c-.239,0-.338.07-.338.3v3.132C1089.972,584.727,1091.174,586.279,1094.532,586.279Z" transform="translate(-1011.509 -562.138)" fill="#1e2e50"/>
      <path id="Path_6877" data-name="Path 6877" d="M1138.753,590.1c.253,0,.326-.114.326-.383v-1.365c0-.322-.059-.379-.326-.379H1134.5c-.68,0-1.051-.228-1.051-.968v-1.846h4.629c.265,0,.3-.11.3-.371v-1.255c0-.306-.039-.377-.3-.377h-4.629v-1.249c0-.569.21-1,1.051-1h4.1c.234,0,.3-.09.3-.362v-1.367c0-.3-.053-.373-.3-.373h-4.633a2.726,2.726,0,0,0-2.965,2.971v5.354a2.657,2.657,0,0,0,2.987,2.968Z" transform="translate(-1041.201 -562.138)" fill="#1e2e50"/>
      <path id="Path_6878" data-name="Path 6878" d="M1172.764,587.284c-.087-.253-.183-.328-.493-.2a7.043,7.043,0,0,1-2.477.566c-2.1,0-2.789-1.443-2.789-3.525,0-2.1.945-3.692,2.73-3.692a6.1,6.1,0,0,1,2.186.417c.312.12.37.059.487-.245l.5-1.106c.155-.354.116-.432-.141-.56a6.33,6.33,0,0,0-3.147-.7c-3.093,0-5.192,2.357-5.192,5.882,0,3.574,1.567,5.747,5.073,5.747a6.954,6.954,0,0,0,3.729-.909c.2-.114.247-.224.1-.533Z" transform="translate(-1065.391 -561.73)" fill="#1e2e50"/>
      <path id="Path_6879" data-name="Path 6879" d="M1211.283,585.984a2.262,2.262,0,0,0-1.638-1.956v-.077a3,3,0,0,0,1.367-2.019l.754-2.879c.026-.112.043-.322-.236-.322h-1.805a.283.283,0,0,0-.314.226l-.725,2.726a1.7,1.7,0,0,1-1.854,1.443h-1.294v-4.1c.033-.224-.045-.265-.248-.265H1203.4c-.205,0-.293.041-.293.265v10.766c0,.23.088.257.293.257h1.871c.208,0,.287-.026.287-.257l-.019-4.794h1.322c1.139,0,1.693.249,2.019,1.357l.984,3.465a.282.282,0,0,0,.318.228h1.866c.285,0,.259-.206.23-.326Z" transform="translate(-1093.384 -562.084)" fill="#1e2e50"/>
      <path id="Path_6880" data-name="Path 6880" d="M1250.966,578.81h-.67c-.636,0-.823.1-1.192.711l-2.791,4.586-1.365,2.258h-.094V579.11c0-.249-.055-.3-.346-.3h-1.715c-.251,0-.338.069-.338.3v9.879c0,.672.194,1.113,1.043,1.113h.648c.654,0,.839-.118,1.2-.709l2.726-4.415,1.44-2.419h.083v7.235c0,.247.065.308.347.308h1.728c.242,0,.336-.08.336-.308v-9.869C1252.005,579.1,1251.749,578.81,1250.966,578.81Z" transform="translate(-1121.861 -562.141)" fill="#1e2e50"/>
      <path id="Path_6881" data-name="Path 6881" d="M817.992,638.053h-.668c-.64,0-.817.108-1.18.711l-2.8,4.586-1.373,2.255h-.088V638.34c0-.234-.047-.287-.342-.287h-1.726c-.238,0-.336.087-.336.287v9.9c0,.674.214,1.1,1.057,1.1h.64a1.108,1.108,0,0,0,1.2-.691l2.72-4.434,1.435-2.414h.082v7.247c0,.24.067.292.356.292h1.732c.251,0,.336-.074.336-.292v-9.871C819.042,638.328,818.781,638.053,817.992,638.053Z" transform="translate(-808.514 -605.016)" fill="#1e2e50"/>
      <path id="Path_6882" data-name="Path 6882" d="M861.718,638.071h-1.691c-.273,0-.367.082-.367.34v4.012h-4.378v-4.012c0-.273-.067-.34-.385-.34h-1.711c-.257,0-.367.082-.367.34v10.6c0,.259.11.348.367.348H854.9c.318,0,.385-.069.385-.348V644.5h4.378v4.519c0,.259.094.348.367.348h1.691c.322,0,.389-.069.389-.348v-10.6C862.107,638.138,862.04,638.071,861.718,638.071Z" transform="translate(-839.879 -605.029)" fill="#1e2e50"/>
      <path id="Path_6883" data-name="Path 6883" d="M903.7,638.053h-.664c-.64,0-.811.108-1.194.711l-2.791,4.586-1.359,2.255h-.1V638.34c0-.234-.051-.287-.328-.287h-1.738c-.24,0-.336.087-.336.287v9.9c0,.674.216,1.1,1.053,1.1h.64a1.094,1.094,0,0,0,1.2-.691l2.732-4.434,1.434-2.414h.083v7.247c0,.24.065.292.35.292H904.4c.237,0,.346-.074.346-.292v-9.871C904.747,638.328,904.485,638.053,903.7,638.053Z" transform="translate(-870.54 -605.016)" fill="#1e2e50"/>
      <path id="Path_6884" data-name="Path 6884" d="M948.589,647.234l-.8-.09v-8.839c0-.234-.041-.3-.353-.3h-1.779c-.226,0-.316.086-.316.3v8.883h-4.354v-8.883c0-.234-.061-.3-.363-.3h-1.76c-.251,0-.347.086-.347.3v9.922c0,.714.285,1.088,1.035,1.088h7.4l.1,2.321c.006.247.089.35.324.35h1.351c.21,0,.287-.12.3-.32l.167-3.73C949.215,647.551,949.174,647.276,948.589,647.234Z" transform="translate(-901.899 -604.981)" fill="#1e2e50"/>
      <path id="Path_6885" data-name="Path 6885" d="M990.443,638.053h-.656c-.629,0-.825.108-1.184.711l-2.8,4.586-1.363,2.255h-.106V638.34c0-.234-.037-.287-.328-.287h-1.726c-.247,0-.34.087-.34.287v9.9c0,.674.21,1.1,1.035,1.1h.656c.666,0,.831-.106,1.2-.691l2.734-4.434,1.424-2.414h.094v7.247c0,.24.069.292.354.292h1.73c.232,0,.332-.074.332-.292v-9.871C991.5,638.328,991.24,638.053,990.443,638.053Z" transform="translate(-933.326 -605.016)" fill="#1e2e50"/>
      <path id="Path_6886" data-name="Path 6886" d="M1027.262,638.866c-.257-.793-.536-.882-1.257-.882h-.962a1.009,1.009,0,0,0-1.186.882l-3.358,10.1c-.039.175,0,.34.232.34h1.891c.3,0,.375-.1.44-.31l.638-2.052h3.682l.636,2.1c.069.208.222.257.475.257h1.919a.228.228,0,0,0,.2-.34Zm-2.977,6.073.605-2.054.607-2.3h.108l.589,2.3.619,2.054Z" transform="translate(-961.222 -604.966)" fill="#1e2e50"/>
      <path id="Path_6887" data-name="Path 6887" d="M1064.293,638.074h-8.262c-.228,0-.3.065-.3.338v1.428c0,.236.088.324.3.324h2.856v8.849c0,.265.118.355.385.355h1.715c.328,0,.389-.069.389-.355v-8.849h2.916c.216,0,.322-.087.322-.324v-1.428C1064.615,638.139,1064.542,638.074,1064.293,638.074Z" transform="translate(-986.727 -605.031)" fill="#1e2e50"/>
      <path id="Path_6888" data-name="Path 6888" d="M1101.417,638.053h-.654c-.652,0-.835.108-1.2.711l-2.789,4.586-1.365,2.255h-.1V638.34c0-.234-.038-.287-.338-.287h-1.726c-.228,0-.332.087-.332.287v9.9c0,.674.21,1.1,1.049,1.1h.638c.67,0,.837-.106,1.216-.691l2.726-4.434,1.43-2.414h.079v7.247c0,.24.065.292.363.292h1.715c.243,0,.336-.074.336-.292v-9.871C1102.461,638.328,1102.2,638.053,1101.417,638.053Z" transform="translate(-1013.633 -605.016)" fill="#1e2e50"/>
      <path id="Path_6889" data-name="Path 6889" d="M1143.373,643.134v-.116a2.51,2.51,0,0,0,1.239-2.159c0-2.025-1.506-2.855-3.462-2.855H1137.2c-.776,0-.972.316-.972,1v9.319c0,.687.2.972.972.972h4.046c2.168,0,3.859-1.373,3.859-3.425A2.817,2.817,0,0,0,1143.373,643.134Zm-4.692-2.987h2.276a1.006,1.006,0,0,1,1.131,1.039,1.075,1.075,0,0,1-1.208,1.115h-2.2Zm2.337,6.99h-2.337v-2.873h2.337a1.441,1.441,0,1,1,0,2.873Z" transform="translate(-1044.985 -604.98)" fill="#1e2e50"/>
    </g>
    <path id="Path_6890" data-name="Path 6890" d="M713.5,413.285l20.183,11.626,10.077-5.825Z" transform="translate(-79.255 -15.124)" fill="#6ab0e1"/>
    <path id="Path_6891" data-name="Path 6891" d="M603.984,392.387,624.17,404l10.077-5.831Z" transform="translate(0 0)" fill="#e8483f"/>
    <path id="Path_6892" data-name="Path 6892" d="M677.092,476.664l20.172,11.613,10.081-5.833Z" transform="translate(-52.909 -60.992)" fill="#c4c6c9"/>
    <path id="Path_6893" data-name="Path 6893" d="M796.625,434.282,786.55,451.771l0-11.664Z" transform="translate(-132.124 -30.32)" fill="#014c94"/>
    <path id="Path_6894" data-name="Path 6894" d="M760.185,497.583l-10.069,17.5-.012-11.666Z" transform="translate(-105.748 -76.132)" fill="#778692"/>
    <path id="Path_6895" data-name="Path 6895" d="M687.125,413.285,677.06,430.8l-.012-11.668Z" transform="translate(-52.878 -15.124)" fill="#b42c2d"/>
  </g>
</svg>
