<svg id="Group_4" data-name="Group 4" xmlns="http://www.w3.org/2000/svg" width="104" height="125" viewBox="0 0 83.078 100">
  <path id="Path_3" data-name="Path 3" d="M221.887,194.148h2.578v1.013h.889v-1.778h-.305v-4.259h-.955v4.259h-1.256v-4.259h-.951Z" transform="translate(-166.295 -108.56)" fill="#2f3634"/>
  <path id="Path_4" data-name="Path 4" d="M214.748,189.889v-.765h-2.682v5.024h2.682v-.765h-1.731v-1.561H214.6v-.761h-1.581v-1.171Z" transform="translate(-178.896 -108.56)" fill="#2f3634"/>
  <path id="Path_5" data-name="Path 5" d="M229.379,192.777h-.007a10.428,10.428,0,0,0,.116-1.774v-1.879h-.89v5.025h1.03l1.39-3.648h.007a8.34,8.34,0,0,0-.119,1.751v1.9h.893v-5.025h-1.032Z" transform="translate(-157.685 -108.56)" fill="#2f3634"/>
  <path id="Path_6" data-name="Path 6" d="M204.428,194.149v-.619h.274c.824,0,1.644-.553,1.644-1.909A1.7,1.7,0,0,0,204.7,189.7h-.274v-.573h-.954v.573H203.2a1.706,1.706,0,0,0-1.642,1.925c0,1.356.822,1.909,1.642,1.909h.279v.619Zm0-3.708h.219c.454,0,.724.479.724,1.18,0,.744-.256,1.162-.724,1.162h-.219Zm-1.178,2.342c-.464,0-.724-.418-.724-1.162,0-.7.274-1.18.724-1.18h.224v2.342Z" transform="translate(-192.385 -108.56)" fill="#2f3634"/>
  <path id="Path_7" data-name="Path 7" d="M220.934,194.149h1.027l-1.107-5.025h-1.281l-1.274,5.025h1.023l.3-1.31H220.7ZM219.74,192.1l.461-2.338.377,2.338Z" transform="translate(-170.899 -108.56)" fill="#2f3634"/>
  <path id="Path_8" data-name="Path 8" d="M212.374,195.156v-1.772h-.306v-4.26h-2.852v1.566a5.605,5.605,0,0,1-.461,2.694h-.3v1.772h.916v-1.007h2.08v1.007Zm-1.26-1.772H209.7a4.961,4.961,0,0,0,.452-2.354v-1.142h.959Z" transform="translate(-183.526 -108.56)" fill="#2f3634"/>
  <path id="Path_9" data-name="Path 9" d="M217.034,189.124h-1.8v5.025h.952V192.1h.833a1.385,1.385,0,0,0,1.338-1.511A1.352,1.352,0,0,0,217.034,189.124Zm-.368,2.235h-.482v-1.489h.482a.745.745,0,0,1,0,1.489Z" transform="translate(-174.833 -108.56)" fill="#2f3634"/>
  <path id="Path_10" data-name="Path 10" d="M226.176,189.124h-.888v5.025h1.032l1.386-3.648h.009a8.32,8.32,0,0,0-.121,1.751v1.9h.893v-5.025h-1.032l-1.388,3.653h-.007a10.435,10.435,0,0,0,.116-1.774Z" transform="translate(-161.932 -108.56)" fill="#2f3634"/>
  <path id="Path_11" data-name="Path 11" d="M208.186,189.889v-.765H205.5v5.024h2.682v-.765h-1.731v-1.561h1.581v-.761h-1.581v-1.171Z" transform="translate(-187.316 -108.56)" fill="#2f3634"/>
  <path id="Path_12" data-name="Path 12" d="M230.659,190.31v-4.259h1.183v-.765h-3.316v.765H229.7v4.259Z" transform="translate(-157.777 -113.485)" fill="#2f3634"/>
  <path id="Path_13" data-name="Path 13" d="M209.948,190.473c.966,0,1.612-.409,1.612-1.69v-1.82c0-1.279-.646-1.715-1.612-1.715s-1.635.447-1.635,1.715v1.82C208.313,190.053,208.993,190.473,209.948,190.473Zm-.662-3.621c0-.537.205-.842.662-.842.409,0,.637.322.637.858V188.9c0,.534-.228.808-.637.808-.457,0-.662-.283-.662-.808Z" transform="translate(-183.713 -113.532)" fill="#2f3634"/>
  <path id="Path_14" data-name="Path 14" d="M224.661,186.051v-.765h-2.682v5.024h2.682v-.765H222.93v-1.561h1.577v-.761H222.93v-1.171Z" transform="translate(-166.178 -113.485)" fill="#2f3634"/>
  <path id="Path_15" data-name="Path 15" d="M218.229,186.514a1.141,1.141,0,0,0-1.24-1.228h-1.758v5.023h1.92c.772,0,1.148-.616,1.148-1.491a1.136,1.136,0,0,0-.747-1.205C217.971,187.528,218.229,186.994,218.229,186.514Zm-2.043-.509h.514c.429,0,.575.212.575.642s-.174.676-.591.676h-.5Zm.61,3.587h-.61v-1.55h.61c.356,0,.53.279.53.772C217.325,189.377,217.151,189.592,216.795,189.592Z" transform="translate(-174.836 -113.485)" fill="#2f3634"/>
  <path id="Path_16" data-name="Path 16" d="M204.627,186.968v-.247a1.35,1.35,0,0,0-1.5-1.473c-1.034,0-1.559.543-1.559,1.719V188.8c0,.89.3,1.674,1.548,1.674,1.192,0,1.516-.776,1.516-1.69v-.215h-.954v.269c0,.646-.185.87-.568.87-.406,0-.571-.217-.571-.87v-1.977c0-.635.173-.852.578-.852s.562.217.562.852v.107Z" transform="translate(-192.373 -113.532)" fill="#2f3634"/>
  <path id="Path_17" data-name="Path 17" d="M209.26,195.741A.236.236,0,0,0,209,196c0,.381.514.486.847.486s.849-.1.849-.486a.236.236,0,0,0-.256-.256.311.311,0,0,0-.2.066v.386a.592.592,0,0,1-.39.1.572.572,0,0,1-.386-.1v-.386A.323.323,0,0,0,209.26,195.741Z" transform="translate(-182.826 -100.07)" fill="#2f3634"/>
  <path id="Path_18" data-name="Path 18" d="M204.873,196.6a1.238,1.238,0,0,0-.4.936,1.266,1.266,0,0,0,.422.95,1.517,1.517,0,0,0,1.027.352,2.885,2.885,0,0,0,.836-.132v-.644H206.5l-.105.432-.055.055a.937.937,0,0,1-.354.055.958.958,0,0,1-1.014-1.066.919.919,0,0,1,.92-1.055,1.247,1.247,0,0,1,.464.087l.055.055.078.4h.267v-.642a3.035,3.035,0,0,0-.836-.135A1.55,1.55,0,0,0,204.873,196.6Z" transform="translate(-188.642 -99.424)" fill="#2f3634"/>
  <path id="Path_19" data-name="Path 19" d="M202.717,195.858H201.55v.212l.331.027.089.068v2.815l-.089.068-.29.027v.208h1.288v-.208l-.363-.027-.089-.068v-1.009c.062.007.267.023.39.023.687,0,1.317-.269,1.317-1.144C204.134,196.287,203.867,195.858,202.717,195.858Zm.055,1.9a2.143,2.143,0,0,1-.345-.027V196.1c.062,0,.171-.007.283-.007a1,1,0,0,1,.7.208.783.783,0,0,1,.208.589A.8.8,0,0,1,202.771,197.755Z" transform="translate(-192.39 -99.92)" fill="#2f3634"/>
  <path id="Path_20" data-name="Path 20" d="M204.314,196.237a1.263,1.263,0,0,0-1.356,1.317,1.288,1.288,0,0,0,.384.943,1.316,1.316,0,0,0,.957.363,1.324,1.324,0,0,0,.968-2.249A1.3,1.3,0,0,0,204.314,196.237Zm-.007,2.388a.776.776,0,0,1-.658-.342,1.353,1.353,0,0,1-.189-.74c0-.648.317-1.073.836-1.073.482,0,.849.418.849,1.084C205.145,198.4,204.627,198.625,204.307,198.625Z" transform="translate(-190.584 -99.433)" fill="#2f3634"/>
  <path id="Path_21" data-name="Path 21" d="M206.222,196.6a1.222,1.222,0,0,0-.4.936,1.262,1.262,0,0,0,.418.95,1.531,1.531,0,0,0,1.032.352,2.871,2.871,0,0,0,.831-.132v-.644h-.256l-.1.432-.057.055a.933.933,0,0,1-.352.055.958.958,0,0,1-1.016-1.066.918.918,0,0,1,.92-1.055,1.258,1.258,0,0,1,.464.087l.057.055.078.4h.263v-.642a3.011,3.011,0,0,0-.831-.135A1.54,1.54,0,0,0,206.222,196.6Z" transform="translate(-186.911 -99.424)" fill="#2f3634"/>
  <path id="Path_22" data-name="Path 22" d="M228.933,196.446l.263.019.054.042v.1l-1.372,1.472v-1.573l.05-.042.267-.019v-.182h-1.051v.182l.251.019.05.042v2.013l-.05.039-.251.019v.185h1.063v-.185l-.267-.019-.05-.039v-.158l1.361-1.453v1.611l-.054.039-.263.019v.185h1.051v-.185l-.251-.019-.05-.039v-2.013l.05-.042.251-.019v-.182h-1.051Z" transform="translate(-159.55 -99.398)" fill="#2f3634"/>
  <path id="Path_23" data-name="Path 23" d="M222.64,198.524v-2.016l.05-.043.251-.018v-.183h-2v.183h.333l.055.062a5.557,5.557,0,0,1-.8,2.053h-.242v.838h.265l.078-.575.05-.059H222.6l.05.059.078.575h.262v-.838h-.311Zm-.436.037h-1.352a6.251,6.251,0,0,0,.742-2.1h.61Z" transform="translate(-168.352 -99.399)" fill="#2f3634"/>
  <path id="Path_24" data-name="Path 24" d="M220.882,198.521l-.074.039H219.8v-.989h.61l.054.035.042.278h.24v-.839h-.24l-.042.282-.054.039h-.61v-.9h.869l.062.042.066.328h.274v-.572h-2.006v.182l.251.019.05.042v2.013l-.05.039-.251.019v.185h2.152V198.1h-.255Z" transform="translate(-169.921 -99.398)" fill="#2f3634"/>
  <path id="Path_25" data-name="Path 25" d="M219.306,196.342h-.112V196.1l.084-.069.329-.027v-.208h-1.288V196l.326.027.087.069v.244h-.112a1.64,1.64,0,0,0-.968.267,1.136,1.136,0,0,0-.441.95,1.091,1.091,0,0,0,.409.9,1.53,1.53,0,0,0,.989.3h.123v.3l-.087.068-.326.027v.208h1.288v-.208l-.329-.027-.084-.068v-.3h.123a1.524,1.524,0,0,0,.989-.3,1.089,1.089,0,0,0,.406-.9,1.135,1.135,0,0,0-.436-.95A1.655,1.655,0,0,0,219.306,196.342Zm-.573,2.187h-.1a.876.876,0,0,1-.959-.97.865.865,0,0,1,.959-.984h.1Zm.562,0h-.1v-1.954h.1a.983.983,0,0,1,.664.215,1.034,1.034,0,0,1,.3.769A.877.877,0,0,1,219.294,198.529Z" transform="translate(-172.294 -100.002)" fill="#2f3634"/>
  <path id="Path_26" data-name="Path 26" d="M216.27,196.446l.267.019.05.042v.1l-1.368,1.472v-1.573l.05-.042.267-.019v-.182h-1.051v.182l.247.019.05.042v2.013l-.05.039-.247.019v.185h1.059v-.185l-.263-.019-.054-.039v-.158l1.36-1.453v1.611l-.05.039-.267.019v.185h1.051v-.185l-.251-.019-.046-.039v-2.013l.046-.042.251-.019v-.182H216.27Z" transform="translate(-175.793 -99.398)" fill="#2f3634"/>
  <path id="Path_27" data-name="Path 27" d="M214.991,195.741a.235.235,0,0,0-.256.256c0,.381.514.486.847.486s.847-.1.847-.486a.235.235,0,0,0-.256-.256.323.323,0,0,0-.206.066v.386a.568.568,0,0,1-.386.1.588.588,0,0,1-.39-.1v-.386A.3.3,0,0,0,214.991,195.741Z" transform="translate(-175.472 -100.07)" fill="#2f3634"/>
  <path id="Path_28" data-name="Path 28" d="M228.038,198.525v-2.017l.05-.042.251-.019v-.182h-1.051v.182l.266.019.05.042v2.052H226.33v-2.052l.05-.042.263-.019v-.182h-1.051v.182l.251.019.05.042v2.013l-.05.039-.251.019v.185H228l.05.058.077.576h.263v-.838h-.309Z" transform="translate(-161.542 -99.398)" fill="#2f3634"/>
  <path id="Path_29" data-name="Path 29" d="M225.624,196.251h-.336l-.943,2.306-.24.039v.185h.8V198.6l-.274-.018-.027-.039.283-.7h.943l.29.7-.016.039-.26.018v.185h1V198.6l-.247-.039Zm-.646,1.374.384-.92.386.92Z" transform="translate(-163.448 -99.415)" fill="#2f3634"/>
  <path id="Path_30" data-name="Path 30" d="M214.356,196.237a1.324,1.324,0,0,0-.968,2.26,1.3,1.3,0,0,0,.957.363,1.263,1.263,0,0,0,1.342-1.306,1.292,1.292,0,0,0-.374-.943A1.313,1.313,0,0,0,214.356,196.237Zm-.007,2.388a.771.771,0,0,1-.653-.342,1.337,1.337,0,0,1-.194-.74c0-.648.317-1.073.836-1.073.484,0,.849.418.849,1.084C215.187,198.4,214.671,198.625,214.349,198.625Z" transform="translate(-177.699 -99.433)" fill="#2f3634"/>
  <path id="Path_31" data-name="Path 31" d="M224,196.264h-.948v.183l.283.018.046.043v2.014l-.046.039-.256.018v.185h1.087v-.185h-.3l-.05-.057v-.7c.169.011.231.011.253.011.874,0,1.094-.53,1.094-.838C225.166,196.412,224.6,196.264,224,196.264Zm.057,1.361a1.923,1.923,0,0,1-.242-.016v-1.132c.057,0,.178-.011.247-.011.345,0,.642.155.642.562S224.483,197.625,224.061,197.625Z" transform="translate(-164.796 -99.399)" fill="#2f3634"/>
  <path id="Path_32" data-name="Path 32" d="M223.611,198.521l-.073.039h-1.009v-.989h.607l.058.035.039.278h.239v-.839h-.239l-.039.282-.058.039h-.607v-.9h.869l.058.042.066.328h.278v-.572H221.8v.182l.251.019.05.042v2.013l-.05.039-.251.019v.185h2.149V198.1h-.255Z" transform="translate(-166.413 -99.398)" fill="#2f3634"/>
  <path id="Path_33" data-name="Path 33" d="M210.543,196.446l.263.019.054.042v.1l-1.372,1.472v-1.573l.054-.042.263-.019v-.182h-1.051v.182l.251.019.05.042v2.013l-.05.039-.251.019v.185h1.063v-.185l-.267-.019-.05-.039v-.158l1.36-1.453v1.611l-.054.039-.263.019v.185h1.047v-.185l-.247-.019-.05-.039v-2.013l.05-.042.247-.019v-.182h-1.047Z" transform="translate(-183.147 -99.398)" fill="#2f3634"/>
  <path id="Path_34" data-name="Path 34" d="M208.958,196.446l.266.019.05.042v.1l-1.368,1.472v-1.573l.054-.042.263-.019v-.182h-1.051v.182l.251.019.05.042v2.013l-.05.039-.251.019v.185h1.063v-.185l-.263-.019-.054-.039v-.158l1.356-1.453v1.611l-.05.039-.266.019v.185h1.055v-.185l-.251-.019-.05-.039v-2.013l.05-.042.251-.019v-.182h-1.055Z" transform="translate(-185.176 -99.398)" fill="#2f3634"/>
  <path id="Path_35" data-name="Path 35" d="M230.51,196.446l.267.019.05.042v.1l-1.368,1.472v-1.573l.054-.042.263-.019v-.182h-1.051v.182l.247.019.054.042v2.013l-.054.039-.247.019v.185h1.063v-.185l-.267-.019-.05-.039v-.158l1.356-1.453v1.611l-.05.039-.267.019v.185h1.055v-.185l-.251-.019-.05-.039v-2.013l.05-.042.251-.019v-.182H230.51Z" transform="translate(-157.522 -99.398)" fill="#2f3634"/>
  <path id="Path_36" data-name="Path 36" d="M210.71,196.6a1.211,1.211,0,0,0-.406.936,1.266,1.266,0,0,0,.422.95,1.517,1.517,0,0,0,1.027.352,2.863,2.863,0,0,0,.833-.132v-.644h-.253l-.1.432-.055.055a.932.932,0,0,1-.352.055.958.958,0,0,1-1.016-1.066c0-.858.568-1.055.915-1.055a1.2,1.2,0,0,1,.464.087l.059.055.078.4h.265v-.642a3.012,3.012,0,0,0-.833-.135A1.516,1.516,0,0,0,210.71,196.6Z" transform="translate(-181.158 -99.424)" fill="#2f3634"/>
  <path id="Path_37" data-name="Path 37" d="M213.829,198.557l-.331-.642a.75.75,0,0,0-.489-.45v-.011a.535.535,0,0,0,.338-.34l.151-.358a.8.8,0,0,1,.107-.2l.379.217a.279.279,0,0,0,.144-.249c0-.153-.1-.285-.333-.285s-.381.162-.507.436l-.176.4a.484.484,0,0,1-.466.308h-.253v-.842l.05-.043.265-.018V196.3h-1.05v.183l.247.018.055.043v2.014l-.055.039-.247.018v.185h1.05v-.185l-.265-.018-.05-.039v-.966h.242c.189,0,.274.034.457.416l.3.63v.162h.815v-.185h-.324Z" transform="translate(-179.421 -99.433)" fill="#2f3634"/>
  <path id="Path_38" data-name="Path 38" d="M229.5,193.691a.625.625,0,0,0,.441,1.119v.011a.848.848,0,0,0-.557.491l-.256.464-.05.041-.224.021v.185h.7v-.162l.317-.63a.54.54,0,0,1,.541-.336c.084,0,.224.011.263.011v.87l-.05.041-.267.021v.185h1.055v-.185l-.251-.021-.05-.041v-2.009l.05-.043.251-.018v-.187h-1.2A1.066,1.066,0,0,0,229.5,193.691Zm1.171.032v.95c-.055,0-.178.009-.274.009-.6,0-.653-.267-.653-.463,0-.438.413-.5.71-.5Z" transform="translate(-157.356 -102.923)" fill="#2f3634"/>
  <path id="Path_39" data-name="Path 39" d="M205.192,195.774l-.073.042h-1.013v-.993h.611l.054.039.042.278h.24V194.3h-.24l-.042.282-.054.038h-.611v-.9h.869l.062.043.066.328h.274v-.576h-2.006v.185l.251.019.05.043v2.009l-.05.042-.251.019v.186h2.153v-.665h-.259Z" transform="translate(-190.052 -102.923)" fill="#2f3634"/>
  <path id="Path_40" data-name="Path 40" d="M227.529,193.7l.267.019.05.043v.842h-1.318v-.842l.05-.043.266-.019v-.185h-1.051v.185l.247.019.054.043v2.009l-.054.042-.247.019v.186h1.051v-.186l-.266-.019-.05-.042v-.966h1.318v.966l-.05.042-.267.019v.186h1.051v-.186l-.251-.019-.05-.042v-2.009l.05-.043.251-.019v-.185h-1.051Z" transform="translate(-161.282 -102.923)" fill="#2f3634"/>
  <path id="Path_41" data-name="Path 41" d="M223.215,194.576c-.128,0-.3.016-.413.027v-.881h.824l.057.043.071.326h.274v-.575h-1.959v.187l.247.018.055.043v2.009l-.055.041-.247.021v.185h1.116a1.278,1.278,0,0,0,.811-.2.627.627,0,0,0,.26-.537C224.256,194.693,223.626,194.576,223.215,194.576Zm-.162,1.233c-.073,0-.208-.007-.251-.007v-.986a2.661,2.661,0,0,1,.347-.032c.418,0,.628.221.628.484C223.777,195.748,223.393,195.809,223.053,195.809Z" transform="translate(-166.062 -102.923)" fill="#2f3634"/>
  <path id="Path_42" data-name="Path 42" d="M207.88,195.774l-.074.042h-1.012v-.993h.61l.054.039.042.278h.24V194.3h-.24l-.042.282-.054.038h-.61v-.9h.869l.062.043.066.328h.274v-.576H206.06v.185l.251.019.05.043v2.009l-.05.042-.251.019v.186h2.153v-.665h-.255Z" transform="translate(-186.604 -102.923)" fill="#2f3634"/>
  <path id="Path_43" data-name="Path 43" d="M225.851,193.505h-.34l-.943,2.3-.24.043v.185h.8v-.185l-.276-.021-.023-.041.279-.7h.948l.29.7-.023.041-.251.021v.185h.993v-.185l-.244-.043Zm-.648,1.377.381-.925.39.925Z" transform="translate(-163.164 -102.939)" fill="#2f3634"/>
  <path id="Path_44" data-name="Path 44" d="M208.826,195.79l.281-.7h.947l.29.7-.023.041-.256.021v.185h1v-.185l-.244-.043-.975-2.3h-.336l-.943,2.3-.24.043v.185h.8v-.185l-.276-.021Zm.756-1.833.39.925H209.2Z" transform="translate(-183.696 -102.939)" fill="#2f3634"/>
  <path id="Path_45" data-name="Path 45" d="M206.926,195.78v-2.014l.055-.043.247-.018v-.187h-2v.187h.336l.05.062a5.4,5.4,0,0,1-.8,2.05h-.24v.84h.267l.073-.58.055-.055h1.92l.05.055.078.58h.263v-.84h-.311Zm-.434.037H205.14a6.064,6.064,0,0,0,.737-2.094h.614Z" transform="translate(-188.513 -102.923)" fill="#2f3634"/>
  <path id="Path_46" data-name="Path 46" d="M213.171,195.774v-.966h1.318v.966l-.05.042-.267.019v.186h1.051v-.186l-.251-.019-.05-.042v-2.009l.05-.043.251-.019v-.185h-1.051v.185l.267.019.05.043v.842h-1.318v-.842l.05-.043.267-.019v-.185h-1.055v.185l.251.019.054.043v2.009l-.054.042-.251.019v.186h1.055v-.186l-.267-.019Z" transform="translate(-178.427 -102.923)" fill="#2f3634"/>
  <path id="Path_47" data-name="Path 47" d="M229.115,193.7l.267.019.05.043v.1l-1.368,1.472v-1.573l.05-.043.267-.019v-.185h-1.051v.185l.251.019.05.043v2.009l-.05.042-.251.019v.186h1.063v-.186l-.267-.019-.05-.042v-.155l1.356-1.457v1.611l-.05.042-.267.019v.186h1.055v-.186l-.251-.019-.05-.042v-2.009l.05-.043.251-.019v-.185h-1.055Z" transform="translate(-159.313 -102.923)" fill="#2f3634"/>
  <path id="Path_48" data-name="Path 48" d="M224.319,195.095c.872,0,1.094-.53,1.094-.838,0-.591-.569-.74-1.164-.74H223.3v.187l.281.018.046.043v2.009l-.046.041-.256.021v.185h1.087v-.185h-.3l-.05-.062v-.692C224.232,195.095,224.292,195.095,224.319,195.095Zm-.256-1.361c.055-.007.178-.011.244-.011.347,0,.644.155.644.559s-.224.6-.648.6a1.957,1.957,0,0,1-.24-.016Z" transform="translate(-164.479 -102.923)" fill="#2f3634"/>
  <path id="Path_49" data-name="Path 49" d="M219.253,194.809a1.3,1.3,0,0,0-.379-.947,1.32,1.32,0,0,0-.95-.37,1.329,1.329,0,0,0-.975,2.26,1.332,1.332,0,0,0,.959.361A1.264,1.264,0,0,0,219.253,194.809Zm-1.338,1.071a.764.764,0,0,1-.653-.345,1.335,1.335,0,0,1-.2-.737c0-.648.317-1.075.838-1.075.479,0,.847.418.847,1.087C218.751,195.652,218.237,195.88,217.915,195.88Z" transform="translate(-173.12 -102.955)" fill="#2f3634"/>
  <path id="Path_50" data-name="Path 50" d="M211.656,193.722v2.053l-.05.041-.265.021v.185h1.05v-.185l-.247-.021-.05-.041v-2.009l.05-.043.247-.018v-.187h-1.963v.187h.352l.05.062a5.958,5.958,0,0,1-.18,1.066,2.454,2.454,0,0,1-.416.916l-.313-.217a.3.3,0,0,0-.185.272.25.25,0,0,0,.285.263c.514,0,.758-.769.863-1.116a6.687,6.687,0,0,0,.212-1.226Z" transform="translate(-181.887 -102.923)" fill="#2f3634"/>
  <path id="Path_51" data-name="Path 51" d="M211.461,195.816l-.247.021v.185h1.116a1.26,1.26,0,0,0,.811-.2.646.646,0,0,0,.265-.541c0-.607-.646-.721-1.046-.721-.126,0-.3.011-.413.023v-.815l.05-.043.267-.018v-.187h-1.05v.187l.247.018.05.043v2.009Zm.486-1.023a3.347,3.347,0,0,1,.352-.027c.317,0,.623.155.623.5,0,.516-.406.546-.724.546-.073,0-.212-.007-.251-.007Z" transform="translate(-179.99 -102.923)" fill="#2f3634"/>
  <path id="Path_52" data-name="Path 52" d="M215.3,193.492a1.263,1.263,0,0,0-1.361,1.317,1.287,1.287,0,0,0,.381.943,1.345,1.345,0,0,0,.964.361,1.26,1.26,0,0,0,1.34-1.3,1.277,1.277,0,0,0-.379-.947A1.3,1.3,0,0,0,215.3,193.492Zm-.011,2.388a.766.766,0,0,1-.653-.345,1.353,1.353,0,0,1-.194-.737c0-.648.317-1.075.836-1.075.482,0,.849.418.849,1.087C216.126,195.652,215.608,195.88,215.288,195.88Z" transform="translate(-176.494 -102.955)" fill="#2f3634"/>
  <path id="Path_53" data-name="Path 53" d="M220.858,193.355a1.232,1.232,0,0,1,.566.135l.066.089.078.468h.285v-.788a2.764,2.764,0,0,0-.957-.174,1.853,1.853,0,0,0-1.269.425,1.713,1.713,0,0,0-.555,1.329,1.821,1.821,0,0,0,.466,1.267,1.71,1.71,0,0,0,1.3.527,3.11,3.11,0,0,0,1.011-.176v-.806h-.285l-.112.564-.082.084a1.713,1.713,0,0,1-.452.062,1.208,1.208,0,0,1-.993-.447,1.693,1.693,0,0,1-.32-1.071C219.61,194.132,219.89,193.355,220.858,193.355Z" transform="translate(-169.906 -103.476)" fill="#2f3634"/>
  <path id="Path_54" data-name="Path 54" d="M208.314,195.095c.877,0,1.1-.53,1.1-.838,0-.591-.568-.74-1.169-.74H207.3v.187l.283.018.043.043v2.009l-.043.041-.258.021v.185h1.089v-.185h-.3l-.05-.062v-.692C208.229,195.095,208.291,195.095,208.314,195.095Zm-.251-1.361c.055-.007.178-.011.244-.011.347,0,.644.155.644.559s-.228.6-.648.6a1.912,1.912,0,0,1-.24-.016Z" transform="translate(-185.012 -102.923)" fill="#2f3634"/>
  <path id="Path_55" data-name="Path 55" d="M221.964,193.492a1.259,1.259,0,0,0-1.356,1.317,1.278,1.278,0,0,0,.381.943,1.329,1.329,0,0,0,.959.361,1.262,1.262,0,0,0,1.342-1.3,1.3,1.3,0,0,0-.377-.947A1.316,1.316,0,0,0,221.964,193.492Zm-.011,2.388a.766.766,0,0,1-.653-.345,1.353,1.353,0,0,1-.194-.737c0-.648.317-1.075.836-1.075.482,0,.849.418.849,1.087C222.791,195.652,222.272,195.88,221.953,195.88Z" transform="translate(-167.937 -102.955)" fill="#2f3634"/>
  <path id="Path_56" data-name="Path 56" d="M204.608,193.865a1.594,1.594,0,0,0-.97-.272h-.112v-.24l.089-.069.324-.027v-.21h-1.285v.21l.324.027.089.069v.24h-.112a1.594,1.594,0,0,0-.97.272,1.135,1.135,0,0,0-.441.95,1.082,1.082,0,0,0,.409.9,1.514,1.514,0,0,0,.991.308h.123v.3l-.089.071-.324.023v.212h1.285v-.212l-.324-.023-.089-.071v-.3h.123a1.514,1.514,0,0,0,.991-.308,1.082,1.082,0,0,0,.409-.9A1.135,1.135,0,0,0,204.608,193.865Zm-1.541,1.92h-.1a.978.978,0,0,1,0-1.957h.1Zm.559,0h-.1v-1.957h.1a.943.943,0,0,1,.664.217,1.012,1.012,0,0,1,.295.769A.873.873,0,0,1,203.626,195.785Z" transform="translate(-192.398 -103.525)" fill="#2f3634"/>
  <path id="Path_57" data-name="Path 57" d="M215.395,193.7l.278.019.046.043v2.009l-.046.042-.243.019v.186h1.078v-.186H216.2l-.05-.062v-2.052H217l.043.043.077.491h.267v-.738h-1.99Z" transform="translate(-174.626 -102.923)" fill="#2f3634"/>
  <path id="Path_58" data-name="Path 58" d="M214.868,159.482a1.386,1.386,0,0,1-.128-.075.822.822,0,0,1-.242-.235.92.92,0,0,1-.151.295,1.441,1.441,0,0,1-.155.158,1.232,1.232,0,0,0,.306.685A1.615,1.615,0,0,0,214.868,159.482Z" transform="translate(-176.169 -146.992)" fill="#2f3634"/>
  <path id="Path_59" data-name="Path 59" d="M214.415,159.738a1.256,1.256,0,0,1-.324-.29.773.773,0,0,1-.137-.279l-.023.018a1.161,1.161,0,0,0-.046.132,1.277,1.277,0,0,0,.08.984,1.1,1.1,0,0,0,.507-.552l-.011,0Z" transform="translate(-176.639 -146.995)" fill="#2f3634"/>
  <path id="Path_60" data-name="Path 60" d="M214.214,159.488l.039-.08a.937.937,0,0,1-.393.116.113.113,0,0,1-.039,0l-.043-.007-.03-.032a.917.917,0,0,1-.178-.34l0,.011a1.325,1.325,0,0,0-.107,1.025A1.306,1.306,0,0,0,214.214,159.488Z" transform="translate(-177.184 -147.031)" fill="#2f3634"/>
  <path id="Path_61" data-name="Path 61" d="M213.9,159.487c.08-.08.162-.174.237-.263a.939.939,0,0,1,0-.228,1.257,1.257,0,0,1-.279.073h-.034a1.008,1.008,0,0,1-.484-.1l-.007,0a1.38,1.38,0,0,0-.4.943A1.6,1.6,0,0,0,213.9,159.487Z" transform="translate(-177.78 -147.252)" fill="#2f3634"/>
  <path id="Path_62" data-name="Path 62" d="M212.5,159.542a1.2,1.2,0,0,0,.454.082,1.458,1.458,0,0,0,.623-.139c.082-.034.173-.082.258-.128a1.326,1.326,0,0,1,.039-.379.889.889,0,0,1,.21-.336,1.375,1.375,0,0,1-.3-.084c-.18.062-.363.128-.527.2A1.455,1.455,0,0,0,212.5,159.542Z" transform="translate(-178.336 -147.78)" fill="#2f3634"/>
  <path id="Path_63" data-name="Path 63" d="M213.221,159.047l.116,0a5.418,5.418,0,0,0,.639-.087.632.632,0,0,1-.265-.274l-.018-.046.016-.05a1.034,1.034,0,0,1,.267-.39,4.466,4.466,0,0,0-.7,0,1.676,1.676,0,0,0-1.039.493A1.513,1.513,0,0,0,213.221,159.047Z" transform="translate(-178.671 -148.257)" fill="#2f3634"/>
  <path id="Path_64" data-name="Path 64" d="M213,158.191Z" transform="translate(-177.697 -148.25)" fill="#2f3634"/>
  <path id="Path_65" data-name="Path 65" d="M212.2,157.972a1.47,1.47,0,0,0,.943.6,5.572,5.572,0,0,0,1.034.1,1.41,1.41,0,0,1,.183-.078.823.823,0,0,1-.29-.3,1.048,1.048,0,0,1-.123-.358c-.221-.071-.441-.128-.651-.173a1.527,1.527,0,0,0-.3-.027A1.445,1.445,0,0,0,212.2,157.972Z" transform="translate(-178.726 -148.828)" fill="#2f3634"/>
  <path id="Path_66" data-name="Path 66" d="M212.271,157.188a1.63,1.63,0,0,0,.717.952,7.4,7.4,0,0,0,.858.441l.034-.034.009-.009a.846.846,0,0,1,.324-.228,1.051,1.051,0,0,1,.306-.062,2.957,2.957,0,0,1-.461-.386l-.055-.068a5.583,5.583,0,0,0-.575-.395,1.591,1.591,0,0,0-.842-.244A1.507,1.507,0,0,0,212.271,157.188Z" transform="translate(-178.634 -149.581)" fill="#2f3634"/>
  <path id="Path_67" data-name="Path 67" d="M213.676,157.544l-.041-.046a3.1,3.1,0,0,1-.9-1.3.787.787,0,0,0-.279.47,1.621,1.621,0,0,0,.447,1.438,4.934,4.934,0,0,0,.735.673,1.3,1.3,0,0,1-.174-.619A.951.951,0,0,1,213.676,157.544Z" transform="translate(-178.431 -150.806)" fill="#2f3634"/>
  <path id="Path_68" data-name="Path 68" d="M221.068,159.633c-.05.053-.1.107-.158.162a1.746,1.746,0,0,1,.587-.1,2.164,2.164,0,0,1,.349.03l.123.032-.032.123a1.751,1.751,0,0,1-.772,1.027c-.082.05-.167.1-.249.144a2.109,2.109,0,0,1,.267-.023,1.54,1.54,0,0,1,.87.258l.1.066-.064.105a1.616,1.616,0,0,1-.986.648,1.781,1.781,0,0,1,.877.5l.082.1-.094.078a1.631,1.631,0,0,1-1.062.381c-.036,0-.075,0-.126,0l-.137-.011a1.567,1.567,0,0,1,.765.822l.041.112-.112.046a1.387,1.387,0,0,1-.507.094,1.506,1.506,0,0,1-.671-.155l-.023,0a1.436,1.436,0,0,1,.285.849v.128l-.132-.007a1.72,1.72,0,0,1-.979-.406,1.37,1.37,0,0,1-.011.808l-.037.107-.114-.032a1.352,1.352,0,0,1-.756-.61,1.321,1.321,0,0,1-.158.724l-.062.1-.1-.046a1.285,1.285,0,0,1-.546-.578,1.464,1.464,0,0,1-.263.546s.046.4.071.5a1.356,1.356,0,0,0,.6.916l.066.037.039-.062a1.344,1.344,0,0,0,.18-.8l-.023-.2c.2.8.418,1.082.792,1.3l.066.03.034-.068a1.734,1.734,0,0,0-.018-1.372,1.863,1.863,0,0,0,.114.281,1.975,1.975,0,0,0,1.043,1.043l.075.016.018-.078a2.118,2.118,0,0,0-.329-1.537c.071.08.178.263.251.342a1.809,1.809,0,0,0,1.2.712c.014,0,.1-.011.1-.011l0-.066a2.011,2.011,0,0,0-.6-1.333c-.068-.073-.052-.082-.123-.151a5.167,5.167,0,0,0,.475.29,1.794,1.794,0,0,0,.9.256,1.212,1.212,0,0,0,.425-.066l.071-.027-.021-.078c-.027-.1-.1-.557-.888-1.021-.032-.018-.139-.091-.171-.107.137.046.345.146.489.18a1.341,1.341,0,0,0,.475.066,1.645,1.645,0,0,0,.872-.231l.059-.039-.034-.071a1.905,1.905,0,0,0-1.226-.9,2.435,2.435,0,0,0,1.724-.356l.105-.116-.11-.116a2.254,2.254,0,0,0-1.379-.61c.993-.043,1.384-.155,1.685-.537l.089-.137-.128-.091a2.872,2.872,0,0,0-1.6-.317,3.9,3.9,0,0,0,1.235-.541,1.356,1.356,0,0,0,.5-.619l.032-.078-.071-.03a1.253,1.253,0,0,0-.66-.148,2.647,2.647,0,0,0-.893.16c-.155.05-.251.08-.4.142a7.142,7.142,0,0,0,.808-.559,2.07,2.07,0,0,0,.9-1.5l.009-.082a1.369,1.369,0,0,0-.3-.007,2.2,2.2,0,0,0-1.306.555c-.1.071-.187.144-.276.215.137-.148.267-.3.4-.457a3.169,3.169,0,0,0,.655-2.18,1.163,1.163,0,0,0-.543-.854l-.078-.046-.034.091a13.407,13.407,0,0,1-1.244,2.489,1.048,1.048,0,0,1,.192.422A1.753,1.753,0,0,1,221.068,159.633Z" transform="translate(-172.23 -152.242)" fill="#2f3634"/>
  <path id="Path_69" data-name="Path 69" d="M217.412,159.173a1.035,1.035,0,0,1-.242.235c-.048.027-.089.05-.132.071a1.453,1.453,0,0,0,.4.806,1.154,1.154,0,0,0,.279-.664,1.427,1.427,0,0,1-.151-.158A.879.879,0,0,1,217.412,159.173Z" transform="translate(-172.517 -146.99)" fill="#2f3634"/>
  <path id="Path_70" data-name="Path 70" d="M217.936,159.168a.691.691,0,0,1-.137.279,1.231,1.231,0,0,1-.324.292l-.046.016h-.011a1.153,1.153,0,0,0,.507.553,1.268,1.268,0,0,0,.08-.989,1.142,1.142,0,0,0-.046-.128Z" transform="translate(-172.03 -146.997)" fill="#2f3634"/>
  <path id="Path_71" data-name="Path 71" d="M218.436,159.141a.917.917,0,0,1-.178.34l-.03.03-.043.009-.039,0a.92.92,0,0,1-.393-.116c.011.027.025.055.036.082a.549.549,0,1,0,.655-.336Z" transform="translate(-171.6 -147.031)" fill="#2f3634"/>
  <path id="Path_72" data-name="Path 72" d="M219.267,159.913a1.4,1.4,0,0,0-.4-.943l-.009,0a1.033,1.033,0,0,1-.479.094h-.034a1.416,1.416,0,0,1-.279-.068.861.861,0,0,1,0,.219c.078.1.158.185.24.272A1.63,1.63,0,0,0,219.267,159.913Z" transform="translate(-171.201 -147.251)" fill="#2f3634"/>
  <path id="Path_73" data-name="Path 73" d="M219.455,159.627a1.264,1.264,0,0,0,.461-.082,1.459,1.459,0,0,0-.763-.781,4.4,4.4,0,0,0-.53-.205,1.23,1.23,0,0,1-.292.082,1,1,0,0,1,.2.34,1.182,1.182,0,0,1,.043.379c.085.046.174.089.256.128A1.527,1.527,0,0,0,219.455,159.627Z" transform="translate(-170.857 -147.78)" fill="#2f3634"/>
  <path id="Path_74" data-name="Path 74" d="M219.285,159.048a1.535,1.535,0,0,0,.982-.352,1.709,1.709,0,0,0-1.041-.5,4.523,4.523,0,0,0-.7,0l.009,0a1,1,0,0,1,.267.388l.011.053-.016.043a.693.693,0,0,1-.263.279,5.792,5.792,0,0,0,.642.08C219.207,159.043,219.25,159.048,219.285,159.048Z" transform="translate(-170.613 -148.258)" fill="#2f3634"/>
  <path id="Path_75" data-name="Path 75" d="M220.544,157.972a1.464,1.464,0,0,0-.8-.231,1.558,1.558,0,0,0-.3.027c-.21.046-.429.1-.648.173a1.119,1.119,0,0,1-.126.358.823.823,0,0,1-.29.3,1.291,1.291,0,0,1,.183.078,5.577,5.577,0,0,0,1.037-.1A1.47,1.47,0,0,0,220.544,157.972Z" transform="translate(-170.793 -148.828)" fill="#2f3634"/>
  <path id="Path_76" data-name="Path 76" d="M220.521,157.188a1.561,1.561,0,0,0-.317-.034,1.58,1.58,0,0,0-.842.244,5.85,5.85,0,0,0-.575.395l-.055.068a3.038,3.038,0,0,1-.459.386,1.051,1.051,0,0,1,.3.062.845.845,0,0,1,.324.228l.009.009.034.034a7.4,7.4,0,0,0,.859-.441A1.638,1.638,0,0,0,220.521,157.188Z" transform="translate(-170.934 -149.581)" fill="#2f3634"/>
  <path id="Path_77" data-name="Path 77" d="M219.771,156.672a.806.806,0,0,0-.279-.473,3.112,3.112,0,0,1-.9,1.3l-.043.046a.951.951,0,0,1,.21.619,1.31,1.31,0,0,1-.173.619,4.906,4.906,0,0,0,.733-.671A1.632,1.632,0,0,0,219.771,156.672Z" transform="translate(-170.575 -150.806)" fill="#2f3634"/>
  <path id="Path_78" data-name="Path 78" d="M214.086,156.778a.708.708,0,0,0-.174.541,1.679,1.679,0,0,1,1.283-.562c.052,0,.112,0,.169.009a.657.657,0,0,0-.591-.267A.892.892,0,0,0,214.086,156.778Z" transform="translate(-176.531 -150.421)" fill="#2f3634"/>
  <path id="Path_79" data-name="Path 79" d="M216.153,155.408a5.641,5.641,0,0,1-1.5.813,2.9,2.9,0,0,0,2.247-.815C216.536,155.406,216.521,155.408,216.153,155.408Z" transform="translate(-175.578 -151.824)" fill="#2f3634"/>
  <path id="Path_80" data-name="Path 80" d="M215.891,155.406a2.889,2.889,0,0,0,2.247.815,5.6,5.6,0,0,1-1.5-.813C216.27,155.408,216.254,155.406,215.891,155.406Z" transform="translate(-173.989 -151.824)" fill="#2f3634"/>
  <path id="Path_81" data-name="Path 81" d="M214.062,157.065a1.2,1.2,0,0,0,.584-.169.817.817,0,0,1,.269-.358h-.069a1.454,1.454,0,0,0-.5.119,1.635,1.635,0,0,1-.546.132.816.816,0,0,1-.514-.2A.728.728,0,0,0,214.062,157.065Z" transform="translate(-177.323 -150.371)" fill="#2f3634"/>
  <path id="Path_82" data-name="Path 82" d="M218.781,161.084c0,.354.007.694.011,1.043l.018,0h.135c.295,0,.58.023.881.048A1.356,1.356,0,0,0,218.781,161.084Z" transform="translate(-170.281 -144.538)" fill="#2f3634"/>
  <path id="Path_83" data-name="Path 83" d="M218.08,162.178c.3-.023.587-.043.884-.05h.128l.021,0c.007-.342.007-.683.014-1.039A1.341,1.341,0,0,0,218.08,162.178Z" transform="translate(-171.18 -144.538)" fill="#2f3634"/>
  <path id="Path_84" data-name="Path 84" d="M219.29,161.632a.143.143,0,0,0-.144.144.145.145,0,0,0,.144.151.148.148,0,0,0,.146-.151A.147.147,0,0,0,219.29,161.632Z" transform="translate(-169.813 -143.835)" fill="#2f3634"/>
  <path id="Path_85" data-name="Path 85" d="M218.595,161.749a.146.146,0,0,0,.146.146.146.146,0,0,0,0-.292A.147.147,0,0,0,218.595,161.749Z" transform="translate(-170.52 -143.872)" fill="#2f3634"/>
  <path id="Path_86" data-name="Path 86" d="M218.741,161.244a.147.147,0,0,0-.146.144.144.144,0,0,0,.146.146.141.141,0,0,0,.144-.146A.143.143,0,0,0,218.741,161.244Z" transform="translate(-170.52 -144.333)" fill="#2f3634"/>
  <path id="Path_87" data-name="Path 87" d="M218.741,161.422a.151.151,0,0,0-.146.148.147.147,0,0,0,.146.146.144.144,0,0,0,.144-.146A.147.147,0,0,0,218.741,161.422Z" transform="translate(-170.52 -144.105)" fill="#2f3634"/>
  <path id="Path_88" data-name="Path 88" d="M218.779,161.752a.145.145,0,0,0,.29,0,.145.145,0,1,0-.29,0Z" transform="translate(-170.284 -143.869)" fill="#2f3634"/>
  <path id="Path_89" data-name="Path 89" d="M219.109,161.91a.149.149,0,0,0,.142-.151.144.144,0,1,0-.288,0A.15.15,0,0,0,219.109,161.91Z" transform="translate(-170.047 -143.856)" fill="#2f3634"/>
  <path id="Path_90" data-name="Path 90" d="M218.189,161.925a.146.146,0,0,0,.146-.146.145.145,0,1,0-.29,0A.147.147,0,0,0,218.189,161.925Z" transform="translate(-171.225 -143.834)" fill="#2f3634"/>
  <path id="Path_91" data-name="Path 91" d="M218.411,161.752a.144.144,0,0,0,.148.144.14.14,0,0,0,.142-.144.143.143,0,0,0-.142-.146A.148.148,0,0,0,218.411,161.752Z" transform="translate(-170.756 -143.869)" fill="#2f3634"/>
  <path id="Path_92" data-name="Path 92" d="M218.371,161.91a.15.15,0,0,0,.146-.151.144.144,0,1,0-.288,0A.149.149,0,0,0,218.371,161.91Z" transform="translate(-170.989 -143.856)" fill="#2f3634"/>
  <path id="Path_93" data-name="Path 93" d="M218.741,161.064a.147.147,0,0,0-.146.146.144.144,0,0,0,.146.144.14.14,0,0,0,.144-.144A.144.144,0,0,0,218.741,161.064Z" transform="translate(-170.52 -144.564)" fill="#2f3634"/>
  <path id="Path_94" data-name="Path 94" d="M218.49,161.046v.185a1.649,1.649,0,0,1,.308-.1,1.821,1.821,0,0,1-.1.313h.365a1.878,1.878,0,0,1-.1-.313,1.705,1.705,0,0,1,.3.1v-.37a1.68,1.68,0,0,1-.3.105,1.915,1.915,0,0,1,.1-.315h-.365a1.856,1.856,0,0,1,.1.315,1.624,1.624,0,0,1-.308-.105Z" transform="translate(-170.654 -145.094)" fill="#2f3634"/>
  <path id="Path_95" data-name="Path 95" d="M220.685,161.86a12.733,12.733,0,0,0-2.594,0,1.346,1.346,0,0,0,.338.6.4.4,0,0,1,.242-.185.431.431,0,0,1,.306-.135.175.175,0,0,1,.132.046l-.064.084a.814.814,0,0,0-.1.2.372.372,0,0,1,.009.233c-.014.032-.025.055-.039.082a1.321,1.321,0,0,0,.415.087.5.5,0,0,1-.023-.18.418.418,0,0,1,.16-.283.784.784,0,0,0,.018-.224l-.007-.1a.255.255,0,0,1,.135.018.5.5,0,0,1,.212.349.457.457,0,0,1,.1.274v.027a1.227,1.227,0,0,0,.178-.1.492.492,0,0,1-.057-.162.38.38,0,0,1,.043-.212.933.933,0,0,0-.089-.142l-.075-.087a.262.262,0,0,1,.148-.046.466.466,0,0,1,.29.1.255.255,0,0,1,.167.116A1.476,1.476,0,0,0,220.685,161.86Z" transform="translate(-171.166 -143.627)" fill="#2f3634"/>
  <path id="Path_96" data-name="Path 96" d="M218.848,161.978a.884.884,0,0,1-.027.249l0,0-.007,0a.317.317,0,0,0-.139.224.28.28,0,0,0,.055.2.166.166,0,0,0,.139.071l.011,0c.119,0,.2-.1.208-.251a.372.372,0,0,0-.089-.219l0,0v-.007A.4.4,0,0,0,218.848,161.978Z" transform="translate(-170.424 -143.391)" fill="#2f3634"/>
  <path id="Path_97" data-name="Path 97" d="M218.718,161.99a.348.348,0,0,0-.217.126l0,.007h-.007a.253.253,0,0,0-.194.139.226.226,0,0,0-.007.212.179.179,0,0,0,.1.1.176.176,0,0,0,.066.011h0c.116,0,.167-.13.183-.169a.29.29,0,0,0-.011-.185l0,0v-.007A.692.692,0,0,1,218.718,161.99Z" transform="translate(-170.942 -143.376)" fill="#2f3634"/>
  <path id="Path_98" data-name="Path 98" d="M219.018,162.3a.225.225,0,0,0,.2.212h.027a.2.2,0,0,0,.144-.235c0-.062-.059-.24-.185-.244h-.009l0-.007a.392.392,0,0,0-.217-.094.618.618,0,0,1,.091.171l.009.011-.009,0A.3.3,0,0,0,219.018,162.3Z" transform="translate(-170.036 -143.45)" fill="#2f3634"/>
  <path id="Path_99" data-name="Path 99" d="M216.989,156.766c.057,0,.112-.009.169-.009a1.678,1.678,0,0,1,1.281.562.715.715,0,0,0-.171-.541.892.892,0,0,0-.687-.279A.657.657,0,0,0,216.989,156.766Z" transform="translate(-172.58 -150.421)" fill="#2f3634"/>
  <path id="Path_100" data-name="Path 100" d="M218.385,157.07a.734.734,0,0,0,.772-.479.826.826,0,0,1-.516.2,1.582,1.582,0,0,1-.541-.132,1.488,1.488,0,0,0-.5-.123l-.068,0a.77.77,0,0,1,.269.359A1.242,1.242,0,0,0,218.385,157.07Z" transform="translate(-171.885 -150.374)" fill="#2f3634"/>
  <path id="Path_101" data-name="Path 101" d="M214.249,155.2a.161.161,0,0,0,.157.164.164.164,0,0,0,.16-.164.161.161,0,0,0-.16-.158A.158.158,0,0,0,214.249,155.2Z" transform="translate(-176.096 -152.284)" fill="#2f3634"/>
  <path id="Path_102" data-name="Path 102" d="M214.338,155.26h.2a1,1,0,0,1-.059-.174.923.923,0,0,1,.171.057v-.2a.923.923,0,0,1-.171.057,1,1,0,0,1,.059-.173h-.2a1.021,1.021,0,0,1,.057.173.835.835,0,0,1-.169-.057v.2a.835.835,0,0,1,.169-.057A1.022,1.022,0,0,1,214.338,155.26Z" transform="translate(-176.126 -152.568)" fill="#2f3634"/>
  <path id="Path_103" data-name="Path 103" d="M214.2,156.517a4.678,4.678,0,0,0,1.37,0v0l0,0a2.652,2.652,0,0,0,.317-.9c0-.3-.258-.431-.58-.5l-.19.927-.091,0a3.047,3.047,0,0,0,.05-.418c0-.205-.114-.267-.194-.267s-.2.062-.2.267a2.72,2.72,0,0,0,.05.418c-.032,0-.062,0-.094.007l-.185-.932c-.322.071-.58.2-.58.5a2.555,2.555,0,0,0,.317.9Z" transform="translate(-176.571 -152.188)" fill="#2f3634"/>
  <path id="Path_104" data-name="Path 104" d="M217.142,155.2a.164.164,0,0,0,.158.164.166.166,0,0,0,.16-.164.163.163,0,0,0-.16-.158A.161.161,0,0,0,217.142,155.2Z" transform="translate(-172.384 -152.284)" fill="#2f3634"/>
  <path id="Path_105" data-name="Path 105" d="M217.23,155.26h.2a1.023,1.023,0,0,1-.057-.174.95.95,0,0,1,.169.057v-.2a.951.951,0,0,1-.169.057,1.022,1.022,0,0,1,.057-.173h-.2a.1.1,0,1,1-.112.116v.2a.1.1,0,1,1,.112.116Z" transform="translate(-172.415 -152.568)" fill="#2f3634"/>
  <path id="Path_106" data-name="Path 106" d="M218.456,156.517l.007,0a2.651,2.651,0,0,0,.317-.9c0-.3-.26-.431-.58-.5l-.189.932c-.032,0-.057,0-.094-.007a2.868,2.868,0,0,0,.055-.418c0-.205-.112-.267-.2-.267s-.194.062-.194.267a3.058,3.058,0,0,0,.05.418l-.1,0-.185-.927c-.322.071-.58.2-.58.5a2.655,2.655,0,0,0,.315.9A4.664,4.664,0,0,0,218.456,156.517Z" transform="translate(-172.86 -152.188)" fill="#2f3634"/>
  <path id="Path_107" data-name="Path 107" d="M212.612,157.547a.6.6,0,0,1,.311-.352c.08-.05.265-.178.265-.178a1.106,1.106,0,0,0-.112.457.708.708,0,0,0,.345.61,1.167,1.167,0,0,1-.078-.377.766.766,0,0,1,.11-.368.948.948,0,0,0,.13-.461c.023-.721-.587-.842-.324-1.055.228-.116.5-.235.758-.381a3.865,3.865,0,0,1,.415-.276c.1.082.178.075.164.39-.014.189-.619.97.3,1.4a2.015,2.015,0,0,0,.594.183.768.768,0,0,1-.47-.947c.144-.4.619-.849-.05-1.189-.062-.037-.5-.249-.607-.3a.663.663,0,0,0-.279-.112c-.212,0-.276.324-.7.614-.543.372-.637.345-.781.489-.231.226.24.53.24.968C212.835,157.044,212.431,157.2,212.612,157.547Z" transform="translate(-178.299 -152.871)" fill="#2f3634"/>
  <path id="Path_108" data-name="Path 108" d="M217.69,157.134a2.005,2.005,0,0,0,.6-.183c.92-.425.313-1.205.3-1.395-.018-.315.066-.308.162-.393a3.353,3.353,0,0,1,.413.279c.263.146.53.265.758.377.267.217-.347.333-.32,1.059a.924.924,0,0,0,.126.461.689.689,0,0,1,.11.363,1.058,1.058,0,0,1-.078.379.71.71,0,0,0,.345-.607,1.072,1.072,0,0,0-.112-.457s.185.128.265.178a.585.585,0,0,1,.311.347c.185-.342-.221-.5-.221-.879,0-.441.473-.742.24-.975-.146-.139-.24-.112-.783-.486-.422-.288-.491-.612-.7-.612a.658.658,0,0,0-.279.11c-.1.053-.546.263-.607.3-.669.34-.194.788-.05,1.194A.76.76,0,0,1,217.69,157.134Z" transform="translate(-171.681 -152.87)" fill="#2f3634"/>
  <path id="Path_109" data-name="Path 109" d="M218.441,161.816c-.032-.023-.066-.05-.094-.073a.147.147,0,0,1-.034-.023c-.071-.05-.128-.094-.173-.123a1.623,1.623,0,0,0,.493-.1,1.616,1.616,0,0,0-.509-.626,1.093,1.093,0,0,1-.34.1.914.914,0,0,1-.2.016H217.5a1.752,1.752,0,0,1,.142.523v.011c0,.052,0,.089,0,.089a.562.562,0,0,1-.183.025,2.155,2.155,0,0,1-.459-.064,1.3,1.3,0,0,1,.027.281,1.247,1.247,0,0,1-.055.356,1.684,1.684,0,0,0,.692.409,1.605,1.605,0,0,0,.034-.5c.027.021.059.043.089.062.071.046.352.212.352.212l0,0a5.94,5.94,0,0,0,1.139.514.365.365,0,0,1-.039-.174.4.4,0,0,1,.089-.26C219.1,162.312,218.772,162.072,218.441,161.816Z" transform="translate(-172.607 -144.812)" fill="#2f3634"/>
  <path id="Path_110" data-name="Path 110" d="M214.787,162.405v0s.046-.023.107-.062l.078-.046c.039-.025.078-.05.107-.066l.009,0,.05-.034c.03-.021.062-.043.091-.062a1.566,1.566,0,0,0,.032.5,1.785,1.785,0,0,0,.692-.413,1.4,1.4,0,0,1-.055-.356,1.352,1.352,0,0,1,.027-.283,1.947,1.947,0,0,1-.464.066h-.073l-.027,0v0a.316.316,0,0,1-.078-.011s0-.041,0-.089v-.027a1.844,1.844,0,0,1,.144-.521c-.027,0-.057,0-.089,0a1.748,1.748,0,0,1-.2-.016,1.259,1.259,0,0,1-.34-.105,1.658,1.658,0,0,0-.511.626,1.653,1.653,0,0,0,.511.1c-.048.027-.306.21-.345.24v0c-.374.283-.733.541-.95.7a.292.292,0,0,1,.247.274.119.119,0,0,1,0,.057A5.808,5.808,0,0,0,214.787,162.405Z" transform="translate(-177.052 -144.791)" fill="#2f3634"/>
  <path id="Path_111" data-name="Path 111" d="M213.9,155.788a2.444,2.444,0,0,0,.8,1.285,2.786,2.786,0,0,0,.539.349,4.689,4.689,0,0,1-.313-.584,1.909,1.909,0,0,0,.671.441,3.043,3.043,0,0,0-.2-.5l.03.023a2.491,2.491,0,0,0,.484.333c.212.13.509.279.509.279a2.32,2.32,0,0,0-.1-.539c-.018-.053-.034-.1-.053-.151l-.032-.1a1.2,1.2,0,0,0,.986.537,1.083,1.083,0,0,0,.537-.142,1.975,1.975,0,0,1-1.217-.441,1.072,1.072,0,0,0,.491-.34,1.619,1.619,0,0,1-.324.034,1.01,1.01,0,0,1-.317-.046,1.117,1.117,0,0,0,.737-.473,7.934,7.934,0,0,1-1.879.151A10.484,10.484,0,0,1,213.9,155.788Zm.742.772-.011.011-.011-.011a.454.454,0,0,1-.151-.331l0-.023.025,0a4.887,4.887,0,0,0,.694.059l.237,0A1.857,1.857,0,0,0,214.645,156.56Z" transform="translate(-176.54 -151.375)" fill="#2f3634"/>
  <path id="Path_112" data-name="Path 112" d="M213.888,156.165a.565.565,0,0,0-.484.7.763.763,0,0,0,.3.454.777.777,0,0,1,.616-.292,1.488,1.488,0,0,1,.783.217.883.883,0,0,1,.267-.05c.132,0,.183,0,.183,0a3.642,3.642,0,0,1-.642-.571,2.259,2.259,0,0,1-.4-.765.2.2,0,0,0-.178.13.222.222,0,0,0,0,.174A.932.932,0,0,0,213.888,156.165Zm.509.185.082.139a.733.733,0,0,0-.155-.05,1.28,1.28,0,0,0-.269-.032A.336.336,0,0,1,214.4,156.35Z" transform="translate(-177.196 -151.236)" fill="#2f3634"/>
  <path id="Path_113" data-name="Path 113" d="M219,157.073a2.424,2.424,0,0,0,.8-1.288,10.01,10.01,0,0,1-1.356.121,8.046,8.046,0,0,1-1.877-.151,1.094,1.094,0,0,0,.737.47.931.931,0,0,1-.317.048,1.585,1.585,0,0,1-.324-.034,1.068,1.068,0,0,0,.491.34,1.958,1.958,0,0,1-1.215.438,1.038,1.038,0,0,0,.534.144,1.2,1.2,0,0,0,.989-.541l-.034.1c-.018.05-.034.1-.055.151a2.463,2.463,0,0,0-.1.537s.3-.146.511-.274a2.718,2.718,0,0,0,.482-.336l.032-.023a3,3,0,0,0-.194.5,2,2,0,0,0,.669-.441,3.889,3.889,0,0,1-.317.582A2.459,2.459,0,0,0,219,157.073Zm-.715-.811h.235a5.388,5.388,0,0,0,.7-.055l.021,0v.023a.468.468,0,0,1-.151.333l-.014.011-.011-.011A1.923,1.923,0,0,0,218.284,156.263Z" transform="translate(-173.924 -151.375)" fill="#2f3634"/>
  <path id="Path_114" data-name="Path 114" d="M217.2,157.2s.05,0,.183,0a.9.9,0,0,1,.267.05,1.481,1.481,0,0,1,.783-.217.764.764,0,0,1,.614.292.752.752,0,0,0,.3-.454.561.561,0,0,0-.482-.7.94.94,0,0,0-.45,0,.227.227,0,0,0,0-.174.194.194,0,0,0-.178-.13,2.26,2.26,0,0,1-.4.765A3.735,3.735,0,0,1,217.2,157.2Zm1.2-.849a.336.336,0,0,1,.342.057,1.28,1.28,0,0,0-.269.032.846.846,0,0,0-.16.05Z" transform="translate(-172.307 -151.236)" fill="#2f3634"/>
  <path id="Path_115" data-name="Path 115" d="M220.2,165.447a1.068,1.068,0,0,0,.806.283,1,1,0,0,0,1.025-.963,1.715,1.715,0,0,0-.87-1.384l-.016-.011.016-.011a.392.392,0,0,0,.055-.637c-.63.648-2.3-.619-2.721-.986a.5.5,0,1,1-.943,0c-.42.368-2.048,1.639-2.724.986a.39.39,0,0,0,.055.637l.014.011-.014.011a1.7,1.7,0,0,0-.87,1.384,1,1,0,0,0,1.023.963,1.063,1.063,0,0,0,.808-.283.918.918,0,0,1-.6-.854,1.437,1.437,0,0,1,.228-.671.472.472,0,0,0,.388.215,1.9,1.9,0,0,0-.276.913,1.061,1.061,0,0,0,0,.119.9.9,0,0,0,.311.2l.1.034.023.011-.018.021-.078.064a.919.919,0,0,1-.173.137,1.141,1.141,0,0,0,.986.5.881.881,0,0,0,.687-.267,2.879,2.879,0,0,0,.591.639,3.248,3.248,0,0,0,.587-.639.874.874,0,0,0,.687.267,1.141,1.141,0,0,0,.986-.5.8.8,0,0,1-.174-.137l-.078-.064-.023-.021.027-.011.1-.034a.847.847,0,0,0,.313-.2c0-.041,0-.08,0-.119a1.851,1.851,0,0,0-.276-.913.368.368,0,0,0,.384-.215,1.388,1.388,0,0,1,.228.671A.914.914,0,0,1,220.2,165.447Zm-4.185-1.55c-.1-.084-.183-.324.164-.6.021-.016.39-.3.553-.429s.349-.258.511-.379c-.05.055-.1.105-.155.16A11.755,11.755,0,0,0,216.014,163.9Zm1.2,1.573a.873.873,0,0,0,.048.105.545.545,0,0,1-.349-.167.823.823,0,0,1-.164-.553,3.988,3.988,0,0,1,.9-2.089C217.432,163.321,216.909,164.764,217.211,165.47Zm1.922-.062a.545.545,0,0,1-.349.167l.048-.105c.3-.705-.221-2.148-.441-2.7a3.953,3.953,0,0,1,.906,2.089A.8.8,0,0,1,219.133,165.408Zm.916-1.491a12.213,12.213,0,0,0-1.094-1.267c-.055-.055-.1-.1-.155-.16.162.121.345.251.509.379s.5.384.5.384l.059.046C220.2,163.65,220.126,163.844,220.049,163.917Z" transform="translate(-176.4 -143.7)" fill="#2f3634"/>
  <path id="Path_116" data-name="Path 116" d="M215.664,154.392a.237.237,0,1,0,.24-.24A.24.24,0,0,0,215.664,154.392Z" transform="translate(-174.28 -153.433)" fill="#2f3634"/>
  <path id="Path_117" data-name="Path 117" d="M215.8,154.485h.3a1.691,1.691,0,0,1-.08-.253,1.532,1.532,0,0,1,.253.08v-.3a1.5,1.5,0,0,1-.253.082,1.647,1.647,0,0,1,.08-.256h-.3a1.582,1.582,0,0,1,.085.256,1.406,1.406,0,0,1-.256-.082v.3a1.434,1.434,0,0,1,.256-.08A1.625,1.625,0,0,1,215.8,154.485Z" transform="translate(-174.328 -153.837)" fill="#2f3634"/>
  <path id="Path_118" data-name="Path 118" d="M215.591,156.721h2.048V156.4a4.136,4.136,0,0,0,.486-1.365c0-.447-.39-.644-.874-.753l-.285,1.432c-.044,0-.089,0-.13-.009a5.189,5.189,0,0,0,.1-.687c0-.313-.183-.413-.313-.413s-.317.1-.317.413a4.638,4.638,0,0,0,.1.692c-.046,0-.089,0-.13.007l-.285-1.434c-.484.11-.874.306-.874.753a4.005,4.005,0,0,0,.484,1.361Z" transform="translate(-174.995 -153.271)" fill="#2f3634"/>
  <path id="Path_119" data-name="Path 119" d="M213.821,162.5a.194.194,0,0,0-.263-.1.2.2,0,0,0-.1.263.2.2,0,0,0,.258.1A.2.2,0,0,0,213.821,162.5Z" transform="translate(-177.127 -142.863)" fill="#2f3634"/>
  <path id="Path_120" data-name="Path 120" d="M213.932,162.88a3.732,3.732,0,0,0-.251-.961.643.643,0,0,1-.142-.021.5.5,0,0,1-.048.19.413.413,0,0,1-.123.317.371.371,0,0,1-.128.078,5.1,5.1,0,0,0,.39.537Z" transform="translate(-177.391 -143.494)" fill="#2f3634"/>
  <path id="Path_121" data-name="Path 121" d="M212.9,161.374a2.66,2.66,0,0,0,.16.491c.011.018.036-.007.062-.007a.5.5,0,0,1,.2.03.486.486,0,0,1,.123.071l.082.023a.5.5,0,0,1,.212.162l.034.041a.5.5,0,0,1,.055-.041,7.087,7.087,0,0,0-.591-.925Z" transform="translate(-177.827 -144.365)" fill="#2f3634"/>
  <path id="Path_122" data-name="Path 122" d="M213.261,162.206a.331.331,0,0,0,.2-.212l0-.011.009,0a.891.891,0,0,1,.247-.075.429.429,0,0,0-.105-.066.4.4,0,0,0-.235-.034h0l0,0-.011,0a.416.416,0,0,0-.233-.027.317.317,0,0,0-.185.137.208.208,0,0,0-.021.174.2.2,0,0,0,.116.13A.313.313,0,0,0,213.261,162.206Z" transform="translate(-177.813 -143.672)" fill="#2f3634"/>
  <path id="Path_123" data-name="Path 123" d="M213.629,162.1l.016.009a.339.339,0,0,0,.224,0,.216.216,0,0,0,.112-.132.241.241,0,0,0-.174-.3l-.034-.011a.3.3,0,0,0-.306.084l-.007.009h-.014a.407.407,0,0,0-.274.091,1,1,0,0,1,.151.043.533.533,0,0,1,.139.073h0v0A.336.336,0,0,0,213.629,162.1Z" transform="translate(-177.478 -143.812)" fill="#2f3634"/>
  <path id="Path_124" data-name="Path 124" d="M213.042,161.939a.328.328,0,0,0,.123.023.319.319,0,0,0,.226-.13l.007-.007h.007a.873.873,0,0,1,.244-.032.347.347,0,0,0-.167-.119.4.4,0,0,0-.089-.027h-.007l0,0a.233.233,0,0,0-.1-.066.446.446,0,0,0-.155-.03c-.112.011-.231.089-.226.208A.2.2,0,0,0,213.042,161.939Z" transform="translate(-177.827 -143.946)" fill="#2f3634"/>
  <path id="Path_125" data-name="Path 125" d="M213.215,162.423a.275.275,0,0,0,.272-.062.315.315,0,0,0,.08-.244V162.1a.241.241,0,0,0,.037-.237.263.263,0,0,1-.183.135.288.288,0,0,0-.2.043c-.05.039-.2.167-.085.317A.145.145,0,0,0,213.215,162.423Z" transform="translate(-177.58 -143.535)" fill="#2f3634"/>
  <path id="Path_126" data-name="Path 126" d="M216.053,162.409a.949.949,0,0,0,.368.539.854.854,0,0,0,.418.137v-2.55h5.1v2.55a.854.854,0,0,0,.422-.137,1,1,0,0,0,.365-.539,1.17,1.17,0,0,0,.19.623,1.257,1.257,0,0,0,.256.228,1.073,1.073,0,0,0,.274-.249.842.842,0,0,0,.132-.61,1,1,0,0,0,.409.5.8.8,0,0,0,.338.1h.018a.794.794,0,0,0,.158-.32.81.81,0,0,0-.112-.619.777.777,0,0,0,.546.263h.018a.974.974,0,0,0,.418-.073,1.232,1.232,0,0,0-.034-.379,1.3,1.3,0,0,0-.457-.534,1.521,1.521,0,0,0,.317.043c.534-.084.63-.347.646-.374a.964.964,0,0,0-.233-.333,1.369,1.369,0,0,0-.648-.224,1,1,0,0,0,.582-.4.9.9,0,0,0,.116-.358.679.679,0,0,0-.29-.205.853.853,0,0,0-.281-.05,1.931,1.931,0,0,0-.468.066,6,6,0,0,0,.854-.664,1.322,1.322,0,0,0,.363-.842.777.777,0,0,0-.345-.685,2.323,2.323,0,0,1-.95,1.128c-.379.285-.7.53-.7.963a1.077,1.077,0,0,0,.158.463,1.988,1.988,0,0,1,.256.922c0,.6-.575.913-1.144.92a1.085,1.085,0,0,1-1-.468l-.032-.089h.078a1.048,1.048,0,0,0,.507-.3.763.763,0,0,0,.064-.815.855.855,0,0,1-.587.267.681.681,0,0,1-.548-.263.68.68,0,0,0,.537-.039.491.491,0,0,0,.233-.525.535.535,0,0,1-.653.034c-.384-.208-.363-.854-.167-1.523a3.32,3.32,0,0,1,.5-.854l.011-.123a.912.912,0,0,1,.158-.4l-.466.2.084-.324s-.148.071-.267.144-.568.274-.568.274a4.062,4.062,0,0,1,.071-.564,1.2,1.2,0,0,1-.288.151,1.186,1.186,0,0,1-.324.078,3.187,3.187,0,0,0-1.062,1.692,3.183,3.183,0,0,0-1.064-1.692,1.268,1.268,0,0,1-.6-.228,4.328,4.328,0,0,1,.064.564s-.447-.205-.568-.274-.265-.144-.265-.144l.089.324-.473-.2a.911.911,0,0,1,.158.4l.014.123a3.254,3.254,0,0,1,.5.854c.2.669.219,1.315-.167,1.523a.53.53,0,0,1-.651-.034.489.489,0,0,0,.228.525.673.673,0,0,0,.534.039.676.676,0,0,1-.541.263.859.859,0,0,1-.591-.267.765.765,0,0,0,.066.815,1.02,1.02,0,0,0,.525.306h.055l-.027.084a1.1,1.1,0,0,1-1,.468c-.571-.007-1.144-.324-1.144-.92a1.934,1.934,0,0,1,.256-.922,1.083,1.083,0,0,0,.16-.463c0-.434-.326-.678-.705-.963a2.3,2.3,0,0,1-.945-1.128.772.772,0,0,0-.345.685,1.311,1.311,0,0,0,.356.842,6.241,6.241,0,0,0,.858.664,1.976,1.976,0,0,0-.468-.066.892.892,0,0,0-.285.05.682.682,0,0,0-.288.205.875.875,0,0,0,.112.358,1.025,1.025,0,0,0,.591.4,1.38,1.38,0,0,0-.653.224.945.945,0,0,0-.231.333c.016.027.107.29.644.374a1.521,1.521,0,0,0,.317-.043,1.3,1.3,0,0,0-.457.534,1.234,1.234,0,0,0-.034.379.989.989,0,0,0,.422.073h.014a.783.783,0,0,0,.546-.263.827.827,0,0,0-.116.619.93.93,0,0,0,.16.32h.023a.8.8,0,0,0,.336-.1,1.025,1.025,0,0,0,.411-.5.854.854,0,0,0,.128.61,1.2,1.2,0,0,0,.276.249,1.326,1.326,0,0,0,.256-.228A1.192,1.192,0,0,0,216.053,162.409Z" transform="translate(-177.777 -150.637)" fill="#2f3634"/>
  <path id="Path_127" data-name="Path 127" d="M213.941,162.442a1.3,1.3,0,0,0,.541.4,1.449,1.449,0,0,0,.6-.032,2.492,2.492,0,0,0-.144.313,1.818,1.818,0,0,0-.091.352,2.127,2.127,0,0,0,.694-.114,1.554,1.554,0,0,0-.078.539.919.919,0,0,0,.283.63,2,2,0,0,1,.169-.591.816.816,0,0,1,1.126-.386c.146.185,0,.575,0,.575.2-.05.568-.537.568-.537a1.711,1.711,0,0,1-.055.212,1.457,1.457,0,0,1-.244.418,1.306,1.306,0,0,1-.139.135l-.016.011a.149.149,0,0,1-.041.034l0,0a1.165,1.165,0,0,1-.2.121,1.293,1.293,0,0,1-.2.075h0a.554.554,0,0,0,.47.228l.027,0h0a.619.619,0,0,0,.256-.059l.023-.011.007-.007a.455.455,0,0,0,.059-.034.83.83,0,0,0,.169-.139,1.143,1.143,0,0,0,.119.463.8.8,0,0,0,.256.3.7.7,0,0,0,.173-.169c.023-.039.055-.082.082-.135a1.218,1.218,0,0,0,.123-.463.714.714,0,0,0,.2.162c.027.014.066.034.105.05l.018.007.011,0c.034.007.073.018.112.023a.643.643,0,0,0,.094.007.549.549,0,0,0,.47-.228h0v0a1.355,1.355,0,0,1-.244-.1l-.011-.007-.016-.007a1.392,1.392,0,0,1-.281-.224l-.016-.021-.021-.018a1.248,1.248,0,0,1-.265-.473,1.63,1.63,0,0,1-.037-.162s.338.486.569.537c0,0-.128-.37.032-.571a.769.769,0,0,1,1.094.381,2,2,0,0,1,.169.591.911.911,0,0,0,.288-.63,1.657,1.657,0,0,0-.078-.543,2.053,2.053,0,0,0,.692.119,1.771,1.771,0,0,0-.094-.354,2.109,2.109,0,0,0-.144-.315,1.768,1.768,0,0,0,.628.014,1.177,1.177,0,0,0,.516-.379,2.069,2.069,0,0,1-.61-.082,1.143,1.143,0,0,1-.34-.155,1.151,1.151,0,0,0,.358-.253s-.308-.082-.393-.112c-.313-.116-.363-.306-.363-.306a1.459,1.459,0,0,0,.368.057,1.533,1.533,0,0,1-.352-1.071.708.708,0,0,1,.2-.541,1.618,1.618,0,0,1-.158-.326c-.043-.137-.082-.322-.082-.322l-.263.055v2.963a.644.644,0,0,1-.687.6h-1.094c-.5,0-.765.6-.765.6s-.251-.61-.769-.61h-1.059a.683.683,0,0,1-.721-.6v-2.957l-.251-.05a1.348,1.348,0,0,1-.064.32c-.05.137-.146.34-.146.34a.746.746,0,0,1,.174.525,1.6,1.6,0,0,1-.342,1.075,1.574,1.574,0,0,0,.37-.062s-.055.19-.368.306c-.084.03-.393.112-.393.112a1.207,1.207,0,0,0,.363.253,1.189,1.189,0,0,1-.345.155A2.056,2.056,0,0,1,213.941,162.442Z" transform="translate(-176.491 -146.789)" fill="#2f3634"/>
  <path id="Path_128" data-name="Path 128" d="M212.131,159.121l-.023-.016a.32.32,0,0,1-.034.155.638.638,0,0,1-.34.073l.018.018,0,.027.313.121.023,0c.016-.03.043-.08.055-.107l-.016-.007a.26.26,0,0,1,.034-.132A.5.5,0,0,0,212.131,159.121Z" transform="translate(-179.323 -147.078)" fill="#2f3634"/>
  <path id="Path_129" data-name="Path 129" d="M212.011,158.745l.007.055c-.041.021-.041.023-.08.043a.4.4,0,0,1-.089.03.374.374,0,0,1-.034-.041.446.446,0,0,1,.014.1.241.241,0,0,0,.05-.03s.025.027,0,.091a.636.636,0,0,1,.094.043c.046.032.069.05.069.05a.336.336,0,0,1,.009-.085.525.525,0,0,1,.03-.1.114.114,0,0,1-.066-.066.308.308,0,0,0,.062-.016A.629.629,0,0,1,212.011,158.745Z" transform="translate(-179.219 -147.54)" fill="#2f3634"/>
  <path id="Path_130" data-name="Path 130" d="M211.676,160.571a3.9,3.9,0,0,0,1.235.541,2.891,2.891,0,0,0-1.607.317l-.123.091.089.135c.3.384.692.5,1.685.539a2.255,2.255,0,0,0-1.384.61l-.107.116.1.116a1.333,1.333,0,0,0,.338.208,1.291,1.291,0,0,0,.1,1.29.645.645,0,0,0,.128.121.206.206,0,0,1,.014.05.323.323,0,0,0,.345.18l.194.071a.311.311,0,0,0,.062.027l.057.018a.335.335,0,0,0,.251.183,2.907,2.907,0,0,0-.185.329l-.023.073.068.027a1.314,1.314,0,0,0,.429.068,1.418,1.418,0,0,0,.219-.016l1.388,3.313a.233.233,0,0,0,.295.13.239.239,0,0,0,.105-.3l-1.021-2.153a2.211,2.211,0,0,0,.961-.669c.078-.08.185-.263.256-.345a2.1,2.1,0,0,0-.329,1.539l.018.078.071-.016a1.977,1.977,0,0,0,1.048-1.043c.025-.05.1-.228.112-.281a1.738,1.738,0,0,0-.016,1.374l.03.066.066-.03c.374-.217.6-.5.8-1.3l-.023.2a1.336,1.336,0,0,0,.18.8l.039.059.062-.037a1.355,1.355,0,0,0,.6-.916c.025-.1.066-.5.066-.5a1.54,1.54,0,0,1-.263-.546,1.248,1.248,0,0,1-.541.575l-.1.048-.062-.1a1.3,1.3,0,0,1-.158-.721,1.384,1.384,0,0,1-.756.614l-.114.027-.039-.11a1.349,1.349,0,0,1-.009-.806,1.729,1.729,0,0,1-.984.409l-.128.007,0-.13a1.5,1.5,0,0,1,.288-.849l-.021.007a1.581,1.581,0,0,1-.671.151,1.374,1.374,0,0,1-.507-.094l-.048-.018-.073-.032a.8.8,0,0,1,.059-.151,1.573,1.573,0,0,1,.756-.781l-.137.011c-.05,0-.089,0-.126,0a1.646,1.646,0,0,1-1.062-.379l-.1-.08.084-.1a1.778,1.778,0,0,1,.872-.493,1.612,1.612,0,0,1-.984-.651l-.066-.1.1-.066a1.519,1.519,0,0,1,.865-.258,2.179,2.179,0,0,1,.272.023c-.087-.043-.167-.094-.249-.144a1.793,1.793,0,0,1-.776-1.025l-.027-.126.123-.032a2.148,2.148,0,0,1,.345-.03,1.811,1.811,0,0,1,.587.1c-.052-.055-.107-.11-.153-.164a1.75,1.75,0,0,1-.479-1.548,1.048,1.048,0,0,1,.192-.422,13.411,13.411,0,0,1-1.244-2.489l-.034-.091-.082.046a1.167,1.167,0,0,0-.539.854,3.123,3.123,0,0,0,.655,2.18c.132.158.263.308.4.454-.089-.068-.183-.142-.276-.212a2.2,2.2,0,0,0-1.308-.555,1.359,1.359,0,0,0-.3.007l.007.08a2.094,2.094,0,0,0,.9,1.5,7.16,7.16,0,0,0,.811.559c-.151-.062-.247-.091-.4-.142a2.667,2.667,0,0,0-.893-.16,1.238,1.238,0,0,0-.66.148l-.073.034.034.073A1.351,1.351,0,0,0,211.676,160.571Zm2.562,4.854a5.288,5.288,0,0,0,.479-.29c-.071.068-.057.078-.123.151a2.174,2.174,0,0,0-.514.838l-.244-.521A2.005,2.005,0,0,0,214.238,165.425Zm-1.183-1.945a.213.213,0,0,0,.046-.03c.027,0,.032.03.032.03.046-.03.08-.027.1,0a.057.057,0,0,1-.007.055.086.086,0,0,0-.1.039.07.07,0,0,1,.066.041.136.136,0,0,0-.123.009.473.473,0,0,0,.011.2c.023.055.089.066.123,0a.055.055,0,0,1-.011.087h-.007a.086.086,0,0,0,.1.007.081.081,0,0,0,.055-.1c-.023-.05-.062-.062-.073-.082-.016-.041.014-.085.03-.112a1.072,1.072,0,0,0,.123-.5.648.648,0,0,1,.368.518.5.5,0,0,1-.347.521.3.3,0,0,1-.139-.08l0,.027a.617.617,0,0,0,.078.119.213.213,0,0,1,.121.062l0,.016.1.027a.083.083,0,0,1,.048-.1.086.086,0,0,1,.112.039.1.1,0,0,1-.043.114.089.089,0,0,1-.1-.023.436.436,0,0,1-.132.009l-.007.018a.271.271,0,0,1-.174-.018.228.228,0,0,0-.011.123c.053,0,.29.007.336.116s-.18.235-.217.251-.29.1-.34,0,.1-.285.139-.324a.2.2,0,0,0-.1-.078.258.258,0,0,1-.1.139l-.018-.009a.511.511,0,0,1-.089.094l.007,0,.082.03-.011.032-.066-.023-.043-.009a.237.237,0,0,1-.041-.018l-.306-.112-.023.018a.064.064,0,0,1-.082-.034.06.06,0,0,1,.032-.078l.011,0a.454.454,0,0,1-.224-.151.632.632,0,0,1-.139-.614,1.132,1.132,0,0,0,.457.237c.025.007.08.011.1.05s0,.064.016.112a.077.077,0,0,0,.107.027c.034-.016.062-.043.057-.075h0c-.071.011-.071-.046-.071-.046.073.023.11-.034.085-.089a.55.55,0,0,0-.135-.139.138.138,0,0,0-.089.089.072.072,0,0,1,.011-.08s-.073-.014-.1.046a.052.052,0,0,1-.043-.032c-.011-.03.014-.062.064-.069a.032.032,0,0,1,0-.043.254.254,0,0,0,.05-.018.371.371,0,0,1-.075-.1c-.018-.034.02-.073.055-.091a.145.145,0,0,1,.082,0,.185.185,0,0,1-.039-.066c-.032-.057.027-.107.085-.135a.112.112,0,0,1,.158.032.164.164,0,0,1,.021.069.1.1,0,0,1,.057-.055c.039-.014.089-.018.11.021A.653.653,0,0,1,213.056,163.48Z" transform="translate(-180.085 -152.242)" fill="#2f3634"/>
  <path id="Path_131" data-name="Path 131" d="M216.057,159.042a.426.426,0,0,1-.329-.267c-.648.329-.744.562-.744.562a.674.674,0,0,0,.521.267c.116,0,.21,0,.283.1a.319.319,0,0,0,.324.094c0-.025.011-.043.016-.064a.609.609,0,0,0-.011-.324A3.509,3.509,0,0,1,216.057,159.042Z" transform="translate(-175.153 -147.501)" fill="#2f3634"/>
  <path id="Path_132" data-name="Path 132" d="M216.014,160.3a.862.862,0,0,0,.183-.066c0-.014-.009-.05-.016-.1a1.525,1.525,0,0,0-.071-.281,1.356,1.356,0,0,0-.313-.573l-.007.023.011.023a2.579,2.579,0,0,1,.212.79v.18Z" transform="translate(-174.119 -146.843)" fill="#2f3634"/>
  <path id="Path_133" data-name="Path 133" d="M215.486,159.453a.886.886,0,0,0-.066.356,1.374,1.374,0,0,0,.071.413,1.838,1.838,0,0,0,.379.05c.05,0,.135,0,.235-.007a.4.4,0,0,0-.03-.144,2.273,2.273,0,0,1-.11-.212,1.8,1.8,0,0,0-.174-.313.393.393,0,0,0-.1-.094.332.332,0,0,1-.128-.135l-.03,0A.737.737,0,0,0,215.486,159.453Z" transform="translate(-174.593 -146.739)" fill="#2f3634"/>
  <path id="Path_134" data-name="Path 134" d="M216.668,160.659a.277.277,0,0,1-.114-.023.247.247,0,0,1-.11.167.361.361,0,0,1-.169.041l-.027,0a.3.3,0,0,1-.139.146.507.507,0,0,1-.2.046.973.973,0,0,1-.466.183s.39,0,.673,0a1.285,1.285,0,0,0,.135,0,1.058,1.058,0,0,0,.646-.253c.281-.249.169-.589-.066-.6-.139,0-.194.094-.194.139a.1.1,0,0,0,.1.116.212.212,0,0,0,.087-.018.146.146,0,0,1-.094.062A.224.224,0,0,1,216.668,160.659Z" transform="translate(-174.559 -145.476)" fill="#2f3634"/>
  <path id="Path_135" data-name="Path 135" d="M214.91,160.272a.368.368,0,0,0,.153.212s-.041-.192.027-.269c.1-.1.228-.055.322-.256.062-.139-.05-.452.208-.354a.6.6,0,0,1,.128.062.576.576,0,0,0-.116.354,1.52,1.52,0,0,0,.116.445,1.275,1.275,0,0,1-.1.263c-.123.256-.2.1-.233.336l-.007.048a.446.446,0,0,1,.089-.009.452.452,0,0,1,.091.009c.011-.023.039-.055.132-.11.173-.1.52-.2.626-.5a4.238,4.238,0,0,0,.5.091c-.014-.034-.03-.068-.041-.107a.515.515,0,0,1-.027-.128c-.1,0-.185,0-.244,0a1.876,1.876,0,0,1-.39-.043l-.039-.007-.014-.039a1.475,1.475,0,0,1-.075-.441.905.905,0,0,1,.075-.384l.014-.03a.762.762,0,0,0-.29.167.919.919,0,0,1-.135-.116.34.34,0,0,0-.582.308.2.2,0,0,1-.087.171A.326.326,0,0,0,214.91,160.272Z" transform="translate(-175.262 -146.759)" fill="#2f3634"/>
  <path id="Path_136" data-name="Path 136" d="M215.809,161.029h.032a.429.429,0,0,1-.055-.144.687.687,0,0,1,0-.231c-.135-.023-.132-.1-.162-.19-.066-.183-.151-.322-.345-.322-.123,0-.2.05-.2.137a.12.12,0,0,0,.05.1.172.172,0,0,1,.128-.007c.128.018.135.2.146.292A.392.392,0,0,0,215.809,161.029Z" transform="translate(-175.032 -145.746)" fill="#2f3634"/>
  <path id="Path_137" data-name="Path 137" d="M215.348,160.766a.252.252,0,0,0,.164.046.293.293,0,0,0,.139-.034.728.728,0,0,0-.073-.139.26.26,0,0,1-.039-.094.474.474,0,0,1-.016-.142.143.143,0,0,0,.062-.032.1.1,0,0,0-.068-.1H215.5l-.039,0-.025,0a.176.176,0,0,1-.053.016h0l-.039,0a.824.824,0,0,0-.342,0,.224.224,0,0,0-.126.128.25.25,0,0,1,.263-.041,1.229,1.229,0,0,0,.215.053l0,.025a.127.127,0,0,0,.034.126s.032.037-.007.1A.192.192,0,0,0,215.348,160.766Z" transform="translate(-175.298 -145.597)" fill="#2f3634"/>
  <path id="Path_138" data-name="Path 138" d="M217.976,161.887a.4.4,0,0,0,.205.151,1.409,1.409,0,0,0,.05-.208c0-.082-.043-.078-.043-.139,0-.034.009-.059.009-.082a.252.252,0,0,0-.078-.135c-.073-.073-.233-.258-.233-.258s-.023-.089-.19-.039a2.692,2.692,0,0,1-.354.075.972.972,0,0,0,.011-.18c0-.308-.139-.347-.139-.614a.378.378,0,0,1,.128-.29.846.846,0,0,0,.073.224.95.95,0,0,0,0,.183s-.043.073-.011.107.062.027.062.027.016.034.089.05.116-.1.146-.178a2,2,0,0,0,.057-.2.549.549,0,0,0,.089-.518l.164-.119a.266.266,0,0,0-.189-.027.188.188,0,0,0-.132-.084c0-.078-.094-.121-.208-.087-.037-.089-.205-.025-.251.016,0,0-.071-.119-.24.055-.023-.032-.137-.066-.224.119-.05-.027-.148.011-.176.167-.023,0-.107.032-.1.205-.03,0-.084.027-.057.2,0,0-.055.018-.027.151l.043.041a1.542,1.542,0,0,1,.331.6c.027.089.05.189.071.29.007.041.011.08.016.1l0,.05-.041.025a1.749,1.749,0,0,1-.21.069.162.162,0,0,1,0,.046l.007.032a.518.518,0,0,1,.02.1c0,.023.018.057.027.1.089-.021.13-.034.13-.034a1.39,1.39,0,0,0,.233.381.447.447,0,0,0,.027.155.359.359,0,0,0,.073.132,3.563,3.563,0,0,1,.1.39.578.578,0,0,0-.379-.071l.016-.018c.034-.048,0-.132,0-.139a.491.491,0,0,1-.027-.126c0-.064-.05-.073-.066-.068a.073.073,0,0,0-.05-.057h-.011l-.05-.148-.043,0-1.1-3.354a.133.133,0,0,0,.068-.167c-.032-.082-.082-.082-.082-.082l-.142-.409-.059.018.148.434c-.023.116-.162.441-.105.614.043.135.295.212.333.224l0,.025a1.863,1.863,0,0,0,.055.37.708.708,0,0,1,.011.363.837.837,0,0,0-.046.217c0,.219.142.208.256.347a4.793,4.793,0,0,1,.285.534c.05.078.03.24.069.352.055.158.137.24.137.295s-.032.135-.032.162.055.052.123.057l.071,0,.064.208a.082.082,0,0,0-.041-.016c-.027,0-.032.016-.032.016a.032.032,0,0,0-.027.023c-.007.021,0,.027,0,.027a.033.033,0,0,1,.027-.016.065.065,0,0,0,.055.027.333.333,0,0,1,.05.059l.027.1c-.021.011-.039,0-.039-.016s-.011-.034-.011-.034v-.011l.016-.014s0,0-.014-.007a.023.023,0,0,0-.03.016s-.023.011-.023.055.046.08.053.112a.087.087,0,0,1-.025.073l-.021.016a.317.317,0,0,0-.2.046l.032-.043a.262.262,0,0,0,.068-.169.843.843,0,0,0-.023-.112c0-.027-.007-.162-.066-.183-.034-.016-.05,0-.05,0a.037.037,0,0,0-.039-.023.034.034,0,0,0-.03.016.039.039,0,0,0-.032.007.033.033,0,0,0-.011.032.034.034,0,0,1,.043-.007.1.1,0,0,0,.041.052.076.076,0,0,0,.011.039.128.128,0,0,1,.021.034.2.2,0,0,1-.046-.034c-.025-.016-.032-.055-.087-.057a.059.059,0,0,0-.041.018s-.048,0-.027.048l.011-.021h.016s0,.011.027.032a.136.136,0,0,0,.041.027.106.106,0,0,0,.039.05.075.075,0,0,1,.039.053l0,.027.009.05a.408.408,0,0,1-.094.107c-.041.037-.107.1-.062.155a.507.507,0,0,0-.105.027.251.251,0,0,0-.064.055.19.19,0,0,0-.089-.032.194.194,0,0,0-.087.007.077.077,0,0,0-.018-.05.1.1,0,0,0-.055-.025.069.069,0,0,1,.105.018.179.179,0,0,1,.062,0,.131.131,0,0,1,.073.025s0-.025.066-.05a.154.154,0,0,1,.08-.016s.048-.267-.3-.285c-.023-.039-.041-.082-.055-.1-.062-.114-.05-.187,0-.217a.789.789,0,0,0,.34-.441c-.135-.021-.276-.05-.352-.066a.668.668,0,0,1-.135.2.228.228,0,0,1,.011.078.373.373,0,0,1-.089.19c-.062.082-.046.116,0,.174a1.431,1.431,0,0,1,.1.21.37.37,0,0,0-.217.352c0,.379.345.47.6.479a.387.387,0,0,0,.128-.037.238.238,0,0,0,.112-.114l.016-.039.039,0h.023a.3.3,0,0,0,.146-.034c.05-.023.073-.1.082-.128l.011-.066.057.032a.415.415,0,0,0,.055.011.173.173,0,0,1-.036-.112.222.222,0,0,1,.24-.194h0a.3.3,0,0,1,.263.205.438.438,0,0,1-.123.445h.011a2.032,2.032,0,0,0,.295-.011c.178-.016.224-.082.224-.082-.023.071-.039.073-.039.073s.094.032.144-.089a.12.12,0,0,1-.05.128.153.153,0,0,0,.158-.107c.016-.059,0-.078,0-.078a.325.325,0,0,0,.164-.178,2.225,2.225,0,0,1,.082-.231c.027-.055.085-.144.066-.2s-.123-.078-.178-.057a.1.1,0,0,1,.03.128.3.3,0,0,1-.185.18.293.293,0,0,0,.073-.258.153.153,0,0,1,.087-.123.129.129,0,0,0-.132.107c-.032.1.034.116-.082.228.025-.269.087-.295.087-.295s-.021-.018-.078,0c-.032.007-.066.018-.084.107a.7.7,0,0,1-.089.221.324.324,0,0,0-.055.1c-.011.011-.018.021-.032.023l-.073-.126s.009,0,0-.021c-.007-.046-.057-.089-.066-.107a3.331,3.331,0,0,1-.13-.406.373.373,0,0,0-.066-.306,2.1,2.1,0,0,0-.066-.509.248.248,0,0,0,.094-.062s.1.1.475-.249c0,0,.011-.014.062,0a.511.511,0,0,1,.206.24c.034.082.062.071.066.1s0,.032-.037.05C218.026,161.775,217.942,161.814,217.976,161.887Z" transform="translate(-174.72 -148.104)" fill="#2f3634"/>
  <path id="Path_139" data-name="Path 139" d="M215.486,158.74l.055.139a.447.447,0,0,0,.251-.112S215.586,158.667,215.486,158.74Z" transform="translate(-174.509 -147.58)" fill="#2f3634"/>
  <path id="Path_140" data-name="Path 140" d="M215.666,159.137a.812.812,0,0,1-.151.046l.916,2.852a1.041,1.041,0,0,1,.228,0c.078,0,.073-.062.032-.069a.434.434,0,0,1-.251-.183.658.658,0,0,1-.094-.24,2.6,2.6,0,0,1-.041-.441,2.424,2.424,0,0,0-.233-.8l.032-.084-.009-.023a.241.241,0,0,1,.023-.19.3.3,0,0,1,.039-.205l.023-.023a.312.312,0,0,1,.062-.174c.02-.016.055-.016.055-.037,0-.413-.107-.347-.224-.436,0-.046.011-.057.011-.057.084.039.194-.217.194-.217.064-.018.064-.073.057-.123a.249.249,0,0,0-.32-.2.341.341,0,0,0-.215.345c.025.089.055.1.055.1a.187.187,0,0,1-.027.046A.368.368,0,0,1,215.666,159.137Z" transform="translate(-174.472 -147.82)" fill="#2f3634"/>
  <path id="Path_141" data-name="Path 141" d="M257.786,173.6c-3.13-3.39-7.527-4.562-11.824-4.562a24.748,24.748,0,0,0-6.253.852v-1.379a2.789,2.789,0,0,1,.37-1.644,4.465,4.465,0,0,1,2.068-.32c1.484-.05,1.747,0,1.747-.525,0-.429-.687-.429-.9-.429-1.539,0-2.7.107-6.1.107s-4.347-.107-5.884-.107c-.215,0-.9,0-.9.429,0,.525.267.475,1.751.525a4.45,4.45,0,0,1,2.066.32,2.8,2.8,0,0,1,.368,1.644v1.379a24.693,24.693,0,0,0-6.251-.852c-4.295,0-8.7,1.171-11.822,4.562-2.913,3.126-4.032,6.947-4.032,11.45,0,5.461,1.806,8.957,4.244,11.559,2.226,2.384,6.416,4.767,12.722,4.767a28.762,28.762,0,0,0,5.139-.532v1.7a2.472,2.472,0,0,1-.208,1.374c-.317.372-1.272.475-3.342.53-.21,0-.635.107-.635.534s.372.42.8.42c2.014,0,2.6-.158,5.989-.158s4.185.158,6.2.158c.425,0,.792,0,.792-.42s-.425-.534-.635-.534c-2.066-.055-3.021-.158-3.338-.53a2.416,2.416,0,0,1-.212-1.374v-1.7a28.762,28.762,0,0,0,5.139.532c6.31,0,10.5-2.384,12.721-4.767,2.443-2.6,4.244-6.1,4.244-11.559C261.813,180.55,260.7,176.728,257.786,173.6ZM234.3,199.683a17.063,17.063,0,0,1-4.927.639c-4.08,0-7.26-1.751-9.011-4.824-1.114-1.963-2.226-4.4-2.226-10.338,0-4.559.637-8.219,2.6-11.132a8.644,8.644,0,0,1,7.74-3.927,12.293,12.293,0,0,1,5.826,1.221Zm19.349-4.185c-1.747,3.073-4.927,4.824-9.011,4.824a17.085,17.085,0,0,1-4.927-.639V171.322a12.3,12.3,0,0,1,5.831-1.221,8.649,8.649,0,0,1,7.74,3.927c1.961,2.913,2.594,6.573,2.594,11.132C255.872,191.1,254.761,193.534,253.646,195.5Z" transform="translate(-178.735 -138.749)" fill="#2f3634"/>
  <path id="Path_142" data-name="Path 142" d="M223.862,202.638a12.051,12.051,0,0,1,2.427-1.059c.541,0,.865.742,1.457,2.068.162.37.217.637.648.637.217,0,.434-.055.434-.692,0-.954-.217-2.384-.217-4.292,0-3.018.162-4.769.217-5.936.055-.692.105-1.381.105-1.751,0-.317-.105-.475-.484-.475-.486,0-.486.37-.646,1.059a22,22,0,0,1-2.267,6.2,10.377,10.377,0,0,1-9.062,5.089,11.2,11.2,0,0,1-9.87-5.881c-1.242-2.176-2.7-5.623-2.7-12.354,0-4.932.808-9.913,3.452-13.836a9.522,9.522,0,0,1,8.466-4.5c5.021,0,7.5,2.438,8.635,4.292a20.274,20.274,0,0,1,2.212,6.416c.1.8.267,1,.646,1,.162,0,.272,0,.379-.158a5.91,5.91,0,0,0,.162-1.961,46.171,46.171,0,0,1,.753-9.648c0-.37-.217-.37-.486-.37-.217,0-.379.1-.537.425-.326.582-.7,2.016-1.459,2.016a5.686,5.686,0,0,1-2-.794,15.543,15.543,0,0,0-8.737-2.281,16.991,16.991,0,0,0-14.185,6.945,21.156,21.156,0,0,0-3.671,12.349c0,6.2,2.267,10.813,5.183,13.781a18.155,18.155,0,0,0,13.324,5.619A16.444,16.444,0,0,0,223.862,202.638Z" transform="translate(-197.538 -138.419)" fill="#2f3634"/>
</svg>
