<svg id="Group_12" data-name="Group 12" xmlns="http://www.w3.org/2000/svg" width="111.595" height="21.058" viewBox="0 0 111.595 21.058">
  <path id="Path_220" data-name="Path 220" d="M49.1,37.054s.524-5.918.574-6.5a2.511,2.511,0,0,0-2.478-2.626H41.852v0h-9.6a2.63,2.63,0,0,0-2.8,2.4c-.067.7-1.3,15-1.381,15.828a2.516,2.516,0,0,0,2.452,2.827H45.373a2.593,2.593,0,0,0,2.905-2.652c.1-.963.588-6.788.588-6.788H39.889l-.388,4.5H37.228l.979-11.178h2.271l-.36,4.184Z" transform="translate(-28.058 -27.929)" fill="#007881"/>
  <path id="Path_221" data-name="Path 221" d="M91.025,29.739c-.32.922-2.932,9.1-2.932,9.1l1.162-10.906H80.281L78.4,48.989h6.763a2.441,2.441,0,0,0,2.562-1.736c.338-.923,2.829-7.8,2.829-7.8l-.916,9.537h8.98l1.851-21.056H93.421A2.467,2.467,0,0,0,91.025,29.739Z" transform="translate(-56.133 -27.931)" fill="#007881"/>
  <path id="Path_222" data-name="Path 222" d="M193.275,27.935l-.84,9.6h-2.276l.84-9.6h-8.978s-.861,10.166-.952,11.147a2.488,2.488,0,0,0,2.544,2.834h8.438l-.187,2.136h-11.23L180.2,48.99h17.866a2.512,2.512,0,0,0,2.538-2.478c.1-1.085,1.647-18.577,1.647-18.577Z" transform="translate(-112.905 -27.932)" fill="#007881"/>
  <path id="Path_223" data-name="Path 223" d="M245.032,27.935H232.84L231,48.99h8.977l.57-6.515h8.721A2.516,2.516,0,0,0,252,39.883c.065-.7.774-8.681.821-9.386a2.44,2.44,0,0,0-2.668-2.561Zm-4.1,10.162.457-5.223h2.249l-.457,5.223Z" transform="translate(-141.233 -27.932)" fill="#007881"/>
  <path id="Path_224" data-name="Path 224" d="M139.5,35.007l.188-2.136h11.245l.432-4.938H131.141L129.3,48.988h17.916a2.461,2.461,0,0,0,2.532-2.435c.121-1.321.674-7.581.775-8.717a2.511,2.511,0,0,0-2.72-2.829Zm1.451,9.6H138.66l.456-5.223h2.291Z" transform="translate(-84.518 -27.931)" fill="#007881"/>
</svg>
