<svg id="Слой_2" data-name="Слой 2" xmlns="http://www.w3.org/2000/svg" width="95.273" height="35.615" viewBox="0 0 95.273 35.615">
  <g id="Слой_1" data-name="Слой 1" transform="translate(0 0)">
    <path id="Path_225" data-name="Path 225" d="M21.371,14.459v8.357a5.3,5.3,0,0,1-5.3,5.3h-.806a5.309,5.309,0,0,1-5.3-5.3V4.9A4.984,4.984,0,1,0,0,4.9V23.655A11.689,11.689,0,0,0,11.687,35.344H17.4A11.689,11.689,0,0,0,29.118,23.655v-9.2a3.86,3.86,0,1,0-7.713,0Z" transform="translate(0.005 0.271)" fill="#5dc1e1"/>
    <path id="Path_226" data-name="Path 226" d="M35.111,27.432c-.677,9.163-8.58,9.169-8.58,9.169l-3.907-.488L18.56,33.033l1.957.135a5.464,5.464,0,0,0,.752.047h.8a5.3,5.3,0,0,0,5.3-5.3v-8.35a3.86,3.86,0,1,1,7.713,0v9.2" transform="translate(-5.988 -4.833)" fill="#41afca"/>
    <path id="Path_227" data-name="Path 227" d="M19.123,39.048a5.309,5.309,0,0,1-4.415-5.228s-.6,9.318,10.876,8.675C25.583,42.5,21.3,42.6,19.123,39.048Z" transform="translate(-4.742 -10.733)" fill="#2c93a6"/>
    <path id="Path_228" data-name="Path 228" d="M37.884,6.329H32.73a1.354,1.354,0,0,1-1.1-2.187L34.22.661a1.354,1.354,0,0,1,2.2,0L39,4.142a1.354,1.354,0,0,1-1.117,2.187Z" transform="translate(-10.115 0.153)" fill="#41afca"/>
    <path id="Path_229" data-name="Path 229" d="M64.617,36.965h-.345c-.156,0-.21.054-.21.2v1.571h-1.8V37.2c0-.149-.054-.2-.2-.2h-.352c-.149,0-.21.054-.21.2V41.1c0,.156.061.21.21.21h.352c.149,0,.2-.054.2-.21V39.478h1.8V41.1c0,.156.054.21.21.21h.345c.149,0,.21-.054.21-.21V37.2c0-.149-.061-.2-.21-.2m4.605-.027h-.339a.217.217,0,0,0-.2.095l-1.354,2.079a6.975,6.975,0,0,0-.65,1.212h0q.095-.433.122-.677V37.2c0-.149-.054-.2-.2-.2h-.352c-.149,0-.21.054-.21.2V41.1c0,.156.061.21.21.21H66.6a.223.223,0,0,0,.2-.108l1.4-2.12a7.448,7.448,0,0,0,.609-1.158h0c-.061.291-.095.515-.115.677s0,.4,0,.677v1.781c0,.156.054.21.2.21h.325c.149,0,.2-.054.2-.21V37.2c0-.149-.054-.2-.2-.2M71.4,40.6V39.464h1.205a.569.569,0,1,1,0,1.138H71.457m0-1.828V37.7H72.5a.535.535,0,1,1,0,1.07H71.423m1.131-1.808H70.868c-.149,0-.21.054-.21.2v3.908c0,.156.061.21.21.21h1.74c.826,0,1.354-.44,1.354-1.192a.989.989,0,0,0-.623-1.05h0a.968.968,0,0,0,.46-.914c0-.731-.46-1.138-1.246-1.138m5.052,0H75.188c-.156,0-.21.054-.21.2V41.1c0,.156.054.21.21.21h2.485c.149,0,.2-.054.2-.21v-.3c0-.149-.054-.2-.2-.2h-1.93V39.478h1.6c.156,0,.21-.054.21-.2V39c0-.156-.054-.21-.21-.21h-1.6V37.7h1.862c.149,0,.21-.054.21-.21v-.3c0-.149-.061-.2-.21-.2M79.638,39.1V37.7h.982a.7.7,0,1,1,0,1.4h-.989m1.056-2.133H79.076c-.149,0-.217.054-.217.2v3.908c0,.156.068.21.217.21h.345c.156,0,.21-.054.21-.21V39.809h1.056a1.409,1.409,0,1,0,0-2.817m14.12,0H92.423c-.156,0-.21.054-.21.2v1.3a5.668,5.668,0,0,1-.163,1.5,1.158,1.158,0,0,1-.183.366.826.826,0,0,1-.393.325.183.183,0,0,0-.1.278l.163.3a.136.136,0,0,0,.142.135.332.332,0,0,0,.129,0,1.578,1.578,0,0,0,.677-.515,1.808,1.808,0,0,0,.264-.494,6.278,6.278,0,0,0,.23-1.862V37.7h1.3v3.386c0,.156.054.21.2.21h.352c.156,0,.21-.054.21-.21V37.2c0-.149-.054-.2-.21-.2M96.92,40.6v-1.4h.989a.637.637,0,0,1,.677.677.677.677,0,0,1-.677.677H96.92m-.2-3.61h-.406c-.149,0-.21.054-.21.2v3.908c0,.156.061.21.21.21h1.619a1.409,1.409,0,1,0,0-2.817H96.866V37.2c0-.149-.054-.2-.2-.2m6.772,0h-.352c-.149,0-.2.054-.2.2v1.571h-1.8V37.2c0-.149-.054-.2-.21-.2h-.345c-.149,0-.21.054-.21.2V41.1c0,.156.061.21.21.21h.345c.156,0,.21-.054.21-.21V39.478h1.8V41.1c0,.156.054.21.2.21h.352c.149,0,.21-.054.21-.21V37.2c0-.149-.061-.2-.21-.2m2.181,3.61v-1.4h.989a.637.637,0,0,1,.677.677.677.677,0,0,1-.677.677h-.989m-.183-3.6h-.318c-.149,0-.21.054-.21.2v3.908c0,.156.061.21.21.21h1.612a1.409,1.409,0,1,0,0-2.817H105.67V37.2c0-.149-.054-.2-.21-.2m3.908,0h-.352c-.149,0-.2.054-.2.2V41.1c0,.156.054.21.2.21h.352c.149,0,.2-.054.2-.21V37.2c0-.149-.054-.2-.2-.2m4.063,0h-2.418c-.149,0-.21.054-.21.2V41.1c0,.156.061.21.21.21H113.5c.149,0,.2-.054.2-.21v-.3c0-.149-.054-.2-.2-.2h-1.93V39.478h1.578c.149,0,.2-.054.2-.2V39c0-.156-.054-.21-.2-.21h-1.578V37.7h1.862c.149,0,.21-.054.21-.21v-.3c0-.149-.061-.2-.21-.2m-55.782-.027h-.406c-.142,0-.176.061-.108.2l1.476,2.851-.528,1.056c-.068.142-.041.21.1.21H58.6c.223,0,.278-.034.345-.183l1.808-3.935c.054-.142,0-.2-.1-.2H60.3c-.264,0-.3,0-.372.183L59,39.18l-1-2.032c-.108-.183-.122-.183-.352-.183M88.3,39.674l.467-1.287a2.167,2.167,0,0,0,.135-.738h.041v.1a4.063,4.063,0,0,0,.142.677l.461,1.28H88.292m.8-2.709h-.318c-.149,0-.2,0-.257.169l-1.524,3.955q-.068.2.142.2h.278c.251,0,.332-.041.379-.183l.284-.786h1.679l.284.786c.047.142.129.183.379.183h.312q.217,0,.142-.2l-1.524-3.962C89.3,37.033,89.24,37,89.092,37m-4.409-.088a1.53,1.53,0,0,0-1.74,1.585V39.85a1.524,1.524,0,0,0,1.74,1.585,1.564,1.564,0,0,0,1.673-1.084.19.19,0,0,0-.135-.264l-.332-.115a.23.23,0,0,0-.108,0c-.068,0-.108.047-.156.149a.887.887,0,0,1-.935.569c-.623,0-.975-.312-.975-.874V38.462c0-.562.352-.867.975-.867a.88.88,0,0,1,.935.562.147.147,0,0,0,.156.149h.1l.339-.115a.19.19,0,0,0,.129-.271A1.558,1.558,0,0,0,84.69,36.9" transform="translate(-18.428 -11.725)" fill="#a8a8a8"/>
    <path id="Path_230" data-name="Path 230" d="M58.053,49.772v-1h.874a.515.515,0,0,1,.372.135.488.488,0,0,1,.135.359.494.494,0,0,1-.135.366.515.515,0,0,1-.372.135h-.874m1.619-2.939H57.6c-.122,0-.169.047-.169.169v3.19c0,.115.047.156.163.156h1.4a1.077,1.077,0,1,0,0-2.147h-.941v-.786h1.619c.122,0,.169-.047.169-.169V47c0-.122-.047-.169-.169-.169m3.8,0h-.3a.176.176,0,0,0-.163.081l-1.131,1.693a5.093,5.093,0,0,0-.494,1.009h0c.047-.244.081-.427.095-.569a4.559,4.559,0,0,0,0-.582V47c0-.122-.041-.169-.163-.169h-.284c-.122,0-.176.047-.176.169v3.176c0,.129.054.169.176.169h.284a.183.183,0,0,0,.169-.081l1.131-1.727a5.643,5.643,0,0,0,.5-.955h0c-.047.237-.074.42-.088.555a4.149,4.149,0,0,0,0,.576v1.449c0,.129.047.169.169.169h.284c.122,0,.163-.041.163-.169V47c0-.122-.041-.169-.163-.169m7.124,0h-.284c-.122,0-.169.047-.169.169v1.26h-1.5V47c0-.122-.047-.169-.169-.169H68.2c-.122,0-.169.047-.169.169v3.176c0,.129.047.169.169.169h.284c.122,0,.169-.041.169-.169V48.858h1.49v1.321c0,.129.047.169.169.169h.284c.122,0,.169-.041.169-.169V47c0-.122-.047-.169-.169-.169m3.284,0H71.916c-.122,0-.176.047-.176.169v3.176c0,.129.054.169.176.169h2.032c.122,0,.169-.041.169-.169v-.244c0-.122-.047-.163-.169-.163H72.362v-.914h1.287c.122,0,.169-.041.169-.169v-.244c0-.122-.047-.163-.169-.163H72.362v-.867h1.517c.122,0,.176-.047.176-.169V47c0-.122-.054-.169-.176-.169m8.059,0h-2.33c-.122,0-.169.047-.169.169v.244c0,.122.047.169.169.169h.853v2.763c0,.129.041.169.169.169h.284c.122,0,.169-.041.169-.169V47.415h.853c.122,0,.163-.047.163-.169V47c0-.122-.041-.169-.163-.169m3.007,0H82.981c-.122,0-.169.047-.169.169v3.176c0,.129.047.169.169.169h2.032c.129,0,.169-.041.169-.169v-.244c0-.122-.041-.163-.169-.163H83.435v-.914h1.28c.122,0,.169-.041.169-.169v-.244c0-.122-.047-.163-.169-.163h-1.28v-.867h1.51c.129,0,.176-.047.176-.169V47c0-.122-.047-.169-.176-.169m3.65,0H88.25c-.183,0-.217,0-.312.142l-.677,1.09-.677-1.09c-.095-.122-.129-.142-.325-.142h-.332c-.122,0-.149.081-.088.156l1.05,1.564L85.8,50.172a.106.106,0,0,0,.088.176H86.2c.2,0,.237,0,.332-.149l.725-1.165L88.02,50.2c.081.135.129.149.332.149H88.7c.122,0,.156-.088.081-.176l-1.165-1.619,1.056-1.564a.092.092,0,0,0-.074-.156m3.386,0h-.3c-.122,0-.169.047-.169.169v1.26H90.044V47c0-.122-.047-.169-.169-.169h-.284c-.122,0-.169.047-.169.169v3.176c0,.129.047.169.169.169h.284c.122,0,.169-.041.169-.169V48.858h1.463v1.321c0,.129.047.169.169.169h.284c.122,0,.169-.041.169-.169V47c0-.122-.047-.169-.169-.169m7.28,0H97.3c-.129,0-.176.047-.176.169v1.056A4.74,4.74,0,0,1,97,49.271a.819.819,0,0,1-.149.3.677.677,0,0,1-.318.271.142.142,0,0,0-.081.223l.129.251a.114.114,0,0,0,.122.108.379.379,0,0,0,.1,0,1.253,1.253,0,0,0,.535-.42,1.436,1.436,0,0,0,.21-.406,4.924,4.924,0,0,0,.223-1.537v-.677h1.05v2.763c0,.129.047.169.169.169h.284c.122,0,.169-.041.169-.169V47c0-.122-.047-.169-.169-.169m6.664,0h-1.815c-.122,0-.169.047-.169.169v3.176c0,.129.047.169.169.169h.284c.122,0,.169-.041.169-.169V47.415h1.354c.129,0,.169-.047.169-.169V47c0-.122-.041-.169-.169-.169m3.488,0h-.3a.176.176,0,0,0-.163.081l-1.111,1.693a5.092,5.092,0,0,0-.515.982h0c.047-.244.081-.427.095-.569a4.556,4.556,0,0,0,0-.582V47c0-.122-.041-.169-.163-.169h-.284c-.122,0-.176.047-.176.169v3.176c0,.129.054.169.176.169h.271a.183.183,0,0,0,.169-.081l1.131-1.727a5.64,5.64,0,0,0,.5-.941h0a4.518,4.518,0,0,0-.095.555,4.144,4.144,0,0,0,0,.576v1.449c0,.129.047.169.169.169h.284c.122,0,.163-.041.163-.169V47c0-.122-.041-.169-.163-.169m3.752,0h-.291a.176.176,0,0,0-.2.074L111.559,48.6a5.093,5.093,0,0,0-.515.982h0c.047-.244.081-.427.095-.569a4.556,4.556,0,0,0,0-.582V47c0-.122-.041-.169-.169-.169h-.278c-.129,0-.176.047-.176.169v3.176c0,.129.047.169.176.169h.284a.183.183,0,0,0,.169-.081l1.131-1.727a5.1,5.1,0,0,0,.494-.941h0c-.047.237-.074.42-.088.555a4.151,4.151,0,0,0,0,.576v1.449c0,.129.047.169.169.169h.278c.129,0,.169-.041.169-.169V47c0-.122-.041-.169-.169-.169m-47.168-.074a1.354,1.354,0,0,0-1.429.826.149.149,0,0,0,.1.217l.271.095h.088c.061,0,.095-.041.129-.122.115-.318.332-.454.813-.454s.6.156.6.481a.427.427,0,0,1-.474.461h-.616c-.122,0-.169.047-.169.169v.223c0,.122.047.169.169.169h.677a.447.447,0,0,1,.488.494c0,.339-.217.5-.677.5s-.772-.142-.887-.46a.112.112,0,0,0-.122-.115h-.088l-.271.095a.156.156,0,0,0-.108.217,1.354,1.354,0,0,0,1.476.833c.874,0,1.307-.386,1.307-1.056a.833.833,0,0,0-.508-.847.792.792,0,0,0,.393-.752c0-.637-.42-1.009-1.192-1.009m10.212,0a1.239,1.239,0,0,0-1.4,1.321v1.084a1.239,1.239,0,0,0,1.415,1.293,1.273,1.273,0,0,0,1.354-.833.156.156,0,0,0-.115-.217l-.264-.095h-.088c-.061,0-.095.041-.129.122a.711.711,0,0,1-.758.461c-.508,0-.792-.251-.792-.677V48.038c0-.454.284-.677.792-.677a.711.711,0,0,1,.758.454q.041.122.122.122h.088l.271-.095a.149.149,0,0,0,.108-.217,1.266,1.266,0,0,0-1.354-.826M94.392,49.88c-.508,0-.792-.244-.792-.677V48.045c0-.46.284-.677.792-.677s.792.251.792.677v1.09c0,.454-.284.677-.792.677m0-3.081a1.239,1.239,0,0,0-1.361,1.321v1.077a1.415,1.415,0,0,0,2.824,0V48.052a1.239,1.239,0,0,0-1.409-1.293m7.206,3.081c-.515,0-.792-.244-.792-.677V48.045c0-.46.278-.677.792-.677s.792.251.792.677v1.09c0,.454-.284.677-.792.677m0-3.081a1.239,1.239,0,0,0-1.415,1.293V49.1a1.415,1.415,0,0,0,2.824,0v-1.05a1.239,1.239,0,0,0-1.409-1.293" transform="translate(-18.534 -14.895)" fill="#a8a8a8"/>
    <path id="Path_231" data-name="Path 231" d="M98.374.054c-.914,0-1.2.312-1.2,1.2V3.819c0,.914.284,1.226,1.2,1.226h4.253V19.118c0,.887.284,1.2,1.2,1.2h3.224c.914,0,1.226-.312,1.226-1.2V5.045H112.5c.914,0,1.226-.312,1.226-1.226V1.253c0-.887-.312-1.2-1.226-1.2ZM89.469,14.011c0,1.111-.6,1.679-1.828,1.679H84.329V12.352H87.64C88.866,12.352,89.469,12.867,89.469,14.011Zm-.63-7.795c0,1.029-.569,1.544-1.74,1.544h-2.77V4.619H87.1C88.27,4.619,88.839,5.16,88.839,6.217ZM79.907,0c-.914,0-1.226.312-1.226,1.226V19.118c0,.887.312,1.2,1.226,1.2h8.452a8.127,8.127,0,0,0,5.079-1.483,4.984,4.984,0,0,0,1.937-4.165c0-2.431-.968-4.063-2.878-4.91V9.643a4.74,4.74,0,0,0,2.032-4.2c0-3.454-2.336-5.418-6.3-5.418ZM63.3,1.253c0-.887-.325-1.2-1.233-1.2h-3.23c-.914,0-1.2.312-1.2,1.2V12.867c0,4.883,3.088,7.876,8.594,7.876s8.621-2.993,8.621-7.876V1.253c0-.887-.318-1.2-1.233-1.2H70.4c-.914,0-1.2.312-1.2,1.2V13.124c0,1.74-1,2.628-2.966,2.628S63.3,14.9,63.3,13.124Z" transform="translate(-18.602 0.184)" fill="#515151"/>
  </g>
</svg>
