<svg width="100px" height="78px" viewBox="0 0 100 78" fill="none" xmlns="http://www.w3.org/2000/svg">
<path fill-rule="evenodd" clip-rule="evenodd" d="M59.6668 49.0263C59.6668 50.0888 60.1204 50.6453 60.3723 50.8983C60.4731 50.8983 60.4731 51.0501 60.4731 51.1512C60.4731 51.4042 60.2716 51.6066 60.0196 51.6066H50.4951C50.2431 51.6066 50.0415 51.4042 50.0415 51.1512C50.0415 51.0501 50.0415 50.8983 50.1423 50.8983C50.3943 50.6453 50.8478 50.0888 50.8478 49.0263L50.747 36.7823C50.747 35.9728 50.999 35.2645 51.5533 34.7586L59.6668 26.6128C60.5739 25.7021 62.0354 25.7021 62.9425 26.6128C63.8496 27.5235 63.8496 28.9908 62.9425 29.9015L58.2558 34.6068C58.155 34.708 58.155 34.8597 58.2558 34.9609C58.407 35.0621 58.5078 35.1127 58.6085 34.9609L63.648 30.0027C64.0007 29.5473 64.2023 28.9402 64.2023 28.2318C64.2023 27.1694 63.5976 26.2081 62.6905 25.7527L62.1361 25.3985C61.985 25.1962 61.7834 24.9432 61.7834 24.6902V17.0504C61.7834 15.4314 63.0936 14.1159 64.7063 14.1159C66.3189 14.1159 67.6291 15.4314 67.6291 17.0504V33.1901C67.6291 33.9996 67.2764 34.8092 66.722 35.3151L60.5235 41.4877C59.9692 42.0442 59.6164 42.7525 59.6164 43.6126L59.6668 49.0263ZM35.3768 49.0263C35.3768 50.0888 35.024 50.6453 34.772 50.8983C34.6712 50.8983 34.5704 51.0501 34.5704 51.1512C34.5704 51.4042 34.772 51.6066 35.024 51.6066H44.5485C44.8005 51.6066 45.0021 51.4042 45.0021 51.1512C45.0021 51.0501 45.0021 50.8983 44.9013 50.8983C44.6493 50.6453 44.1958 50.0888 44.1958 49.0263L44.3973 36.7823C44.3973 35.9728 44.0446 35.2645 43.4902 34.7586L35.3768 26.6128C34.4697 25.7021 33.0082 25.7021 32.1011 26.6128C31.194 27.5235 31.194 28.9908 32.1011 29.9015L36.7878 34.6068C36.8886 34.708 36.8886 34.8597 36.7878 34.9609C36.687 35.0621 36.5358 35.1127 36.435 34.9609L31.4964 30.0027C31.0932 29.4967 30.8917 28.8896 30.8917 28.2318C30.8917 27.1694 31.4964 26.2081 32.4035 25.7527L32.9578 25.3985C33.2098 25.1962 33.3106 24.9432 33.3106 24.6902V17.0504C33.3106 15.4314 32.0003 14.1159 30.3877 14.1159C28.7751 14.1159 27.4648 15.4314 27.4648 17.0504V33.1901C27.4648 33.9996 27.8176 34.8092 28.3719 35.3151L34.5704 41.4877C35.1248 42.0442 35.3768 42.7525 35.3768 43.6126V49.0263ZM52.1581 0C54.2746 0 56.0384 1.77081 56.0384 3.89579C56.0384 6.02077 54.2746 7.69039 52.1581 7.69039C50.0415 7.69039 48.2777 6.02077 48.2777 3.89579C48.2777 1.77081 50.0415 0 52.1581 0Z" fill="#125786"/>
<path fill-rule="evenodd" clip-rule="evenodd" d="M43.9438 10.3719L50.2935 4.70531C50.3943 4.60412 50.5455 4.50293 50.6463 4.50293C50.999 4.50293 51.251 4.7559 51.251 5.11007C51.251 5.21126 51.1502 5.36304 51.0494 5.46423L44.4982 11.3332L43.9438 10.3719Z" fill="white"/>
<path fill-rule="evenodd" clip-rule="evenodd" d="M50.1927 4.50292L43.6415 10.3719L44.4478 11.6874L51.1502 5.66659C51.3014 5.46422 51.4022 5.31243 51.4022 5.11005C51.4022 4.6547 51.0494 4.30054 50.5959 4.30054C50.4951 4.35113 50.2935 4.45232 50.1927 4.50292ZM50.4951 4.80648C50.4951 4.80648 50.5959 4.70529 50.6463 4.70529C50.8983 4.70529 51.0998 4.90767 51.0998 5.16065C51.0998 5.26184 50.999 5.36303 50.9487 5.41362C50.9487 5.41362 45.5565 10.2201 44.599 11.0802C44.4982 10.8778 44.347 10.6249 44.2462 10.4731C44.3974 10.2707 50.4951 4.80648 50.4951 4.80648Z" fill="#125786"/>
<path fill-rule="evenodd" clip-rule="evenodd" d="M44.9014 5.51483C47.5723 5.51483 49.6888 7.741 49.6888 10.3213C49.6888 13.0028 47.5723 15.1278 44.9014 15.1278C42.2305 15.1278 40.1139 13.0028 40.1139 10.3213C40.1643 7.6904 42.2808 5.51483 44.9014 5.51483Z" fill="#125786"/>
<path fill-rule="evenodd" clip-rule="evenodd" d="M55.4337 16.0385L46.7659 11.9404C46.6651 11.8392 46.5139 11.738 46.5139 11.5862C46.3123 11.3332 46.5139 10.8779 46.7659 10.7767C46.9675 10.6755 47.1186 10.6755 47.3202 10.7767L56.1392 14.9255L55.4337 16.0385Z" fill="white"/>
<path fill-rule="evenodd" clip-rule="evenodd" d="M46.766 10.6249C46.514 10.7261 46.4132 10.8779 46.3124 11.0803C46.2116 11.2827 46.2116 11.5356 46.3124 11.6874C46.4132 11.8392 46.514 12.0416 46.6652 12.1428L55.4338 16.2409L56.3913 14.9255L47.3707 10.6249C47.1691 10.5743 46.9675 10.5743 46.766 10.6249ZM46.8667 11.7886C46.766 11.6874 46.6652 11.5862 46.6652 11.5356C46.5644 11.5356 46.5644 11.4344 46.5644 11.3332C46.5644 11.3332 46.5644 11.2321 46.6652 11.2321C46.6652 11.0297 46.766 10.9791 46.8667 10.9791C46.9675 10.8779 47.1187 10.8779 47.2195 10.9791C47.2195 10.9791 54.5267 14.4195 55.7865 15.0773C55.6858 15.2796 55.4338 15.6338 55.333 15.7856C55.081 15.6338 46.8667 11.7886 46.8667 11.7886Z" fill="#125786"/>
<path fill-rule="evenodd" clip-rule="evenodd" d="M55.081 9.56238C58.1047 9.56238 60.574 12.0415 60.574 15.1278C60.574 18.1635 58.1047 20.6426 55.081 20.6426C52.0069 20.6426 49.5376 18.1635 49.5376 15.1278C49.4872 12.0921 51.9566 9.61297 55.081 9.56238C55.0306 9.56238 55.0306 9.56238 55.081 9.56238Z" fill="#125786"/>
<path fill-rule="evenodd" clip-rule="evenodd" d="M44.6494 23.5265L52.5109 16.4433C52.7125 16.3421 52.8637 16.2409 53.0653 16.2409C53.418 16.2409 53.67 16.5951 53.67 16.9492C53.67 17.1516 53.5692 17.3034 53.5188 17.5058L45.3549 24.6396L44.6494 23.5265Z" fill="white"/>
<path fill-rule="evenodd" clip-rule="evenodd" d="M52.4102 16.2409L44.3975 23.5266L45.355 25.0444L53.5692 17.607C53.7204 17.5058 53.8212 17.2528 53.8212 16.9998C53.8212 16.5445 53.4684 16.0891 53.0149 16.0891C52.7629 16.0385 52.6117 16.1397 52.4102 16.2409ZM52.6621 16.5951C52.7629 16.4939 52.8133 16.3927 53.0149 16.3927C53.2669 16.3927 53.4684 16.6457 53.4684 16.9493C53.4684 17.1516 53.3677 17.2022 53.3173 17.3034C53.3173 17.3034 46.514 23.4254 45.4557 24.3867C45.3046 24.1337 45.0022 23.6783 44.9014 23.476C45.103 23.3242 52.6621 16.5951 52.6621 16.5951Z" fill="#125786"/>
<path fill-rule="evenodd" clip-rule="evenodd" d="M45.7076 17.4045C49.084 17.4045 51.8053 20.0861 51.8053 23.4253C51.8053 26.7646 49.084 29.5473 45.7076 29.5473C42.432 29.5473 39.7107 26.8152 39.7107 23.4253C39.7107 20.0355 42.432 17.4045 45.7076 17.4045Z" fill="#125786"/>
<path fill-rule="evenodd" clip-rule="evenodd" d="M49.3361 21.5533L50.0416 20.9968C49.6889 20.3896 49.2353 19.8331 48.7314 19.4789L48.1266 20.0861C48.6306 20.4908 49.0841 20.9462 49.3361 21.5533ZM58.0039 13.2052L58.6087 12.7498C58.3567 12.1933 57.9031 11.8391 57.4496 11.485L56.996 12.0415C57.3488 12.3451 57.7016 12.6992 58.0039 13.2052ZM47.7235 8.80344L48.2778 8.44928C48.0258 7.99393 47.6731 7.63977 47.2195 7.2856L46.766 7.84215C47.1188 8.09512 47.4715 8.39869 47.7235 8.80344ZM54.174 2.73208L54.7283 2.37792C54.4763 1.92257 54.174 1.5684 53.8212 1.31543L53.3676 1.77078C53.7204 2.02376 54.0228 2.37792 54.174 2.73208Z" fill="white"/>
<path fill-rule="evenodd" clip-rule="evenodd" d="M3.37642 59.2464V56.9191H4.08194C4.88825 56.9191 5.24101 57.2732 5.24101 58.0828C5.24101 58.8923 4.88825 59.2464 4.08194 59.2464H3.37642ZM1.20946 64.2047H3.42682V60.4101H3.67879L5.54338 64.2047H8.11349L5.79535 60.1065C6.85363 59.8536 7.45836 59.0441 7.45836 57.7792C7.45836 56.9697 7.20639 56.3625 6.55126 56.0084C6.09771 55.7554 5.59377 55.6542 4.33391 55.6542H1.20946V64.2047ZM11.9435 60.3089H10.2804V60.1065C10.2804 59.297 10.5324 58.8417 11.0868 58.8417C11.6915 58.8417 11.9939 59.1958 11.9939 60.0054V60.3089H11.9435ZM13.7073 62.7881C13.1025 62.8893 12.649 62.8893 12.0442 62.8893C10.734 62.8893 10.1797 62.5351 10.2804 61.5738H14.0096C14.0096 60.3089 14.0096 59.9042 13.808 59.55C13.4553 58.3863 12.5482 57.8804 11.2379 57.8804C9.27256 57.8804 8.06309 59.1452 8.06309 61.169C8.06309 62.4339 8.41585 63.1422 9.12138 63.6482C9.67571 64.1035 10.4316 64.3565 11.2379 64.3565C11.7923 64.3565 12.397 64.2553 13.7073 64.0023V62.7881ZM19.2002 59.3476C18.6963 59.1958 18.142 59.0947 17.5876 59.0947C16.9829 59.0947 16.7813 59.2464 16.7813 59.55C16.7813 59.803 16.8821 60.0054 17.386 60.1571L18.1924 60.4101C19.0995 60.7643 19.5026 61.3714 19.5026 62.2821C19.5026 63.547 18.5451 64.3059 16.8317 64.3059C16.227 64.3059 15.5719 64.2047 14.6144 63.9517V62.7881C15.2191 62.9398 15.8742 62.9399 16.4789 62.9399C17.0837 62.9399 17.386 62.8387 17.386 62.4845C17.386 62.2315 17.1845 62.1303 16.7813 61.928L15.975 61.5738C15.0679 61.2196 14.6648 60.6125 14.6648 59.7018C14.6648 58.4369 15.5719 57.7286 17.1341 57.7286C17.6884 57.7286 18.1924 57.8298 19.1498 58.0828L19.2002 59.3476ZM22.7278 59.3982C22.879 59.297 23.0806 59.297 23.2822 59.297C24.1893 59.297 24.5924 59.9042 24.5924 60.9667C24.5924 62.2315 24.0381 62.8387 23.0806 62.8387H22.7278V59.3982ZM20.5105 57.931V66.8862H22.7278V64.0529C23.1814 64.2047 23.5342 64.3059 23.9877 64.3059C25.6507 64.3059 26.9106 62.8893 26.9106 60.9161C26.9106 58.9429 25.9531 57.8298 24.4413 57.8298C23.9877 57.8298 23.6349 57.931 22.6775 58.2851V57.931H20.5105ZM30.8413 59.0441C31.5469 59.0441 31.7988 59.6006 31.7988 61.0678C31.7988 62.3833 31.5469 63.041 30.8413 63.041C30.035 63.041 29.7831 62.4845 29.7831 61.0173C29.7831 59.6006 30.0854 59.0441 30.8413 59.0441ZM30.8413 57.7286C28.7248 57.7286 27.4649 58.9935 27.4649 61.169C27.4649 63.1422 28.7248 64.3565 30.7405 64.3565C32.8571 64.3565 34.117 63.041 34.117 60.9161C34.117 58.8923 32.9075 57.7286 30.8413 57.7286ZM35.1249 57.931H37.2414V58.2851H37.443C38.5013 57.8298 38.854 57.7286 39.4084 57.7286C39.9627 57.7286 40.5674 57.9816 40.8194 58.3357C41.1722 58.7911 41.273 59.1452 41.273 60.0054V64.1541H39.0556V60.2077C39.0556 59.6006 38.8036 59.297 38.0981 59.297C37.8965 59.297 37.7454 59.297 37.3926 59.3982V64.2047H35.1753V57.931H35.1249ZM46.6652 59.3476C46.1108 59.1453 45.5061 59.0947 45.0021 59.0947C44.4982 59.0947 44.1958 59.2464 44.1958 59.55C44.1958 59.803 44.3974 60.0054 44.9014 60.1571L45.7077 60.4101C46.6148 60.7643 46.9675 61.3714 46.9675 62.2821C46.9675 63.547 46.01 64.3059 44.2966 64.3059C43.6919 64.3059 43.1376 64.2047 42.1801 63.9517V62.7881C42.7848 62.9398 43.3391 62.9399 43.9439 62.9399C44.5486 62.9399 44.851 62.8387 44.851 62.4845C44.851 62.2315 44.7502 62.1303 44.2966 61.928L43.4903 61.5738C42.5328 61.2196 42.1801 60.6125 42.1801 59.7018C42.1801 58.4369 43.0872 57.7286 44.5486 57.7286C45.1533 57.7286 45.6069 57.8298 46.6652 58.0828V59.3476ZM47.925 57.931H50.1424V64.2047H47.925V57.931ZM50.2936 56.4131C50.2936 57.1215 50.0416 57.3744 49.0337 57.3744C48.0762 57.3744 47.7234 57.1215 47.7234 56.4131C47.7234 55.7048 48.0762 55.5024 49.0337 55.5024C50.0416 55.5024 50.2936 55.7048 50.2936 56.4131ZM53.7204 59.3982C53.9219 59.297 54.0731 59.297 54.2747 59.297C55.1818 59.297 55.585 59.9042 55.585 60.9667C55.585 62.2315 55.0306 62.8387 54.0731 62.8387H53.7204V59.3982ZM51.5534 63.8506C52.8133 64.1035 53.5692 64.3059 54.2747 64.3059C56.4921 64.3059 57.8023 62.8893 57.8023 60.7643C57.8023 58.9935 56.8448 57.8298 55.333 57.8298C54.9802 57.8298 54.6275 57.931 53.7204 58.2851V54.8447H51.503V63.8506H51.5534ZM58.8606 54.7941H61.0779V64.2047H58.8606V54.7941ZM65.8654 60.3089H64.2024V60.1065C64.2024 59.297 64.5551 58.8417 65.1095 58.8417C65.6638 58.8417 65.9158 59.1958 65.9158 60.0054V60.3089H65.8654ZM67.6796 62.7881C67.0749 62.8893 66.6213 62.8893 66.0166 62.8893C64.7063 62.8893 64.152 62.5351 64.152 61.5738H67.9316C67.9316 60.3089 67.9316 59.9042 67.7804 59.55C67.4276 58.3863 66.5205 57.8804 65.1095 57.8804C63.1441 57.8804 62.0354 59.1452 62.0354 61.169C62.0354 62.4339 62.3882 63.1422 62.9929 63.6482C63.5473 64.1035 64.3032 64.3565 65.2103 64.3565C65.7646 64.3565 66.2685 64.2553 67.6796 64.0023V62.7881ZM78.3128 57.2732C77.8593 57.1721 77.4057 57.1721 77.0025 57.1721C74.9868 57.1721 74.0797 57.9816 74.0797 60.0054C74.0797 61.7762 74.9868 62.6869 76.801 62.6869C77.2545 62.6869 77.7585 62.5857 78.3128 62.5351V63.8506C77.0025 64.2047 76.3474 64.3059 75.8435 64.3059C73.1726 64.3059 71.7615 62.8893 71.7615 60.1571C71.7615 57.3238 73.4246 55.6542 76.0955 55.6542C76.6498 55.6542 77.1537 55.7554 78.3128 56.0084V57.2732ZM82.5459 62.7881C82.3947 62.8893 82.0924 62.8893 81.9412 62.8893C81.3365 62.8893 81.0341 62.6363 81.0341 62.0797C81.0341 61.4726 81.2861 61.2702 82.5459 61.2702V62.7881ZM84.5617 64.2047V60.1065C84.5617 58.4369 83.957 57.7792 82.1932 57.7792C81.5884 57.7792 80.7821 57.8804 79.4719 58.1334V59.297C80.0766 59.1958 80.7821 59.0947 81.4876 59.0947C82.1932 59.0947 82.5459 59.297 82.5459 59.803V60.056C81.9412 60.056 81.4876 60.1571 81.0341 60.1571C79.5223 60.3089 78.9175 60.9667 78.9175 62.1809C78.9175 63.4458 79.623 64.2047 80.7821 64.2047C81.3365 64.2047 81.5884 64.1035 82.5459 63.6482V64.1035H84.5617V64.2047ZM88.0389 57.931V58.3863C89.198 57.931 89.2988 57.8298 89.6515 57.8298C89.9035 57.8298 90.1051 57.931 90.357 57.9816V59.6512C89.9035 59.4488 89.45 59.3982 88.946 59.3982C88.694 59.3982 88.3413 59.4994 88.1397 59.4994V64.2047H85.9223V57.931H88.0389ZM96.3036 63.9517C94.9933 64.2047 94.439 64.3059 93.935 64.3059C93.0279 64.3059 92.272 64.0529 91.7177 63.5976C91.0122 63.041 90.7602 62.3327 90.7602 61.1184C90.7602 59.0947 91.9193 57.8298 93.8343 57.8298C95.1445 57.8298 96.1524 58.3863 96.5052 59.4994C96.6059 59.8536 96.6563 60.3089 96.6563 61.5232H92.8768C92.8768 62.4845 93.4311 62.8387 94.7414 62.8387C95.2957 62.8387 95.7996 62.8387 96.354 62.7375L96.3036 63.9517ZM94.5398 60.3089V60.056C94.5398 59.2464 94.2878 58.8923 93.7335 58.8923C93.1287 58.8923 92.8264 59.3476 92.8264 60.1571V60.3595L94.5398 60.3089ZM5.44259 69.9725C4.98904 69.8207 4.38431 69.6184 3.82997 69.6184C2.06617 69.6184 0.806309 71.1362 0.806309 73.0082C0.806309 73.8177 1.36065 74.779 2.6709 74.779C3.22524 74.779 3.578 74.6778 3.93076 74.526L4.38431 72.1481H5.29141L4.68667 75.1838C4.08194 75.4367 3.27563 75.5379 2.6709 75.5379C0.806309 75.5379 0 74.5766 0 73.0588C0 70.6808 1.7638 68.9606 4.08194 68.9606C4.68667 68.9606 5.24101 69.0618 5.74495 69.2136L5.44259 69.9725ZM9.67571 72.3505C9.67571 73.7671 8.8694 74.7284 8.0127 74.7284C7.30718 74.7284 7.05521 74.2731 7.05521 73.6659C7.05521 72.4011 7.65994 71.288 8.71822 71.288C9.42374 71.288 9.67571 71.6421 9.67571 72.3505ZM10.5324 72.2999C10.5324 71.3386 10.0789 70.6302 8.8694 70.6302C7.25678 70.6302 6.14811 71.9457 6.14811 73.8177C6.14811 74.8802 6.70245 75.4873 7.81112 75.4873C9.22216 75.4873 10.5324 74.2225 10.5324 72.2999ZM14.7655 72.3505C14.7655 73.7671 13.9592 74.7284 13.1025 74.7284C12.2962 74.7284 12.0442 74.2731 12.0442 73.6659C12.0442 72.4011 12.7498 71.288 13.808 71.288C14.4128 71.288 14.7655 71.6421 14.7655 72.3505ZM15.6726 72.2999C15.6726 71.3386 15.1183 70.6302 13.9088 70.6302C12.397 70.6302 11.1875 71.9457 11.1875 73.8177C11.1875 74.8802 11.7923 75.4873 12.9513 75.4873C14.3624 75.4873 15.6726 74.2225 15.6726 72.2999ZM19.7546 71.3892L19.6538 71.7433C19.4522 72.907 18.4947 74.779 17.638 74.779C17.386 74.779 17.1845 74.526 17.1845 73.8683C17.1845 72.7046 17.7388 71.288 19.1498 71.288C19.4018 71.288 19.553 71.288 19.7546 71.3892ZM21.1656 68.4547H20.2585L19.9058 70.6808C19.6538 70.5796 19.4522 70.5796 19.2002 70.5796C17.1845 70.5796 16.2774 72.2493 16.2774 74.0201C16.2774 74.9814 16.6301 75.4367 17.3357 75.4367C18.4947 75.4367 19.2002 74.1719 19.553 73.413V73.5141C19.3514 74.1213 19.2002 74.7284 18.9987 75.3861H19.805C19.9058 75.032 20.0066 74.3237 20.1577 73.7165L21.1656 68.4547ZM28.4728 69.8713C28.0193 69.7701 27.5657 69.7195 27.1625 69.7195C25.298 69.7195 24.4916 71.4904 24.4916 73.16C24.4916 74.0707 24.9452 74.6778 26.1547 74.6778C26.709 74.6778 27.1122 74.5766 27.5657 74.4248V75.2344C27.0114 75.3861 26.4066 75.4873 25.9027 75.4873C24.0381 75.4873 23.5846 74.4248 23.5846 73.2612C23.5846 71.035 24.8444 68.91 27.2129 68.91C27.7673 68.91 28.1704 69.0112 28.624 69.0618L28.4728 69.8713ZM32.5547 75.3861H31.6476L32.2524 72.3505C32.3532 71.6421 32.2524 71.288 31.7988 71.288C30.8917 71.288 29.9342 73.16 29.7831 74.3237L29.5815 75.3861H28.6744L29.9846 68.4547H30.7909L30.4382 70.6808C30.3374 71.035 30.2366 71.4904 29.8838 72.5528C30.3374 71.5915 31.0429 70.5796 32.0004 70.5796C32.9075 70.5796 33.2603 71.1868 33.0587 72.1987L32.5547 75.3861ZM37.2414 71.7433C37.2414 72.3505 36.5359 72.654 35.1249 72.7046C35.3264 71.8951 35.8304 71.1868 36.5359 71.1868C36.939 71.2374 37.2414 71.3892 37.2414 71.7433ZM37.9973 71.6421C37.9973 71.0856 37.6446 70.5796 36.5863 70.5796C35.0745 70.5796 34.0162 72.0975 34.0162 73.9695C34.0162 75.032 34.5705 75.4873 35.6288 75.4873C36.2335 75.4873 36.7879 75.3861 37.2918 75.2344V74.526C36.8887 74.6778 36.4351 74.779 35.9816 74.779C35.1752 74.779 34.9233 74.6272 34.9233 73.8683C34.9233 73.6659 34.9233 73.4129 35.0241 73.3118C36.939 73.2612 37.9973 72.7046 37.9973 71.6421ZM45.1533 75.3861H44.2966L44.9014 72.3505C45.0021 71.6421 44.9014 71.288 44.4478 71.288C43.6415 71.288 42.684 73.0588 42.432 74.3237L42.2808 75.3861H41.4745L42.0289 72.3505C42.2305 71.6421 42.1297 71.288 41.6761 71.288C40.8698 71.288 39.9123 73.0588 39.6603 74.3237L39.5092 75.3861H38.6021L39.1564 72.907C39.2572 72.1987 39.4084 71.3892 39.5092 70.6808H40.4163C40.3155 71.035 40.2147 71.5915 39.8619 72.5528C40.3155 71.5915 41.021 70.5796 41.9785 70.5796C42.5832 70.5796 42.936 70.9338 42.936 71.4904C42.936 71.8445 42.8352 72.0975 42.684 72.5528H42.7848C43.1376 71.5915 43.9439 70.5796 44.9014 70.5796C45.7077 70.5796 46.0604 71.1868 45.8588 72.1987L45.1533 75.3861ZM48.2778 69.8713C47.925 69.8713 47.7234 69.6184 47.7234 69.3148C47.7234 68.9606 47.9754 68.7582 48.3282 68.7582C48.5801 68.7582 48.8825 68.9606 48.8825 69.3148C48.7817 69.6184 48.5298 69.8713 48.2778 69.8713ZM47.5723 75.3861H46.6652L47.6227 70.6808H48.429L47.5723 75.3861ZM51.9566 71.3892C51.7046 71.288 51.4022 71.2374 51.251 71.2374C50.6463 71.2374 50.2936 71.5915 50.2936 71.9457C50.2936 72.7552 51.7046 72.907 51.7046 73.9695C51.7046 74.779 50.9991 75.4873 49.6888 75.4873C49.4368 75.4873 49.1345 75.4873 48.8825 75.3861L49.0337 74.6778C49.2857 74.779 49.588 74.779 49.84 74.779C50.3943 74.779 50.7975 74.526 50.7975 74.0707C50.7975 73.2612 49.3865 73.16 49.3865 72.0469C49.3865 71.2374 49.9912 70.6302 51.251 70.6302C51.6038 70.6302 51.8558 70.6302 52.0574 70.7314L51.9566 71.3892ZM55.7865 71.288H54.5267L53.9723 73.7671C53.8715 74.4754 53.9723 74.7284 54.4259 74.7284C54.6779 74.7284 54.8794 74.6272 55.1314 74.6272L55.0306 75.3355C54.7786 75.4367 54.4259 75.4367 54.1235 75.4367C53.166 75.4367 52.8637 74.9814 53.166 73.9189L53.6196 71.2374H52.6621L52.8133 70.6302H53.7708L54.0227 69.1124L54.9298 68.9606L54.5771 70.6302H55.8873L55.7865 71.288ZM59.2133 71.3892C58.3062 71.2374 57.4495 73.0082 57.1976 74.3237L57.0464 75.3861H56.1393L57.0464 70.6808H57.9535C57.8527 71.1362 57.7015 71.5915 57.3992 72.4517C57.9535 71.288 58.5582 70.4279 59.4149 70.5796L59.2133 71.3892ZM60.2716 77.0052C59.7173 77.5617 59.2133 77.8147 58.6086 77.8147H58.0039L58.1047 77.0052C58.3063 77.1064 58.5582 77.1064 58.7094 77.1064C59.0622 77.1064 59.4149 76.9546 59.7677 76.5498C60.1204 76.0945 60.322 75.7403 60.322 75.032C60.322 73.7671 60.0701 72.1987 59.6165 70.6808H60.574C60.826 71.9457 61.1283 73.3624 61.1283 74.4248C61.1283 74.6272 61.0275 74.779 61.0275 74.9814C61.7331 73.6659 62.4386 72.2999 63.1441 70.5291L63.9504 70.782C62.6906 73.6153 61.5315 75.7403 60.2716 77.0052ZM69.5442 71.3892L69.4434 71.7433C69.2922 72.907 68.2843 74.779 67.4276 74.779C67.1756 74.779 66.8733 74.526 66.8733 73.8683C66.8733 72.7046 67.478 71.288 68.8387 71.288C69.0906 71.288 69.393 71.288 69.5442 71.3892ZM70.5521 70.782C70.0985 70.6808 69.5946 70.6302 69.0402 70.6302C67.0245 70.6302 66.1174 72.2999 66.1174 74.0707C66.1174 75.032 66.4701 75.4873 67.1756 75.4873C68.2339 75.4873 69.0402 74.2225 69.2922 73.4635L69.393 73.5647C69.0402 74.3742 68.8387 75.0826 68.7883 75.4367H69.6954C69.8465 74.2225 69.9977 73.3624 70.5521 70.782ZM74.2309 71.288H73.0214L72.5678 73.7671C72.3663 74.4754 72.4671 74.7284 72.9206 74.7284C73.1726 74.7284 73.4749 74.6272 73.6261 74.6272L73.5253 75.3861C73.2734 75.4873 72.9206 75.4873 72.6182 75.4873C71.6607 75.4873 71.3584 75.032 71.6608 73.9695L72.1143 71.288H71.2072L71.308 70.6808H72.2655L72.5174 69.163L73.4246 69.0112L73.0718 70.6808H74.382L74.2309 71.288ZM82.7979 75.3861H81.7396L81.2861 71.1362V69.9725C81.1853 70.3267 81.0341 70.6808 80.8325 71.035L78.8671 75.3861H77.8089L77.3553 69.0112H78.2624L78.5144 73.16V74.4248C78.6656 73.9695 78.8671 73.6153 79.0687 73.16L81.0341 69.0112H81.9916L82.3443 73.2612C82.4451 73.6153 82.4451 73.9695 82.4451 74.4248C82.5459 74.0707 82.6971 73.7165 82.8987 73.3624L84.7633 69.0112H85.6704L82.7979 75.3861ZM89.0972 72.3505C89.0972 73.7671 88.2909 74.7284 87.4342 74.7284C86.7287 74.7284 86.4767 74.2731 86.4767 73.6659C86.4767 72.4011 87.0814 71.288 88.1397 71.288C88.7948 71.288 89.0972 71.6421 89.0972 72.3505ZM89.9539 72.2999C89.9539 71.3386 89.3996 70.6302 88.1901 70.6302C86.6783 70.6302 85.5192 71.9457 85.5192 73.8177C85.5192 74.8802 86.0735 75.4873 87.1822 75.4873C88.6436 75.4873 89.9539 74.2225 89.9539 72.2999ZM93.6831 71.3892C92.776 71.2374 91.9193 73.0082 91.6673 74.3237L91.5161 75.3861H90.609L91.5161 70.6808H92.4232C92.3224 71.1362 92.1712 71.5915 91.8689 72.4517C92.4232 71.288 93.0279 70.4279 93.8846 70.5796L93.6831 71.3892ZM96.0516 72.8058L97.4626 75.3861H96.5052L95.1949 72.907L94.7414 75.3861H93.935L95.2453 68.4547H96.0516L95.2453 72.7046L97.4626 70.3773L98.0674 70.9338L96.0516 72.8058ZM97.8154 56.1602V55.553H97.9666C98.1178 55.553 98.2186 55.6542 98.2186 55.806C98.2186 56.059 98.1178 56.1602 97.9666 56.1602H97.8154ZM97.3115 57.3744H97.8658V56.4131H97.9666L98.4201 57.3744H99.1257L98.5209 56.3119C98.8737 56.2108 98.9745 56.059 98.9745 55.7554C98.9745 55.3001 98.8233 55.1483 98.1682 55.1483H97.3619L97.3115 57.3744ZM98.0674 54.4399C97.513 54.4399 97.1099 54.6423 96.8075 54.9965C96.4548 55.3506 96.2028 55.9072 96.2028 56.3119C96.2028 56.7673 96.4548 57.2227 96.8075 57.5768C97.0595 57.931 97.513 58.1334 98.0674 58.1334C99.1257 58.1334 99.932 57.3238 99.932 56.3625C99.932 55.2495 99.1257 54.4399 98.0674 54.4399ZM98.0674 54.7941C98.9745 54.7941 99.5792 55.4012 99.5792 56.3119C99.5792 57.1215 98.9745 57.8298 98.0674 57.8298C97.2611 57.8298 96.5555 57.1215 96.5555 56.3119C96.6059 55.4518 97.3115 54.7941 98.0674 54.7941Z" fill="#125786"/>
</svg>
