<svg id="WWF_logo" xmlns="http://www.w3.org/2000/svg" width="39.411" height="58.832" viewBox="0 0 39.411 58.832">
  <path id="background" d="M18.008,34.707a8.033,8.033,0,0,1,5.355.185A53.032,53.032,0,0,0,29.9,33.752c2.661-.456,6.919-.38,10.113,1.825s6.235,2.281,6.843,8.744-.532,8.744-1.217,10.189-8.82,3.574-10.265,4.106-7.224,1.749-8.668,1.369S15.987,58.008,14.694,57.02,9.6,47.9,9.9,46.526s2.205-7.756,3.65-8.972A17.271,17.271,0,0,1,18.008,34.707Z" transform="translate(-8.656 -28.703)" fill="#fff"/>
  <path id="foreground" d="M19.964,1.8a3.842,3.842,0,0,0-2.385.855c-1.144.986-2.287,2.011-2.247,3.352A3.249,3.249,0,0,0,16.119,8.1a.466.466,0,0,1,0,.787A14.2,14.2,0,0,0,9.847,21.117,26.561,26.561,0,0,1,9.768,25.4a11.587,11.587,0,0,0,.717,4.475c.008.009.162.405-.186.174a12.733,12.733,0,0,1-4.117-4.5A13.142,13.142,0,0,1,4.56,19.2,13,13,0,0,1,11.141,7.832,12.906,12.906,0,0,0,1.8,20.333a13.441,13.441,0,0,0,.068,1.356,12.863,12.863,0,0,0,.447,3.336,11.125,11.125,0,0,1,.394,3.471c0,.355.118,12.032,7.023,11.992,0,0,3.291.082,3.313-1.26a3.16,3.16,0,0,0-.63-1.994c-.3-.651-.512-.691-.354-2.781,0,0,.008-.423.166-.433s2.082,5.72,4.567,8.719a8.156,8.156,0,0,0,6.865,3.313s3.549,0,3.549-1.775-1.617-1.066-1.617-6.708,2.722-5.363,3.038-3.983.592,2.485.039,6.193.948,4.143,2.329,4.143,8.64.235,9.9-20.517a17.678,17.678,0,0,0-.948-6.232s.474,5.523-2.959,8.482-5.406,2.526-5.406,2.526-1.655-.12-2.326.709-.554,1.421-1.974.987-1.426-.788-2.728-.63-2.086.314-2.6-.751a2.956,2.956,0,0,0-2.151-1.949c-1.065-.2-5.746-2.424-5.619-8.7.118-5.839,2.762-7.852,2.762-7.852s.435-.473.869-.276A1.773,1.773,0,0,0,19.789,9.2a7,7,0,0,1,2.88-1.856,1.159,1.159,0,0,0,.987-1.184c-.04-1.026-.87-3.272-1.935-3.943A3.21,3.21,0,0,0,19.964,1.8Zm3.58,28.237a3.091,3.091,0,0,1,.945.287A7.068,7.068,0,0,0,26.7,30.4c.472-.033.789.168.41.616-.521.618-1.145.6-1.932.65a2.719,2.719,0,0,1-1.631-.717c-.045-.076-.428-.484-.25-.773A.286.286,0,0,1,23.544,30.035ZM19.513,17.448c.912-1.119,1.42-1.263,2.209-1.263a2.316,2.316,0,0,1,2.209,1.736c.355,1.341.535,1.547-.743,3.044-.917,1.074-2.571,3.426-4.228,1.927S17.919,19.4,19.513,17.448Zm14.819,2.089c-.534-1.341-.976-1.63-1.729-1.867a2.316,2.316,0,0,0-2.628.993c-.741,1.173-1,1.284-.227,3.1.553,1.3,1.447,4.071,3.478,3.138S35.266,21.881,34.332,19.537Zm-8.74,8.8a2.55,2.55,0,0,1,1.977-.9.679.679,0,0,0,.736-.667s.053-.657-2.643-.919-2.766.433-2.766.433a.679.679,0,0,0,.6.789,2.573,2.573,0,0,1,1.777,1.248C25.333,28.5,25.5,28.5,25.591,28.341ZM38.306,12.159a1.775,1.775,0,0,1-1.9-.728,7,7,0,0,0-2.657-2.162A1.158,1.158,0,0,1,32.9,7.983c.153-1.015,1.225-3.158,2.358-3.707a3.828,3.828,0,0,1,4.069.89c1.028,1.107,2.051,2.253,1.863,3.582a3.238,3.238,0,0,1-1.016,1.991l.014,0A10.345,10.345,0,0,1,38.306,12.159Z" transform="translate(-1.798 -1.798)"/>
  <path id="cw" d="M43.594,263.288a1.765,1.765,0,1,0,1.765,1.765h0a1.764,1.764,0,0,0-1.765-1.763Zm-.816,2.583a1.156,1.156,0,1,1,1.972-.82v0a1.156,1.156,0,0,1-1.972.818Zm1.206-.643.3.1a.68.68,0,0,1-.231.376.728.728,0,0,1-.917-.088.806.806,0,0,1-.2-.575.845.845,0,0,1,.2-.6.684.684,0,0,1,.524-.213.643.643,0,0,1,.461.168.611.611,0,0,1,.158.285l-.309.074a.319.319,0,0,0-.326-.26.352.352,0,0,0-.279.123.6.6,0,0,0-.107.4.649.649,0,0,0,.105.418.342.342,0,0,0,.274.124.313.313,0,0,0,.214-.079.46.46,0,0,0,.129-.249Z" transform="translate(-35.743 -223.522)" fill="#6d6d6d"/>
  <path id="Rmark" d="M234.741,288.365a1.765,1.765,0,1,0,1.765,1.764h0a1.764,1.764,0,0,0-1.765-1.763Zm-.816,2.583a1.156,1.156,0,1,1,1.972-.82h0a1.156,1.156,0,0,1-1.972.818Zm.212-.045v-1.546h.657a1.127,1.127,0,0,1,.36.042.356.356,0,0,1,.18.148.444.444,0,0,1,.068.244.414.414,0,0,1-.1.287.49.49,0,0,1-.306.143.729.729,0,0,1,.167.13,1.772,1.772,0,0,1,.178.251l.189.3h-.373l-.226-.336a2.155,2.155,0,0,0-.165-.227.237.237,0,0,0-.094-.064.517.517,0,0,0-.157-.017h-.063v.645Zm.312-.892h.231a1.208,1.208,0,0,0,.281-.019.169.169,0,0,0,.087-.066.2.2,0,0,0,.032-.116.186.186,0,0,0-.042-.126.19.19,0,0,0-.118-.06q-.038-.005-.228-.005h-.244v.392Z" transform="translate(-197.821 -244.785)" fill="#6d6d6d"/>
  <path id="WWF" d="M6,318.61H8.009a.663.663,0,0,1,.725.434c.241.622,1.235,4.61,1.235,4.61l1.424-2.107s-.581-2.951.437-2.937c1.227.016,1.911,0,1.911,0s.489-.047.8.769c.36.96,1.237,4.34,1.237,4.34L17.8,319.1a.976.976,0,0,1,.725-.49c.474,0,.774.332.669.713-.16.579-3.515,9.4-3.515,9.4s-.223.53-.7.53-.67-.279-.921-.921-1.841-4.938-1.841-4.938l-2.4,5.44s-.181.418-.558.418c-.446,0-.614-.2-.837-.614s-3.041-8.481-3.041-8.481S4.828,318.61,6,318.61Zm14.834,0h2.009a.663.663,0,0,1,.725.434c.241.622,1.235,4.61,1.235,4.61l1.424-2.107s-.581-2.951.437-2.937c1.227.016,1.911,0,1.911,0s.489-.047.8.769c.36.96,1.237,4.34,1.237,4.34l2.027-4.619a.976.976,0,0,1,.725-.49c.474,0,.775.332.669.713-.16.579-3.515,9.4-3.515,9.4s-.223.53-.7.53-.669-.279-.921-.921-1.841-4.938-1.841-4.938l-2.4,5.44s-.181.418-.558.418c-.446,0-.614-.2-.837-.614s-3.041-8.481-3.041-8.481S19.662,318.61,20.834,318.61Zm14.845,10.644s-.69.059-.69-1.027v-8.956s0-.671.986-.671h6.746a.75.75,0,0,1,.817.75.669.669,0,0,1-.758.71H38.756a.458.458,0,0,0-.473.454v2.209h3.1s.837,0,.837.651-.7.69-.7.69H38.263v4.306s.048.883-.524.883C37.344,329.254,35.679,329.234,35.679,329.254Z" transform="translate(-4.728 -270.423)"/>
</svg>
