<svg xmlns="http://www.w3.org/2000/svg" width="154.516" height="81.844" viewBox="0 0 154.516 81.844">
  <g id="Group_6147" data-name="Group 6147" transform="translate(-819 -1166.446)">
    <g id="Group_6146" data-name="Group 6146" transform="translate(871.233 1166.446)">
      <path id="Path_6814" data-name="Path 6814" d="M29.91.7V26.632a2.011,2.011,0,0,1-2.052,2.052H24.78a.3.3,0,0,0-.28.28V50.7c.746,0,1.492.187,2.332.187A25.187,25.187,0,0,0,29.91.7Zm-.56,38.8a3.078,3.078,0,1,1,3.078-3.078A2.936,2.936,0,0,1,29.351,39.5Zm7.369,0A3.078,3.078,0,1,1,39.8,36.427,3.044,3.044,0,0,1,36.72,39.5Zm7.462,0a3.078,3.078,0,1,1,3.078-3.078A3.1,3.1,0,0,1,44.182,39.5Z" transform="translate(-1.647 -0.607)" fill="#00b956"/>
      <path id="Path_6815" data-name="Path 6815" d="M25.186.6A25.2,25.2,0,0,0,0,25.786,24.872,24.872,0,0,0,19.869,50.319V27.652A2.278,2.278,0,0,1,21.735,25.6h3.078a.3.3,0,0,0,.28-.28ZM20.335,21.308a3.078,3.078,0,1,1,3.078-3.078A3.169,3.169,0,0,1,20.335,21.308Z" transform="translate(0 -0.6)" fill="#00b956"/>
    </g>
    <g id="Group_6024" data-name="Group 6024" transform="translate(819 1227.178)">
      <path id="Path_6816" data-name="Path 6816" d="M217.736,13.6V20.27h-8.889V13.6h-4.51V31.25h4.51V24.126h8.889V31.25h4.379V13.6ZM144.27,15.629a3.987,3.987,0,0,0-3.595-2.418,3.919,3.919,0,0,0-3.595,2.418l-7.124,15.687h4.706l1.569-3.726h9.151l1.569,3.726h4.706l-7.386-15.687Zm-6.8,8.432,2.68-6.471c.131-.2.2-.2.327-.2s.327,0,.327.2l2.68,6.471h-6.013Zm-45.753-13.6c-2.092,0-3.4,1.111-4.379,3.333L81.653,27.067,75.9,13.733c-.915-2.157-2.288-3.333-4.379-3.333-1.961,0-3.922,1.307-3.922,4.379V31.185h4.379V15.368L77.8,28.505a4.121,4.121,0,0,0,3.856,3.007c1.9,0,3.137-1.111,3.856-3.007l5.817-13.138V31.381h4.379V14.975c-.065-3.072-2.026-4.51-3.987-4.51Zm11.7,17.059a.491.491,0,0,1-.458-.458V23.93h10.981V20.335H102.961v-2.68a.491.491,0,0,1,.458-.458h10.915V13.472H101.261a2.58,2.58,0,0,0-2.614,2.614V28.44a2.664,2.664,0,0,0,2.614,2.614h13.072V27.329H103.418v.2Zm18.3,3.726V17.786a.491.491,0,0,1,.458-.458h10.915V13.6H120.02a2.58,2.58,0,0,0-2.614,2.614V31.185Zm79.742-8.758c0-6.144-2.68-9.02-9.347-9.02h-1.569c-6.667,0-9.347,2.941-9.347,9.02,0,6.013,2.68,9.02,9.347,9.02h1.438c6.8-.131,9.477-3.007,9.477-9.02Zm-9.477,5.294h-1.438c-3.595,0-5.1-1.634-5.1-5.294,0-3.53,1.242-5.294,5.1-5.294h1.438c3.726,0,5.1,1.765,5.1,5.294C197.082,26.087,195.709,27.786,191.984,27.786ZM168.976,10.858h-8.758c-6.536,0-9.151,3.333-9.151,9.02,0,.915.131,1.765.2,2.484.719,4.052,3.137,6.536,9.216,6.536h1.961v2.288h4.379V28.9h1.9c6.144,0,8.562-2.484,9.216-6.536a14.177,14.177,0,0,0,.2-2.484C178.062,14.191,175.382,10.858,168.976,10.858Zm-6.667,14.38h-1.961c-3.007,0-4.052-1.111-4.706-2.941a9.567,9.567,0,0,1-.2-2.484c0-3.726,1.765-5.294,4.248-5.294h2.68V25.237Zm11.242-2.745c-.654,1.765-1.765,2.941-4.706,2.941h-1.961V14.649h2.68c2.484,0,4.249,1.569,4.249,5.294A14.573,14.573,0,0,1,173.552,22.492Z" transform="translate(-67.6 -10.4)" fill="#00b956"/>
    </g>
  </g>
</svg>
